SplineFontDB: 3.2
FontName: SeriousSans
FullName: Serious Sans
FamilyName: Serious Sans
Weight: Book
Copyright: https://github.com/kaBeech/serious-sans/blob/main/LICENSE
Version: 0.2.0
ItalicAngle: 0
UnderlinePosition: 0
UnderlineWidth: 0
Ascent: 1638
Descent: 410
InvalidEm: 0
LayerCount: 2
Layer: 0 1 "Back" 1
Layer: 1 1 "Fore" 0
XUID: [1021 107 -322497659 2235226]
StyleMap: 0x0040
FSType: 4
OS2Version: 3
OS2_WeightWidthSlopeOnly: 0
OS2_UseTypoMetrics: 0
CreationTime: 1532631502
ModificationTime: 1679199686
PfmFamily: 81
TTFWeight: 400
TTFWidth: 5
LineGap: 0
VLineGap: 0
Panose: 0 0 0 0 0 0 0 0 0 0
OS2TypoAscent: 1255
OS2TypoAOffset: 0
OS2TypoDescent: -385
OS2TypoDOffset: 0
OS2TypoLinegap: 201
OS2WinAscent: 1593
OS2WinAOffset: 0
OS2WinDescent: 631
OS2WinDOffset: 0
HheadAscent: 1630
HheadAOffset: 0
HheadDescent: -649
HheadDOffset: 0
OS2SubXSize: 649
OS2SubYSize: 600
OS2SubXOff: 0
OS2SubYOff: 76
OS2SupXSize: 649
OS2SupYSize: 600
OS2SupXOff: 0
OS2SupYOff: 350
OS2StrikeYSize: 0
OS2StrikeYPos: 270
OS2CapHeight: 1180
OS2XHeight: 993
OS2Vendor: 'NONE'
OS2CodePages: 00000001.00000000
OS2UnicodeRanges: 00000001.00000000.00000000.00000000
MarkAttachClasses: 1
DEI: 91125
TtTable: prep
PUSHW_1
 511
SCANCTRL
PUSHB_1
 1
SCANTYPE
SVTCA[y-axis]
MPPEM
PUSHB_1
 8
LT
IF
PUSHB_2
 1
 1
INSTCTRL
EIF
PUSHB_2
 70
 6
CALL
IF
POP
PUSHB_1
 16
EIF
MPPEM
PUSHB_1
 20
GT
IF
POP
PUSHB_1
 128
EIF
SCVTCI
PUSHB_1
 6
CALL
NOT
IF
EIF
PUSHB_1
 20
CALL
EndTTInstrs
TtTable: fpgm
PUSHB_1
 0
FDEF
PUSHB_1
 0
SZP0
MPPEM
PUSHB_1
 42
LT
IF
PUSHB_1
 74
SROUND
EIF
PUSHB_1
 0
SWAP
MIAP[rnd]
RTG
PUSHB_1
 6
CALL
IF
RTDG
EIF
MPPEM
PUSHB_1
 42
LT
IF
RDTG
EIF
DUP
MDRP[rp0,rnd,grey]
PUSHB_1
 1
SZP0
MDAP[no-rnd]
RTG
ENDF
PUSHB_1
 1
FDEF
DUP
MDRP[rp0,min,white]
PUSHB_1
 12
CALL
ENDF
PUSHB_1
 2
FDEF
MPPEM
GT
IF
RCVT
SWAP
EIF
POP
ENDF
PUSHB_1
 3
FDEF
ROUND[Black]
RTG
DUP
PUSHB_1
 64
LT
IF
POP
PUSHB_1
 64
EIF
ENDF
PUSHB_1
 4
FDEF
PUSHB_1
 6
CALL
IF
POP
SWAP
POP
ROFF
IF
MDRP[rp0,min,rnd,black]
ELSE
MDRP[min,rnd,black]
EIF

StartChar: .notdef
Encoding: 65536 -1 0
Width: 1114
GlyphClass: 1
Flags: W
LayerCount: 2
Fore
SplineSet
119 -549 m 1,0,-1
 119 1534 l 1,1,-1
 995 1534 l 1,2,-1
 995 -549 l 1,3,-1
 119 -549 l 1,0,-1
227 -438 m 1,4,-1
 885 -438 l 1,5,-1
 885 1423 l 1,6,-1
 227 1423 l 1,7,-1
 227 -438 l 1,4,-1
EndSplineSet
Validated: 1
EndChar

StartChar: exclam
Encoding: 33 33 1
Width: 1114
GlyphClass: 2
Flags: W
LayerCount: 2
Fore
SplineSet
677 1511 m 0,0,1
 677 1493 677 1493 668 1242 c 128,-1,2
 659 991 659 991 663 834 c 0,3,4
 667 680 667 680 663 650.5 c 128,-1,5
 659 621 659 621 661 555 c 1,6,7
 657 510 657 510 626 484.5 c 128,-1,8
 595 459 595 459 552 461 c 0,9,10
 511 461 511 461 484.5 487.5 c 128,-1,11
 458 514 458 514 462 565 c 0,12,13
 464 596 464 596 469 624.5 c 128,-1,14
 474 653 474 653 475 672.5 c 128,-1,15
 476 692 476 692 478 765 c 128,-1,16
 480 838 480 838 474 952 c 0,17,18
 472 1032 472 1032 471 1121 c 128,-1,19
 470 1210 470 1210 472 1269.5 c 128,-1,20
 474 1329 474 1329 476 1405 c 128,-1,21
 478 1481 478 1481 478 1505 c 0,22,23
 480 1560 480 1560 509 1589 c 128,-1,24
 538 1618 538 1618 581 1618 c 0,25,26
 624 1620 624 1620 650.5 1593 c 128,-1,27
 677 1566 677 1566 677 1511 c 0,0,1
562 -49 m 0,28,29
 486 -57 486 -57 438 -8 c 128,-1,30
 390 41 390 41 390 111 c 0,31,32
 390 172 390 172 443.5 217 c 128,-1,33
 497 262 497 262 562 264 c 0,34,35
 634 266 634 266 679 222 c 128,-1,36
 724 178 724 178 724 113 c 0,37,38
 724 47 724 47 680 3 c 128,-1,39
 636 -41 636 -41 562 -49 c 0,28,29
EndSplineSet
Validated: 33
EndChar

StartChar: quotedbl
Encoding: 34 34 2
Width: 1114
GlyphClass: 2
Flags: W
LayerCount: 2
Fore
SplineSet
501.8203125 1511 m 0,0,1
 503.8203125 1427 503.8203125 1427 499.8203125 1235.5 c 128,-1,2
 495.8203125 1044 495.8203125 1044 484.8203125 973 c 0,3,4
 478.8203125 932 478.8203125 932 450.3203125 911.5 c 128,-1,5
 421.8203125 891 421.8203125 891 386.8203125 893 c 0,6,7
 345.8203125 895 345.8203125 895 314.3203125 918.5 c 128,-1,8
 282.8203125 942 282.8203125 942 286.8203125 985 c 0,9,10
 292.8203125 1089 292.8203125 1089 291.8203125 1253 c 128,-1,11
 290.8203125 1417 290.8203125 1417 284.8203125 1524 c 0,12,13
 282.8203125 1549 282.8203125 1549 293.8203125 1566 c 128,-1,14
 304.8203125 1583 304.8203125 1583 323.3203125 1591 c 128,-1,15
 341.8203125 1599 341.8203125 1599 361.3203125 1602.5 c 128,-1,16
 380.8203125 1606 380.8203125 1606 398.8203125 1604 c 0,17,18
 416.8203125 1604 416.8203125 1604 433.8203125 1599.5 c 128,-1,19
 450.8203125 1595 450.8203125 1595 465.8203125 1586 c 128,-1,20
 480.8203125 1577 480.8203125 1577 491.3203125 1557.5 c 128,-1,21
 501.8203125 1538 501.8203125 1538 501.8203125 1511 c 0,0,1
828.8203125 1511 m 0,22,23
 830.8203125 1427 830.8203125 1427 826.8203125 1235.5 c 128,-1,24
 822.8203125 1044 822.8203125 1044 814.8203125 973 c 0,25,26
 808.8203125 932 808.8203125 932 779.3203125 911.5 c 128,-1,27
 749.8203125 891 749.8203125 891 716.8203125 893 c 0,28,29
 675.8203125 895 675.8203125 895 642.8203125 918.5 c 128,-1,30
 609.8203125 942 609.8203125 942 615.8203125 985 c 0,31,32
 621.8203125 1089 621.8203125 1089 619.8203125 1253 c 128,-1,33
 617.8203125 1417 617.8203125 1417 611.8203125 1524 c 0,34,35
 611.8203125 1549 611.8203125 1549 623.3203125 1566 c 128,-1,36
 634.8203125 1583 634.8203125 1583 653.3203125 1591 c 128,-1,37
 671.8203125 1599 671.8203125 1599 690.3203125 1602.5 c 128,-1,38
 708.8203125 1606 708.8203125 1606 726.8203125 1604 c 0,39,40
 744.8203125 1604 744.8203125 1604 761.3203125 1599.5 c 128,-1,41
 777.8203125 1595 777.8203125 1595 794.3203125 1586 c 128,-1,42
 810.8203125 1577 810.8203125 1577 819.8203125 1557.5 c 128,-1,43
 828.8203125 1538 828.8203125 1538 828.8203125 1511 c 0,22,23
EndSplineSet
Validated: 524321
EndChar

StartChar: numbersign
Encoding: 35 35 3
Width: 1114
GlyphClass: 2
Flags: W
LayerCount: 2
Fore
SplineSet
324.07421875 86 m 1,0,1
 310.07421875 43 310.07421875 43 264.57421875 15.5 c 128,-1,2
 219.07421875 -12 219.07421875 -12 180.07421875 0 c 1,3,4
 141.07421875 8 141.07421875 8 123.07421875 52 c 128,-1,5
 105.07421875 96 105.07421875 96 121.07421875 150 c 0,6,7
 137.07421875 205 137.07421875 205 178.07421875 387 c 1,8,-1
 117.07421875 387 l 2,9,10
 66.07421875 387 66.07421875 387 39.07421875 407.5 c 128,-1,11
 12.07421875 428 12.07421875 428 12.07421875 463 c 0,12,13
 10.07421875 500 10.07421875 500 35.07421875 524.5 c 128,-1,14
 60.07421875 549 60.07421875 549 113.07421875 553 c 0,15,16
 129.07421875 553 129.07421875 553 163.07421875 554 c 128,-1,17
 197.07421875 555 197.07421875 555 213.07421875 555 c 1,18,-1
 283.07421875 909 l 1,19,20
 267.07421875 909 267.07421875 909 238.07421875 908 c 128,-1,21
 209.07421875 907 209.07421875 907 199.07421875 907 c 0,22,23
 148.07421875 905 148.07421875 905 120.07421875 928.5 c 128,-1,24
 92.07421875 952 92.07421875 952 92.07421875 987 c 0,25,26
 90.07421875 1024 90.07421875 1024 117.07421875 1049.5 c 128,-1,27
 144.07421875 1075 144.07421875 1075 197.07421875 1077 c 0,28,29
 236.07421875 1079 236.07421875 1079 316.07421875 1079 c 1,30,31
 373.07421875 1388 373.07421875 1388 375.07421875 1399 c 0,32,33
 391.07421875 1450 391.07421875 1450 426.07421875 1470.5 c 128,-1,34
 461.07421875 1491 461.07421875 1491 498.07421875 1481 c 0,35,36
 541.07421875 1473 541.07421875 1473 564.57421875 1440 c 128,-1,37
 588.07421875 1407 588.07421875 1407 578.07421875 1354 c 2,38,-1
 522.07421875 1083 l 1,39,-1
 754.07421875 1083 l 1,40,-1
 809.07421875 1382 l 1,41,42
 825.07421875 1435 825.07421875 1435 859.07421875 1456 c 128,-1,43
 893.07421875 1477 893.07421875 1477 934.07421875 1466 c 0,44,45
 979.07421875 1458 979.07421875 1458 1001.57421875 1425.5 c 128,-1,46
 1024.07421875 1393 1024.07421875 1393 1012.07421875 1339 c 0,47,48
 989.07421875 1253 989.07421875 1253 961.07421875 1087 c 1,49,-1
 983.07421875 1087 l 2,50,51
 1032.07421875 1087 1032.07421875 1087 1066.07421875 1059.5 c 128,-1,52
 1100.07421875 1032 1100.07421875 1032 1102.07421875 1001 c 0,53,54
 1102.07421875 964 1102.07421875 964 1077.57421875 938.5 c 128,-1,55
 1053.07421875 913 1053.07421875 913 1002.07421875 911 c 2,56,-1
 928.07421875 911 l 1,57,-1
 869.07421875 561 l 1,58,-1
 953.07421875 561 l 2,59,60
 1000.07421875 561 1000.07421875 561 1018.07421875 539.5 c 128,-1,61
 1036.07421875 518 1036.07421875 518 1039.07421875 483 c 0,62,63
 1039.07421875 393 1039.07421875 393 953.07421875 393 c 2,64,-1
 838.07421875 393 l 1,65,66
 797.07421875 160 797.07421875 160 778.07421875 78 c 1,67,68
 762.07421875 35 762.07421875 35 720.07421875 11.5 c 128,-1,69
 678.07421875 -12 678.07421875 -12 637.07421875 0 c 0,70,71
 598.07421875 8 598.07421875 8 579.57421875 48 c 128,-1,72
 561.07421875 88 561.07421875 88 578.07421875 139 c 0,73,74
 598.07421875 221 598.07421875 221 631.07421875 391 c 1,75,76
 588.07421875 391 588.07421875 391 506.07421875 390 c 128,-1,77
 424.07421875 389 424.07421875 389 385.07421875 389 c 1,78,79
 342.07421875 168 342.07421875 168 324.07421875 86 c 1,0,1
490.07421875 911 m 1,80,-1
 418.07421875 561 l 1,81,82
 502.07421875 563 502.07421875 563 660.07421875 563 c 1,83,84
 693.07421875 731 693.07421875 731 723.07421875 911 c 1,85,-1
 490.07421875 911 l 1,80,-1
EndSplineSet
Validated: 524321
EndChar

StartChar: dollar
Encoding: 36 36 4
Width: 1114
GlyphClass: 2
Flags: W
LayerCount: 2
Fore
SplineSet
642.828125 -203 m 1,0,1
 638.828125 -248 638.828125 -248 607.828125 -272.5 c 128,-1,2
 576.828125 -297 576.828125 -297 535.828125 -297 c 0,3,4
 496.828125 -297 496.828125 -297 477.328125 -269.5 c 128,-1,5
 457.828125 -242 457.828125 -242 461.828125 -190 c 0,6,7
 465.828125 -141 465.828125 -141 465.828125 -59 c 1,8,-1
 457.828125 -59 l 2,9,10
 383.828125 -59 383.828125 -59 320.328125 -41 c 128,-1,11
 256.828125 -23 256.828125 -23 209.828125 8 c 128,-1,12
 162.828125 39 162.828125 39 129.328125 74 c 128,-1,13
 95.828125 109 95.828125 109 74.828125 150 c 0,14,15
 49.828125 205 49.828125 205 58.328125 239.5 c 128,-1,16
 66.828125 274 66.828125 274 101.828125 291 c 0,17,18
 126.828125 301 126.828125 301 140.828125 305 c 128,-1,19
 154.828125 309 154.828125 309 172.328125 307 c 128,-1,20
 189.828125 305 189.828125 305 206.328125 290.5 c 128,-1,21
 222.828125 276 222.828125 276 240.828125 250 c 0,22,23
 281.828125 187 281.828125 187 335.328125 151 c 128,-1,24
 388.828125 115 388.828125 115 465.828125 115 c 2,25,-1
 472.828125 115 l 1,26,27
 476.828125 457 476.828125 457 476.828125 725 c 1,28,29
 466.828125 725 466.828125 725 440.828125 729 c 128,-1,30
 414.828125 733 414.828125 733 402.828125 733 c 0,31,32
 328.828125 741 328.828125 741 268.328125 772 c 128,-1,33
 207.828125 803 207.828125 803 171.328125 847 c 128,-1,34
 134.828125 891 134.828125 891 114.328125 939 c 128,-1,35
 93.828125 987 93.828125 987 93.828125 1036 c 0,36,37
 93.828125 1110 93.828125 1110 116.328125 1177.5 c 128,-1,38
 138.828125 1245 138.828125 1245 184.828125 1303.5 c 128,-1,39
 230.828125 1362 230.828125 1362 305.328125 1404 c 128,-1,40
 379.828125 1446 379.828125 1446 478.828125 1462 c 1,41,42
 480.828125 1511 480.828125 1511 480.828125 1581 c 0,43,44
 482.828125 1694 482.828125 1694 564.828125 1694 c 0,45,46
 656.828125 1696 656.828125 1696 656.828125 1587 c 2,47,-1
 656.828125 1479 l 1,48,49
 701.828125 1477 701.828125 1477 782.828125 1458.5 c 128,-1,50
 863.828125 1440 863.828125 1440 902.828125 1423 c 0,51,52
 941.828125 1409 941.828125 1409 958.828125 1378.5 c 128,-1,53
 975.828125 1348 975.828125 1348 969.828125 1313 c 0,54,55
 967.828125 1288 967.828125 1288 954.828125 1275 c 128,-1,56
 941.828125 1262 941.828125 1262 922.328125 1258.5 c 128,-1,57
 902.828125 1255 902.828125 1255 885.328125 1257.5 c 128,-1,58
 867.828125 1260 867.828125 1260 848.828125 1264 c 0,59,60
 830.828125 1268 830.828125 1268 802.328125 1281 c 128,-1,61
 773.828125 1294 773.828125 1294 738.828125 1304.5 c 128,-1,62
 703.828125 1315 703.828125 1315 654.828125 1317 c 1,63,64
 652.828125 1153 652.828125 1153 646.828125 883 c 1,65,66
 740.828125 871 740.828125 871 814.328125 839 c 128,-1,67
 887.828125 807 887.828125 807 932.828125 766 c 128,-1,68
 977.828125 725 977.828125 725 1007.828125 671.5 c 128,-1,69
 1037.828125 618 1037.828125 618 1047.828125 567 c 128,-1,70
 1057.828125 516 1057.828125 516 1057.828125 461 c 0,71,72
 1057.828125 367 1057.828125 367 1026.328125 283 c 128,-1,73
 994.828125 199 994.828125 199 937.328125 137.5 c 128,-1,74
 879.828125 76 879.828125 76 804.328125 31 c 128,-1,75
 728.828125 -14 728.828125 -14 639.828125 -37 c 1,76,77
 640.828125 -160 640.828125 -160 642.828125 -203 c 1,0,1
281.828125 1087 m 0,78,79
 281.828125 1021 281.828125 1021 334.328125 972.5 c 128,-1,80
 386.828125 924 386.828125 924 476.828125 903 c 1,81,82
 478.828125 1044 478.828125 1044 478.828125 1296 c 1,83,84
 390.828125 1269 390.828125 1269 336.328125 1216 c 128,-1,85
 281.828125 1163 281.828125 1163 281.828125 1087 c 0,78,79
867.828125 426 m 0,86,87
 867.828125 465 867.828125 465 858.328125 497.5 c 128,-1,88
 848.828125 530 848.828125 530 826.328125 566 c 128,-1,89
 803.828125 602 803.828125 602 757.828125 633 c 128,-1,90
 711.828125 664 711.828125 664 644.828125 686 c 1,91,92
 644.828125 596 644.828125 596 643.828125 414.5 c 128,-1,93
 642.828125 233 642.828125 233 639.828125 152 c 1,94,95
 737.828125 193 737.828125 193 802.828125 264.5 c 128,-1,96
 867.828125 336 867.828125 336 867.828125 426 c 0,86,87
EndSplineSet
Validated: 524321
EndChar

StartChar: percent
Encoding: 37 37 5
Width: 1114
GlyphClass: 2
Flags: W
LayerCount: 2
Fore
SplineSet
263.765625 885 m 0,0,1
 191.765625 885 191.765625 885 135.765625 925 c 128,-1,2
 79.765625 965 79.765625 965 53.265625 1025 c 128,-1,3
 26.765625 1085 26.765625 1085 26.765625 1155 c 0,4,5
 26.765625 1282 26.765625 1282 97.265625 1363 c 128,-1,6
 167.765625 1444 167.765625 1444 296.765625 1444 c 0,7,8
 347.765625 1444 347.765625 1444 391.765625 1426.5 c 128,-1,9
 435.765625 1409 435.765625 1409 470.765625 1374 c 128,-1,10
 505.765625 1339 505.765625 1339 524.265625 1279 c 128,-1,11
 542.765625 1219 542.765625 1219 538.765625 1139 c 0,12,13
 532.765625 1014 532.765625 1014 465.765625 949.5 c 128,-1,14
 398.765625 885 398.765625 885 263.765625 885 c 0,0,1
77.765625 39 m 0,15,16
 120.765625 127 120.765625 127 281.765625 408.5 c 128,-1,17
 442.765625 690 442.765625 690 603.265625 977 c 128,-1,18
 763.765625 1264 763.765625 1264 818.765625 1386 c 1,19,20
 843.765625 1423 843.765625 1423 883.765625 1432.5 c 128,-1,21
 923.765625 1442 923.765625 1442 958.765625 1421 c 0,22,23
 995.765625 1405 995.765625 1405 1000.765625 1373 c 128,-1,24
 1005.765625 1341 1005.765625 1341 976.765625 1296 c 0,25,26
 900.765625 1171 900.765625 1171 615.265625 659 c 128,-1,27
 329.765625 147 329.765625 147 237.765625 -33 c 0,28,29
 184.765625 -131 184.765625 -131 112.765625 -96 c 0,30,31
 30.765625 -57 30.765625 -57 77.765625 39 c 0,15,16
286.765625 1038 m 0,32,33
 337.765625 1038 337.765625 1038 363.265625 1071 c 128,-1,34
 388.765625 1104 388.765625 1104 395.765625 1159 c 0,35,36
 397.765625 1229 397.765625 1229 366.765625 1261.5 c 128,-1,37
 335.765625 1294 335.765625 1294 280.765625 1294 c 0,38,39
 231.765625 1294 231.765625 1294 204.765625 1258.5 c 128,-1,40
 177.765625 1223 177.765625 1223 173.765625 1161 c 0,41,42
 171.765625 1104 171.765625 1104 195.265625 1073 c 128,-1,43
 218.765625 1042 218.765625 1042 286.765625 1038 c 0,32,33
810.765625 -57 m 0,44,45
 738.765625 -57 738.765625 -57 683.765625 -17 c 128,-1,46
 628.765625 23 628.765625 23 601.265625 83 c 128,-1,47
 573.765625 143 573.765625 143 575.765625 213 c 0,48,49
 575.765625 340 575.765625 340 645.265625 421 c 128,-1,50
 714.765625 502 714.765625 502 843.765625 502 c 0,51,52
 894.765625 502 894.765625 502 938.765625 485.5 c 128,-1,53
 982.765625 469 982.765625 469 1018.765625 433 c 128,-1,54
 1054.765625 397 1054.765625 397 1073.265625 336.5 c 128,-1,55
 1091.765625 276 1091.765625 276 1085.765625 197 c 0,56,57
 1079.765625 72 1079.765625 72 1012.765625 6.5 c 128,-1,58
 945.765625 -59 945.765625 -59 810.765625 -57 c 0,44,45
833.765625 98 m 0,59,60
 882.765625 96 882.765625 96 909.265625 130 c 128,-1,61
 935.765625 164 935.765625 164 939.765625 217 c 0,62,63
 941.765625 350 941.765625 350 829.765625 350 c 0,64,65
 782.765625 350 782.765625 350 754.765625 314.5 c 128,-1,66
 726.765625 279 726.765625 279 722.765625 219 c 0,67,68
 720.765625 164 720.765625 164 745.765625 132 c 128,-1,69
 770.765625 100 770.765625 100 833.765625 98 c 0,59,60
EndSplineSet
Validated: 524321
EndChar

StartChar: ampersand
Encoding: 38 38 6
Width: 1114
GlyphClass: 2
Flags: W
LayerCount: 2
Fore
SplineSet
1018.5859375 -72 m 0,0,1
 981.5859375 -95 981.5859375 -95 935.5859375 -71 c 128,-1,2
 889.5859375 -47 889.5859375 -47 854.5859375 10 c 0,3,4
 850.5859375 20 850.5859375 20 831.0859375 71.5 c 128,-1,5
 811.5859375 123 811.5859375 123 801.5859375 145 c 1,6,7
 795.5859375 137 795.5859375 137 775.0859375 110.5 c 128,-1,8
 754.5859375 84 754.5859375 84 744.0859375 71.5 c 128,-1,9
 733.5859375 59 733.5859375 59 711.0859375 34.5 c 128,-1,10
 688.5859375 10 688.5859375 10 671.0859375 -3 c 128,-1,11
 653.5859375 -16 653.5859375 -16 626.0859375 -34.5 c 128,-1,12
 598.5859375 -53 598.5859375 -53 573.0859375 -62.5 c 128,-1,13
 547.5859375 -72 547.5859375 -72 511.5859375 -79 c 128,-1,14
 475.5859375 -86 475.5859375 -86 438.5859375 -86 c 0,15,16
 323.5859375 -86 323.5859375 -86 228.5859375 -26.5 c 128,-1,17
 133.5859375 33 133.5859375 33 80.5859375 129 c 128,-1,18
 27.5859375 225 27.5859375 225 27.5859375 338 c 0,19,20
 27.5859375 725 27.5859375 725 346.5859375 864 c 1,21,22
 328.5859375 895 328.5859375 895 302.0859375 938 c 128,-1,23
 275.5859375 981 275.5859375 981 264.0859375 998.5 c 128,-1,24
 252.5859375 1016 252.5859375 1016 238.0859375 1043.5 c 128,-1,25
 223.5859375 1071 223.5859375 1071 218.5859375 1091.5 c 128,-1,26
 213.5859375 1112 213.5859375 1112 209.5859375 1141.5 c 128,-1,27
 205.5859375 1171 205.5859375 1171 205.5859375 1206 c 256,28,29
 205.5859375 1243 205.5859375 1243 214.5859375 1279 c 128,-1,30
 223.5859375 1315 223.5859375 1315 248.5859375 1353 c 128,-1,31
 273.5859375 1391 273.5859375 1391 308.0859375 1419.5 c 128,-1,32
 342.5859375 1448 342.5859375 1448 401.0859375 1465.5 c 128,-1,33
 459.5859375 1483 459.5859375 1483 531.5859375 1483 c 0,34,35
 590.5859375 1483 590.5859375 1483 648.0859375 1464.5 c 128,-1,36
 705.5859375 1446 705.5859375 1446 752.5859375 1410 c 128,-1,37
 799.5859375 1374 799.5859375 1374 827.0859375 1315.5 c 128,-1,38
 854.5859375 1257 854.5859375 1257 854.5859375 1186 c 0,39,40
 854.5859375 1120 854.5859375 1120 838.0859375 1064 c 128,-1,41
 821.5859375 1008 821.5859375 1008 796.0859375 970 c 128,-1,42
 770.5859375 932 770.5859375 932 731.5859375 897 c 128,-1,43
 692.5859375 862 692.5859375 862 660.0859375 841.5 c 128,-1,44
 627.5859375 821 627.5859375 821 584.5859375 801 c 1,45,46
 621.5859375 738 621.5859375 738 709.5859375 612.5 c 128,-1,47
 797.5859375 487 797.5859375 487 821.5859375 446 c 1,48,49
 835.5859375 475 835.5859375 475 853.5859375 513 c 128,-1,50
 871.5859375 551 871.5859375 551 881.5859375 574.5 c 128,-1,51
 891.5859375 598 891.5859375 598 899.5859375 608 c 0,52,53
 936.5859375 661 936.5859375 661 969.5859375 674.5 c 128,-1,54
 1002.5859375 688 1002.5859375 688 1041.5859375 668 c 0,55,56
 1076.5859375 652 1076.5859375 652 1084.5859375 607.5 c 128,-1,57
 1092.5859375 563 1092.5859375 563 1065.5859375 508 c 0,58,59
 1055.5859375 490 1055.5859375 490 1004.0859375 426 c 128,-1,60
 952.5859375 362 952.5859375 362 920.5859375 309 c 1,61,62
 943.5859375 270 943.5859375 270 984.0859375 197.5 c 128,-1,63
 1024.5859375 125 1024.5859375 125 1032.5859375 113 c 0,64,65
 1063.5859375 64 1063.5859375 64 1056.5859375 4 c 128,-1,66
 1049.5859375 -56 1049.5859375 -56 1018.5859375 -72 c 0,0,1
400.5859375 1171 m 0,67,68
 400.5859375 1120 400.5859375 1120 428.0859375 1058.5 c 128,-1,69
 455.5859375 997 455.5859375 997 494.5859375 950 c 1,70,71
 539.5859375 964 539.5859375 964 571.0859375 979.5 c 128,-1,72
 602.5859375 995 602.5859375 995 630.5859375 1019.5 c 128,-1,73
 658.5859375 1044 658.5859375 1044 671.5859375 1080 c 128,-1,74
 684.5859375 1116 684.5859375 1116 684.5859375 1165 c 0,75,76
 684.5859375 1241 684.5859375 1241 638.5859375 1281 c 128,-1,77
 592.5859375 1321 592.5859375 1321 526.5859375 1321 c 0,78,79
 400.5859375 1321 400.5859375 1321 400.5859375 1171 c 0,67,68
232.5859375 356 m 0,80,81
 232.5859375 250 232.5859375 250 290.5859375 178 c 128,-1,82
 348.5859375 106 348.5859375 106 440.5859375 106 c 0,83,84
 469.5859375 106 469.5859375 106 497.0859375 112.5 c 128,-1,85
 524.5859375 119 524.5859375 119 544.0859375 125 c 128,-1,86
 563.5859375 131 563.5859375 131 585.0859375 145.5 c 128,-1,87
 606.5859375 160 606.5859375 160 619.0859375 169 c 128,-1,88
 631.5859375 178 631.5859375 178 648.0859375 197.5 c 128,-1,89
 664.5859375 217 664.5859375 217 670.5859375 225 c 128,-1,90
 676.5859375 233 676.5859375 233 692.0859375 254.5 c 128,-1,91
 707.5859375 276 707.5859375 276 711.5859375 281 c 1,92,93
 674.5859375 361 674.5859375 361 649.5859375 406 c 0,94,95
 624.5859375 453 624.5859375 453 550.0859375 559.5 c 128,-1,96
 475.5859375 666 475.5859375 666 443.5859375 717 c 1,97,98
 382.5859375 690 382.5859375 690 339.0859375 650 c 128,-1,99
 295.5859375 610 295.5859375 610 273.0859375 562 c 128,-1,100
 250.5859375 514 250.5859375 514 241.5859375 464.5 c 128,-1,101
 232.5859375 415 232.5859375 415 232.5859375 356 c 0,80,81
EndSplineSet
Validated: 524321
EndChar

StartChar: quotesingle
Encoding: 39 39 7
Width: 1114
GlyphClass: 2
Flags: W
LayerCount: 2
Fore
SplineSet
665.166992188 1491 m 0,0,1
 667.166992188 1409 667.166992188 1409 663.166992188 1238 c 128,-1,2
 659.166992188 1067 659.166992188 1067 649.166992188 995 c 0,3,4
 643.166992188 952 643.166992188 952 613.166992188 931.5 c 128,-1,5
 583.166992188 911 583.166992188 911 550.166992188 913 c 0,6,7
 509.166992188 915 509.166992188 915 477.666992188 940 c 128,-1,8
 446.166992188 965 446.166992188 965 450.166992188 1008 c 0,9,10
 456.166992188 1114 456.166992188 1114 454.166992188 1253.5 c 128,-1,11
 452.166992188 1393 452.166992188 1393 448.166992188 1501 c 0,12,13
 448.166992188 1526 448.166992188 1526 457.166992188 1544.5 c 128,-1,14
 466.166992188 1563 466.166992188 1563 485.666992188 1570 c 128,-1,15
 505.166992188 1577 505.166992188 1577 523.666992188 1580 c 128,-1,16
 542.166992188 1583 542.166992188 1583 560.166992188 1581 c 0,17,18
 578.166992188 1581 578.166992188 1581 595.166992188 1577 c 128,-1,19
 612.166992188 1573 612.166992188 1573 628.166992188 1563.5 c 128,-1,20
 644.166992188 1554 644.166992188 1554 654.666992188 1536 c 128,-1,21
 665.166992188 1518 665.166992188 1518 665.166992188 1491 c 0,0,1
EndSplineSet
Validated: 524321
EndChar

StartChar: parenleft
Encoding: 40 40 8
Width: 1114
GlyphClass: 2
Flags: W
LayerCount: 2
Fore
SplineSet
860.859375 -190 m 0,0,1
 860.859375 -223 860.859375 -223 833.859375 -245.5 c 128,-1,2
 806.859375 -268 806.859375 -268 778.859375 -268 c 0,3,4
 641.859375 -268 641.859375 -268 529.859375 -170 c 128,-1,5
 417.859375 -72 417.859375 -72 347.359375 102 c 128,-1,6
 276.859375 276 276.859375 276 256.859375 504 c 0,7,8
 242.859375 654 242.859375 654 262.859375 893.5 c 128,-1,9
 282.859375 1133 282.859375 1133 342.859375 1288 c 0,10,11
 369.859375 1356 369.859375 1356 413.359375 1422.5 c 128,-1,12
 456.859375 1489 456.859375 1489 513.359375 1544 c 128,-1,13
 569.859375 1599 569.859375 1599 640.359375 1633 c 128,-1,14
 710.859375 1667 710.859375 1667 780.859375 1667 c 0,15,16
 864.859375 1667 864.859375 1667 862.859375 1583 c 0,17,18
 862.859375 1540 862.859375 1540 838.359375 1520.5 c 128,-1,19
 813.859375 1501 813.859375 1501 776.859375 1501 c 0,20,21
 723.859375 1501 723.859375 1501 677.359375 1470.5 c 128,-1,22
 630.859375 1440 630.859375 1440 596.359375 1386.5 c 128,-1,23
 561.859375 1333 561.859375 1333 536.359375 1269.5 c 128,-1,24
 510.859375 1206 510.859375 1206 491.859375 1133 c 0,25,26
 464.859375 1027 464.859375 1027 454.859375 840 c 128,-1,27
 444.859375 653 444.859375 653 454.859375 537 c 0,28,29
 464.859375 412 464.859375 412 498.859375 294 c 128,-1,30
 532.859375 176 532.859375 176 577.859375 91 c 128,-1,31
 622.859375 6 622.859375 6 676.359375 -45 c 128,-1,32
 729.859375 -96 729.859375 -96 778.859375 -96 c 0,33,34
 819.859375 -96 819.859375 -96 840.359375 -116.5 c 128,-1,35
 860.859375 -137 860.859375 -137 860.859375 -190 c 0,0,1
EndSplineSet
Validated: 524321
EndChar

StartChar: parenright
Encoding: 41 41 9
Width: 1114
GlyphClass: 2
Flags: W
LayerCount: 2
Fore
SplineSet
857.159179688 504 m 0,0,1
 834.159179688 277 834.159179688 277 764.659179688 102.5 c 128,-1,2
 695.159179688 -72 695.159179688 -72 583.659179688 -170 c 128,-1,3
 472.159179688 -268 472.159179688 -268 335.159179688 -268 c 0,4,5
 306.159179688 -268 306.159179688 -268 279.659179688 -245.5 c 128,-1,6
 253.159179688 -223 253.159179688 -223 253.159179688 -190 c 0,7,8
 253.159179688 -137 253.159179688 -137 274.659179688 -116.5 c 128,-1,9
 296.159179688 -96 296.159179688 -96 335.159179688 -96 c 0,10,11
 382.159179688 -96 382.159179688 -96 435.159179688 -45 c 128,-1,12
 488.159179688 6 488.159179688 6 533.159179688 91 c 128,-1,13
 578.159179688 176 578.159179688 176 613.159179688 295 c 128,-1,14
 648.159179688 414 648.159179688 414 656.159179688 537 c 0,15,16
 666.159179688 654 666.159179688 654 656.159179688 840 c 128,-1,17
 646.159179688 1026 646.159179688 1026 619.159179688 1133 c 0,18,19
 603.159179688 1207 603.159179688 1207 577.659179688 1270 c 128,-1,20
 552.159179688 1333 552.159179688 1333 517.159179688 1386.5 c 128,-1,21
 482.159179688 1440 482.159179688 1440 436.159179688 1470.5 c 128,-1,22
 390.159179688 1501 390.159179688 1501 339.159179688 1501 c 0,23,24
 300.159179688 1501 300.159179688 1501 275.659179688 1520.5 c 128,-1,25
 251.159179688 1540 251.159179688 1540 251.159179688 1583 c 0,26,27
 251.159179688 1610 251.159179688 1610 258.159179688 1627.5 c 128,-1,28
 265.159179688 1645 265.159179688 1645 279.659179688 1653 c 128,-1,29
 294.159179688 1661 294.159179688 1661 306.159179688 1664 c 128,-1,30
 318.159179688 1667 318.159179688 1667 333.159179688 1667 c 0,31,32
 403.159179688 1667 403.159179688 1667 473.659179688 1633 c 128,-1,33
 544.159179688 1599 544.159179688 1599 600.159179688 1544 c 128,-1,34
 656.159179688 1489 656.159179688 1489 700.159179688 1422.5 c 128,-1,35
 744.159179688 1356 744.159179688 1356 771.159179688 1288 c 0,36,37
 830.159179688 1132 830.159179688 1132 850.659179688 893 c 128,-1,38
 871.159179688 654 871.159179688 654 857.159179688 504 c 0,0,1
EndSplineSet
Validated: 524321
EndChar

StartChar: asterisk
Encoding: 42 42 10
Width: 1114
GlyphClass: 2
Flags: W
LayerCount: 2
Fore
SplineSet
449 285 m 0,0,1
 441 260 441 260 421.5 248 c 128,-1,2
 402 236 402 236 378 233.5 c 128,-1,3
 354 231 354 231 332.5 236.5 c 128,-1,4
 311 242 311 242 295 250 c 0,5,6
 277 260 277 260 264.5 279.5 c 128,-1,7
 252 299 252 299 248 327.5 c 128,-1,8
 244 356 244 356 260 387 c 2,9,-1
 397 610 l 1,10,11
 229 600 229 600 150 600 c 0,12,13
 101 600 101 600 72 633 c 128,-1,14
 43 666 43 666 43 702 c 0,15,16
 43 720 43 720 48 740 c 128,-1,17
 53 760 53 760 63.5 777.5 c 128,-1,18
 74 795 74 795 95.5 805 c 128,-1,19
 117 815 117 815 143 813 c 0,20,21
 237 805 237 805 422 793 c 1,22,23
 334 943 334 943 277 1022 c 0,24,25
 248 1069 248 1069 253 1114 c 128,-1,26
 258 1159 258 1159 291 1174 c 0,27,28
 309 1186 309 1186 337 1187 c 128,-1,29
 365 1188 365 1188 393.5 1171.5 c 128,-1,30
 422 1155 422 1155 438 1122 c 0,31,32
 461 1073 461 1073 559 887 c 1,33,34
 641 1026 641 1026 682 1120 c 0,35,36
 696 1153 696 1153 724 1169.5 c 128,-1,37
 752 1186 752 1186 777.5 1185 c 128,-1,38
 803 1184 803 1184 821 1169 c 0,39,40
 841 1159 841 1159 854.5 1136.5 c 128,-1,41
 868 1114 868 1114 868 1083.5 c 128,-1,42
 868 1053 868 1053 848 1024 c 0,43,44
 782 928 782 928 705 784 c 1,45,46
 883 784 883 784 959 807 c 0,47,48
 1004 821 1004 821 1036.5 790.5 c 128,-1,49
 1069 760 1069 760 1071 725 c 0,50,51
 1071 707 1071 707 1067 688.5 c 128,-1,52
 1063 670 1063 670 1053 651.5 c 128,-1,53
 1043 633 1043 633 1024.5 622.5 c 128,-1,54
 1006 612 1006 612 979 618 c 0,55,56
 909 630 909 630 707 627 c 1,57,-1
 844 389 l 2,58,59
 867 342 867 342 861.5 306 c 128,-1,60
 856 270 856 270 832 254 c 0,61,62
 812 242 812 242 780 240 c 128,-1,63
 748 238 748 238 716 252 c 128,-1,64
 684 266 684 266 676 299 c 0,65,66
 649 381 649 381 567 535 c 1,67,68
 472 346 472 346 449 285 c 0,0,1
EndSplineSet
Validated: 33
EndChar

StartChar: plus
Encoding: 43 43 11
Width: 1114
GlyphClass: 2
Flags: W
LayerCount: 2
Fore
SplineSet
637.075195312 512 m 0,0,1
 637.075195312 465 637.075195312 465 616.575195312 445.5 c 128,-1,2
 596.075195312 426 596.075195312 426 559.075195312 426 c 0,3,4
 471.075195312 426 471.075195312 426 471.075195312 512 c 2,5,-1
 471.075195312 731 l 1,6,7
 430.075195312 731 430.075195312 731 360.575195312 730 c 128,-1,8
 291.075195312 729 291.075195312 729 264.075195312 729 c 0,9,10
 213.075195312 729 213.075195312 729 188.575195312 754.5 c 128,-1,11
 164.075195312 780 164.075195312 780 164.075195312 817 c 0,12,13
 162.075195312 856 162.075195312 856 186.575195312 882.5 c 128,-1,14
 211.075195312 909 211.075195312 909 262.075195312 907 c 0,15,16
 405.075195312 903 405.075195312 903 471.075195312 903 c 1,17,18
 471.075195312 1005 471.075195312 1005 467.075195312 1124 c 0,19,20
 463.075195312 1212 463.075195312 1212 555.075195312 1212 c 0,21,22
 596.075195312 1214 596.075195312 1214 621.575195312 1196 c 128,-1,23
 647.075195312 1178 647.075195312 1178 643.075195312 1126 c 0,24,25
 637.075195312 1007 637.075195312 1007 637.075195312 899 c 1,26,-1
 862.075195312 899 l 2,27,28
 909.075195312 899 909.075195312 899 928.575195312 878.5 c 128,-1,29
 948.075195312 858 948.075195312 858 950.075195312 823 c 0,30,31
 950.075195312 805 950.075195312 805 946.075195312 789.5 c 128,-1,32
 942.075195312 774 942.075195312 774 934.075195312 759.5 c 128,-1,33
 926.075195312 745 926.075195312 745 907.575195312 738 c 128,-1,34
 889.075195312 731 889.075195312 731 862.075195312 733 c 0,35,36
 809.075195312 739 809.075195312 739 635.075195312 735 c 1,37,38
 635.075195312 680 635.075195312 680 636.075195312 604 c 128,-1,39
 637.075195312 528 637.075195312 528 637.075195312 512 c 0,0,1
EndSplineSet
Validated: 524321
EndChar

StartChar: comma
Encoding: 44 44 12
Width: 1114
GlyphClass: 2
Flags: W
LayerCount: 2
Fore
SplineSet
766.03515625 197 m 0,0,1
 746.03515625 97 746.03515625 97 678.03515625 -112.5 c 128,-1,2
 610.03515625 -322 610.03515625 -322 573.03515625 -371 c 0,3,4
 540.03515625 -414 540.03515625 -414 490.03515625 -432.5 c 128,-1,5
 440.03515625 -451 440.03515625 -451 405.03515625 -438 c 0,6,7
 385.03515625 -432 385.03515625 -432 367.53515625 -413.5 c 128,-1,8
 350.03515625 -395 350.03515625 -395 347.03515625 -368.5 c 128,-1,9
 344.03515625 -342 344.03515625 -342 362.03515625 -313 c 0,10,11
 405.03515625 -252 405.03515625 -252 481.03515625 -43 c 128,-1,12
 557.03515625 166 557.03515625 166 573.03515625 248 c 0,13,14
 579.03515625 277 579.03515625 277 602.03515625 293 c 128,-1,15
 625.03515625 309 625.03515625 309 649.53515625 309 c 128,-1,16
 674.03515625 309 674.03515625 309 698.03515625 305 c 0,17,18
 731.03515625 295 731.03515625 295 751.53515625 266.5 c 128,-1,19
 772.03515625 238 772.03515625 238 766.03515625 197 c 0,0,1
EndSplineSet
Validated: 524321
EndChar

StartChar: hyphen
Encoding: 45 45 13
Width: 1114
GlyphClass: 2
Flags: W
LayerCount: 2
Fore
SplineSet
325.1875 676 m 0,0,1
 442.1875 676 442.1875 676 603.6875 679 c 128,-1,2
 765.1875 682 765.1875 682 785.1875 682 c 0,3,4
 832.1875 682 832.1875 682 851.6875 660.5 c 128,-1,5
 871.1875 639 871.1875 639 873.1875 604 c 0,6,7
 873.1875 514 873.1875 514 785.1875 514 c 0,8,9
 758.1875 514 758.1875 514 579.1875 506 c 128,-1,10
 400.1875 498 400.1875 498 329.1875 498 c 0,11,12
 241.1875 498 241.1875 498 241.1875 586 c 1,13,14
 235.1875 676 235.1875 676 325.1875 676 c 0,0,1
EndSplineSet
Validated: 524321
EndChar

StartChar: period
Encoding: 46 46 14
Width: 1114
GlyphClass: 2
Flags: W
LayerCount: 2
Fore
SplineSet
562 -29 m 0,0,1
 486 -37 486 -37 438 13 c 128,-1,2
 390 63 390 63 390 131 c 0,3,4
 390 194 390 194 443.5 239.5 c 128,-1,5
 497 285 497 285 562 287 c 0,6,7
 634 289 634 289 679 245 c 128,-1,8
 724 201 724 201 724 133 c 0,9,10
 724 67 724 67 680 23 c 128,-1,11
 636 -21 636 -21 562 -29 c 0,0,1
EndSplineSet
Validated: 33
EndChar

StartChar: slash
Encoding: 47 47 15
Width: 1114
GlyphClass: 2
Flags: W
LayerCount: 2
Fore
SplineSet
1050.71191406 1384 m 0,0,1
 997.711914062 1280 997.711914062 1280 751.711914062 871.5 c 128,-1,2
 505.711914062 463 505.711914062 463 452.711914062 365 c 0,3,4
 419.711914062 302 419.711914062 302 345.711914062 150 c 128,-1,5
 271.711914062 -2 271.711914062 -2 253.711914062 -35 c 0,6,7
 220.711914062 -92 220.711914062 -92 170.711914062 -114.5 c 128,-1,8
 120.711914062 -137 120.711914062 -137 83.7119140625 -115 c 0,9,10
 52.7119140625 -99 52.7119140625 -99 46.7119140625 -39.5 c 128,-1,11
 40.7119140625 20 40.7119140625 20 69.7119140625 70 c 0,12,13
 368.711914062 562 368.711914062 562 581.711914062 944 c 0,14,15
 714.711914062 1180 714.711914062 1180 863.711914062 1477 c 0,16,17
 879.711914062 1510 879.711914062 1510 908.711914062 1527 c 128,-1,18
 937.711914062 1544 937.711914062 1544 964.211914062 1543 c 128,-1,19
 990.711914062 1542 990.711914062 1542 1017.71191406 1532 c 0,20,21
 1054.71191406 1514 1054.71191406 1514 1065.21191406 1474.5 c 128,-1,22
 1075.71191406 1435 1075.71191406 1435 1050.71191406 1384 c 0,0,1
EndSplineSet
Validated: 524321
EndChar

StartChar: zero
Encoding: 48 48 16
Width: 1114
GlyphClass: 2
Flags: W
LayerCount: 2
Fore
SplineSet
512.489257812 -49 m 0,0,1
 416.489257812 -49 416.489257812 -49 335.489257812 -14.5 c 128,-1,2
 254.489257812 20 254.489257812 20 196.489257812 81.5 c 128,-1,3
 138.489257812 143 138.489257812 143 106.489257812 235.5 c 128,-1,4
 74.4892578125 328 74.4892578125 328 76.4892578125 438 c 0,5,6
 76.4892578125 458 76.4892578125 458 75.4892578125 539.5 c 128,-1,7
 74.4892578125 621 74.4892578125 621 74.4892578125 669 c 128,-1,8
 74.4892578125 717 74.4892578125 717 77.4892578125 802 c 128,-1,9
 80.4892578125 887 80.4892578125 887 87.9892578125 948.5 c 128,-1,10
 95.4892578125 1010 95.4892578125 1010 109.489257812 1080.5 c 128,-1,11
 123.489257812 1151 123.489257812 1151 144.489257812 1204 c 0,12,13
 193.489257812 1333 193.489257812 1333 310.989257812 1401.5 c 128,-1,14
 428.489257812 1470 428.489257812 1470 596.489257812 1470 c 0,15,16
 680.489257812 1470 680.489257812 1470 753.489257812 1441.5 c 128,-1,17
 826.489257812 1413 826.489257812 1413 884.489257812 1358 c 128,-1,18
 942.489257812 1303 942.489257812 1303 980.489257812 1214.5 c 128,-1,19
 1018.48925781 1126 1018.48925781 1126 1028.48925781 1012 c 0,20,21
 1036.48925781 910 1036.48925781 910 1038.98925781 779.5 c 128,-1,22
 1041.48925781 649 1041.48925781 649 1031.98925781 517 c 128,-1,23
 1022.48925781 385 1022.48925781 385 1003.98925781 315.5 c 128,-1,24
 985.489257812 246 985.489257812 246 962.989257812 192.5 c 128,-1,25
 940.489257812 139 940.489257812 139 914.989257812 100 c 128,-1,26
 889.489257812 61 889.489257812 61 856.989257812 34.5 c 128,-1,27
 824.489257812 8 824.489257812 8 789.489257812 -8.5 c 128,-1,28
 754.489257812 -25 754.489257812 -25 709.489257812 -34 c 128,-1,29
 664.489257812 -43 664.489257812 -43 618.989257812 -46 c 128,-1,30
 573.489257812 -49 573.489257812 -49 512.489257812 -49 c 0,0,1
275.489257812 471 m 0,31,32
 275.489257812 463 275.489257812 463 277.489257812 446.5 c 128,-1,33
 279.489257812 430 279.489257812 430 279.489257812 424 c 1,34,35
 553.489257812 799 553.489257812 799 772.489257812 1194 c 1,36,37
 735.489257812 1247 735.489257812 1247 682.489257812 1276 c 128,-1,38
 629.489257812 1305 629.489257812 1305 566.489257812 1305 c 0,39,40
 451.489257812 1305 451.489257812 1305 387.989257812 1241.5 c 128,-1,41
 324.489257812 1178 324.489257812 1178 291.489257812 1036 c 0,42,43
 279.489257812 985 279.489257812 985 273.489257812 916.5 c 128,-1,44
 267.489257812 848 267.489257812 848 268.489257812 750.5 c 128,-1,45
 269.489257812 653 269.489257812 653 270.489257812 613 c 128,-1,46
 271.489257812 573 271.489257812 573 275.489257812 471 c 0,31,32
811.489257812 344 m 0,47,48
 819.489257812 369 819.489257812 369 828.989257812 479.5 c 128,-1,49
 838.489257812 590 838.489257812 590 842.489257812 732 c 128,-1,50
 846.489257812 874 846.489257812 874 836.489257812 1006 c 1,51,52
 617.489257812 555 617.489257812 555 318.489257812 250 c 1,53,54
 373.489257812 123 373.489257812 123 512.489257812 123 c 0,55,56
 567.489257812 123 567.489257812 123 610.989257812 132 c 128,-1,57
 654.489257812 141 654.489257812 141 694.489257812 164.5 c 128,-1,58
 734.489257812 188 734.489257812 188 762.989257812 233 c 128,-1,59
 791.489257812 278 791.489257812 278 811.489257812 344 c 0,47,48
EndSplineSet
Validated: 524321
EndChar

StartChar: one
Encoding: 49 49 17
Width: 1114
GlyphClass: 2
Flags: W
LayerCount: 2
Fore
SplineSet
1055.50683594 78 m 0,0,1
 1057.50683594 37 1057.50683594 37 1034.00683594 9.5 c 128,-1,2
 1010.50683594 -18 1010.50683594 -18 949.506835938 -18 c 0,3,4
 922.506835938 -18 922.506835938 -18 584.506835938 -14 c 128,-1,5
 246.506835938 -10 246.506835938 -10 146.506835938 -10 c 0,6,7
 101.506835938 -10 101.506835938 -10 80.0068359375 14.5 c 128,-1,8
 58.5068359375 39 58.5068359375 39 58.5068359375 78 c 0,9,10
 56.5068359375 119 56.5068359375 119 78.0068359375 145.5 c 128,-1,11
 99.5068359375 172 99.5068359375 172 148.506835938 172 c 0,12,13
 240.506835938 172 240.506835938 172 463.506835938 170 c 1,14,15
 463.506835938 252 463.506835938 252 461.506835938 301 c 0,16,17
 459.506835938 317 459.506835938 317 460.506835938 409.5 c 128,-1,18
 461.506835938 502 461.506835938 502 461.506835938 543 c 128,-1,19
 461.506835938 584 461.506835938 584 465.506835938 694.5 c 128,-1,20
 469.506835938 805 469.506835938 805 471.506835938 859 c 128,-1,21
 473.506835938 913 473.506835938 913 479.006835938 1031 c 128,-1,22
 484.506835938 1149 484.506835938 1149 486.506835938 1204 c 1,23,24
 334.506835938 1077 334.506835938 1077 265.506835938 1053 c 0,25,26
 224.506835938 1037 224.506835938 1037 182.506835938 1073.5 c 128,-1,27
 140.506835938 1110 140.506835938 1110 142.506835938 1147 c 0,28,29
 142.506835938 1180 142.506835938 1180 157.506835938 1205.5 c 128,-1,30
 172.506835938 1231 172.506835938 1231 209.506835938 1257 c 0,31,32
 268.506835938 1302 268.506835938 1302 333.506835938 1356.5 c 128,-1,33
 398.506835938 1411 398.506835938 1411 428.006835938 1435.5 c 128,-1,34
 457.506835938 1460 457.506835938 1460 488.006835938 1477.5 c 128,-1,35
 518.506835938 1495 518.506835938 1495 541.506835938 1495 c 0,36,37
 584.506835938 1495 584.506835938 1495 631.506835938 1458 c 128,-1,38
 678.506835938 1421 678.506835938 1421 678.506835938 1397 c 0,39,40
 678.506835938 1350 678.506835938 1350 666.506835938 1062 c 128,-1,41
 654.506835938 774 654.506835938 774 654.506835938 725 c 0,42,43
 654.506835938 520 654.506835938 520 656.506835938 383 c 0,44,45
 656.506835938 307 656.506835938 307 662.506835938 162 c 1,46,47
 721.506835938 162 721.506835938 162 787.006835938 160 c 128,-1,48
 852.506835938 158 852.506835938 158 894.506835938 157 c 128,-1,49
 936.506835938 156 936.506835938 156 953.506835938 156 c 0,50,51
 1010.50683594 156 1010.50683594 156 1032.00683594 134.5 c 128,-1,52
 1053.50683594 113 1053.50683594 113 1055.50683594 78 c 0,0,1
EndSplineSet
Validated: 524321
EndChar

StartChar: two
Encoding: 50 50 18
Width: 1114
GlyphClass: 2
Flags: W
LayerCount: 2
Fore
SplineSet
966.666992188 -25 m 0,0,1
 880.666992188 -25 880.666992188 -25 752.666992188 -29 c 128,-1,2
 624.666992188 -33 624.666992188 -33 526.166992188 -37 c 128,-1,3
 427.666992188 -41 427.666992188 -41 324.166992188 -41 c 128,-1,4
 220.666992188 -41 220.666992188 -41 163.666992188 -33 c 0,5,6
 118.666992188 -29 118.666992188 -29 99.1669921875 22.5 c 128,-1,7
 79.6669921875 74 79.6669921875 74 79.6669921875 170 c 0,8,9
 79.6669921875 258 79.6669921875 258 117.666992188 355.5 c 128,-1,10
 155.666992188 453 155.666992188 453 229.166992188 542 c 128,-1,11
 302.666992188 631 302.666992188 631 401.666992188 686 c 0,12,13
 620.666992188 809 620.666992188 809 683.666992188 858 c 0,14,15
 767.666992188 924 767.666992188 924 790.666992188 997 c 0,16,17
 802.666992188 1040 802.666992188 1040 802.666992188 1104 c 0,18,19
 802.666992188 1210 802.666992188 1210 740.166992188 1258.5 c 128,-1,20
 677.666992188 1307 677.666992188 1307 562.666992188 1307 c 0,21,22
 482.666992188 1307 482.666992188 1307 410.166992188 1257.5 c 128,-1,23
 337.666992188 1208 337.666992188 1208 298.666992188 1149 c 0,24,25
 280.666992188 1122 280.666992188 1122 264.166992188 1107 c 128,-1,26
 247.666992188 1092 247.666992188 1092 229.166992188 1089.5 c 128,-1,27
 210.666992188 1087 210.666992188 1087 196.166992188 1091.5 c 128,-1,28
 181.666992188 1096 181.666992188 1096 157.666992188 1106 c 0,29,30
 122.666992188 1124 122.666992188 1124 114.666992188 1159 c 128,-1,31
 106.666992188 1194 106.666992188 1194 130.666992188 1249 c 0,32,33
 150.666992188 1288 150.666992188 1288 192.166992188 1327 c 128,-1,34
 233.666992188 1366 233.666992188 1366 286.666992188 1401 c 128,-1,35
 339.666992188 1436 339.666992188 1436 411.166992188 1457.5 c 128,-1,36
 482.666992188 1479 482.666992188 1479 554.666992188 1479 c 0,37,38
 775.666992188 1479 775.666992188 1479 890.666992188 1376.5 c 128,-1,39
 1005.66699219 1274 1005.66699219 1274 1005.66699219 1069 c 0,40,41
 1005.66699219 899 1005.66699219 899 919.666992188 797 c 0,42,43
 856.666992188 721 856.666992188 721 689.666992188 629 c 0,44,45
 648.666992188 604 648.666992188 604 548.666992188 553 c 0,46,47
 460.666992188 506 460.666992188 506 401.166992188 437.5 c 128,-1,48
 341.666992188 369 341.666992188 369 316.166992188 297 c 128,-1,49
 290.666992188 225 290.666992188 225 284.666992188 141 c 1,50,51
 399.666992188 135 399.666992188 135 505.666992188 135 c 128,-1,52
 611.666992188 135 611.666992188 135 671.166992188 138 c 128,-1,53
 730.666992188 141 730.666992188 141 808.666992188 147.5 c 128,-1,54
 886.666992188 154 886.666992188 154 911.666992188 156 c 0,55,56
 913.666992188 156 913.666992188 156 930.666992188 157 c 128,-1,57
 947.666992188 158 947.666992188 158 954.166992188 158 c 128,-1,58
 960.666992188 158 960.666992188 158 974.666992188 158 c 128,-1,59
 988.666992188 158 988.666992188 158 996.166992188 154 c 128,-1,60
 1003.66699219 150 1003.66699219 150 1012.66699219 143.5 c 128,-1,61
 1021.66699219 137 1021.66699219 137 1026.66699219 127 c 128,-1,62
 1031.66699219 117 1031.66699219 117 1033.66699219 102 c 0,63,64
 1035.66699219 77 1035.66699219 77 1031.66699219 50 c 128,-1,65
 1027.66699219 23 1027.66699219 23 1010.66699219 -1 c 128,-1,66
 993.666992188 -25 993.666992188 -25 966.666992188 -25 c 0,0,1
EndSplineSet
Validated: 524321
EndChar

StartChar: three
Encoding: 51 51 19
Width: 1114
GlyphClass: 2
Flags: W
LayerCount: 2
Fore
SplineSet
1025.328125 408 m 0,0,1
 1025.328125 197 1025.328125 197 895.328125 74 c 128,-1,2
 765.328125 -49 765.328125 -49 531.328125 -49 c 0,3,4
 459.328125 -49 459.328125 -49 387.828125 -27.5 c 128,-1,5
 316.328125 -6 316.328125 -6 263.328125 27.5 c 128,-1,6
 210.328125 61 210.328125 61 169.328125 101 c 128,-1,7
 128.328125 141 128.328125 141 107.328125 180 c 0,8,9
 82.328125 227 82.328125 227 90.828125 266 c 128,-1,10
 99.328125 305 99.328125 305 134.328125 322 c 0,11,12
 175.328125 342 175.328125 342 208.828125 333 c 128,-1,13
 242.328125 324 242.328125 324 275.328125 281 c 0,14,15
 320.328125 220 320.328125 220 389.828125 171.5 c 128,-1,16
 459.328125 123 459.328125 123 539.328125 123 c 0,17,18
 662.328125 123 662.328125 123 741.328125 192.5 c 128,-1,19
 820.328125 262 820.328125 262 820.328125 373 c 0,20,21
 820.328125 441 820.328125 441 799.828125 490 c 128,-1,22
 779.328125 539 779.328125 539 734.328125 575.5 c 128,-1,23
 689.328125 612 689.328125 612 611.328125 631.5 c 128,-1,24
 533.328125 651 533.328125 651 427.328125 651 c 0,25,26
 384.328125 651 384.328125 651 353.328125 685 c 128,-1,27
 322.328125 719 322.328125 719 322.328125 760 c 0,28,29
 322.328125 803 322.328125 803 344.828125 829.5 c 128,-1,30
 367.328125 856 367.328125 856 410.328125 856 c 0,31,32
 582.328125 856 582.328125 856 679.828125 924.5 c 128,-1,33
 777.328125 993 777.328125 993 775.328125 1124 c 1,34,35
 777.328125 1216 777.328125 1216 710.828125 1261.5 c 128,-1,36
 644.328125 1307 644.328125 1307 519.328125 1307 c 0,37,38
 494.328125 1307 494.328125 1307 471.828125 1301.5 c 128,-1,39
 449.328125 1296 449.328125 1296 434.328125 1291 c 128,-1,40
 419.328125 1286 419.328125 1286 402.828125 1274 c 128,-1,41
 386.328125 1262 386.328125 1262 375.828125 1253.5 c 128,-1,42
 365.328125 1245 365.328125 1245 351.328125 1226.5 c 128,-1,43
 337.328125 1208 337.328125 1208 330.828125 1201 c 128,-1,44
 324.328125 1194 324.328125 1194 310.328125 1171 c 0,45,46
 277.328125 1126 277.328125 1126 243.828125 1118 c 128,-1,47
 210.328125 1110 210.328125 1110 169.328125 1130 c 0,48,49
 134.328125 1146 134.328125 1146 127.328125 1184.5 c 128,-1,50
 120.328125 1223 120.328125 1223 142.328125 1274 c 0,51,52
 162.328125 1315 162.328125 1315 194.328125 1348.5 c 128,-1,53
 226.328125 1382 226.328125 1382 269.328125 1413 c 128,-1,54
 312.328125 1444 312.328125 1444 374.828125 1461.5 c 128,-1,55
 437.328125 1479 437.328125 1479 509.328125 1479 c 0,56,57
 745.328125 1479 745.328125 1479 863.828125 1380.5 c 128,-1,58
 982.328125 1282 982.328125 1282 978.328125 1090 c 0,59,60
 978.328125 1031 978.328125 1031 962.828125 982.5 c 128,-1,61
 947.328125 934 947.328125 934 920.828125 900 c 128,-1,62
 894.328125 866 894.328125 866 855.328125 840.5 c 128,-1,63
 816.328125 815 816.328125 815 776.328125 800.5 c 128,-1,64
 736.328125 786 736.328125 786 691.328125 778 c 1,65,66
 775.328125 760 775.328125 760 834.828125 733.5 c 128,-1,67
 894.328125 707 894.328125 707 938.328125 665 c 128,-1,68
 982.328125 623 982.328125 623 1003.828125 559.5 c 128,-1,69
 1025.328125 496 1025.328125 496 1025.328125 408 c 0,0,1
EndSplineSet
Validated: 524321
EndChar

StartChar: four
Encoding: 52 52 20
Width: 1114
GlyphClass: 2
Flags: W
LayerCount: 2
Fore
SplineSet
903.5 113 m 0,0,1
 915.5 47 915.5 47 892 0 c 128,-1,2
 868.5 -47 868.5 -47 823.5 -47 c 0,3,4
 784.5 -47 784.5 -47 747.5 -17.5 c 128,-1,5
 710.5 12 710.5 12 708.5 43 c 0,6,7
 708.5 68 708.5 68 708.5 123 c 128,-1,8
 708.5 178 708.5 178 708.5 281.5 c 128,-1,9
 708.5 385 708.5 385 708.5 459 c 1,10,11
 335.5 463 335.5 463 192.5 432 c 0,12,13
 159.5 426 159.5 426 133 434 c 128,-1,14
 106.5 442 106.5 442 91 462.5 c 128,-1,15
 75.5 483 75.5 483 67.5 510 c 128,-1,16
 59.5 537 59.5 537 59.5 565.5 c 128,-1,17
 59.5 594 59.5 594 69.5 621 c 0,18,19
 89.5 678 89.5 678 179 808 c 128,-1,20
 268.5 938 268.5 938 410.5 1129.5 c 128,-1,21
 552.5 1321 552.5 1321 612.5 1407 c 0,22,23
 639.5 1446 639.5 1446 673 1465.5 c 128,-1,24
 706.5 1485 706.5 1485 737.5 1485 c 0,25,26
 778.5 1489 778.5 1489 812 1470.5 c 128,-1,27
 845.5 1452 845.5 1452 853.5 1407 c 0,28,29
 865.5 1335 865.5 1335 873 1185.5 c 128,-1,30
 880.5 1036 880.5 1036 882.5 932.5 c 128,-1,31
 884.5 829 884.5 829 888.5 621 c 1,32,33
 923.5 619 923.5 619 966.5 618 c 0,34,35
 1013.5 618 1013.5 618 1033 596.5 c 128,-1,36
 1052.5 575 1052.5 575 1054.5 541 c 0,37,38
 1054.5 451 1054.5 451 966.5 451 c 0,39,40
 925.5 451 925.5 451 890.5 453 c 1,41,42
 895.5 154 895.5 154 903.5 113 c 0,0,1
694.5 1233 m 1,43,44
 391.5 836 391.5 836 282.5 616 c 1,45,46
 442.5 626 442.5 626 708.5 623 c 1,47,48
 708.5 1006 708.5 1006 694.5 1233 c 1,43,44
EndSplineSet
Validated: 524321
EndChar

StartChar: five
Encoding: 53 53 21
Width: 1114
GlyphClass: 2
Flags: W
LayerCount: 2
Fore
SplineSet
1044.828125 606 m 0,0,1
 1044.828125 454 1044.828125 454 1006.828125 332.5 c 128,-1,2
 968.828125 211 968.828125 211 900.328125 130 c 128,-1,3
 831.828125 49 831.828125 49 735.328125 6 c 128,-1,4
 638.828125 -37 638.828125 -37 524.828125 -37 c 0,5,6
 434.828125 -37 434.828125 -37 358.828125 -18.5 c 128,-1,7
 282.828125 0 282.828125 0 231.828125 33 c 128,-1,8
 180.828125 66 180.828125 66 145.828125 101.5 c 128,-1,9
 110.828125 137 110.828125 137 87.828125 176 c 0,10,11
 62.828125 231 62.828125 231 71.328125 266 c 128,-1,12
 79.828125 301 79.828125 301 114.828125 319 c 0,13,14
 137.828125 329 137.828125 329 152.828125 333.5 c 128,-1,15
 167.828125 338 167.828125 338 186.328125 336 c 128,-1,16
 204.828125 334 204.828125 334 221.328125 319.5 c 128,-1,17
 237.828125 305 237.828125 305 255.828125 279 c 0,18,19
 347.828125 138 347.828125 138 505.828125 135 c 0,20,21
 659.828125 135 659.828125 135 749.828125 257 c 128,-1,22
 839.828125 379 839.828125 379 839.828125 584 c 0,23,24
 839.828125 711 839.828125 711 783.328125 785.5 c 128,-1,25
 726.828125 860 726.828125 860 610.828125 860 c 0,26,27
 579.828125 860 579.828125 860 551.328125 857 c 128,-1,28
 522.828125 854 522.828125 854 502.328125 849 c 128,-1,29
 481.828125 844 481.828125 844 459.328125 833.5 c 128,-1,30
 436.828125 823 436.828125 823 423.328125 817 c 128,-1,31
 409.828125 811 409.828125 811 390.328125 794.5 c 128,-1,32
 370.828125 778 370.828125 778 364.828125 772 c 128,-1,33
 358.828125 766 358.828125 766 338.328125 746.5 c 128,-1,34
 317.828125 727 317.828125 727 313.828125 723 c 0,35,36
 297.828125 709 297.828125 709 273.828125 698.5 c 128,-1,37
 249.828125 688 249.828125 688 221.328125 685 c 128,-1,38
 192.828125 682 192.828125 682 163.828125 694 c 0,39,40
 128.828125 708 128.828125 708 111.828125 757.5 c 128,-1,41
 94.828125 807 94.828125 807 92.828125 878.5 c 128,-1,42
 90.828125 950 90.828125 950 93.828125 1016.5 c 128,-1,43
 96.828125 1083 96.828125 1083 101.828125 1160 c 128,-1,44
 106.828125 1237 106.828125 1237 106.828125 1266 c 1,45,46
 90.828125 1293 90.828125 1293 86.328125 1326.5 c 128,-1,47
 81.828125 1360 81.828125 1360 89.328125 1388.5 c 128,-1,48
 96.828125 1417 96.828125 1417 118.328125 1437.5 c 128,-1,49
 139.828125 1458 139.828125 1458 167.828125 1458 c 0,50,51
 243.828125 1458 243.828125 1458 525.328125 1454 c 128,-1,52
 806.828125 1450 806.828125 1450 954.828125 1450 c 0,53,54
 981.828125 1450 981.828125 1450 998.828125 1427.5 c 128,-1,55
 1015.828125 1405 1015.828125 1405 1020.828125 1376.5 c 128,-1,56
 1025.828125 1348 1025.828125 1348 1021.828125 1323 c 0,57,58
 1019.828125 1309 1019.828125 1309 1014.828125 1298.5 c 128,-1,59
 1009.828125 1288 1009.828125 1288 1000.828125 1283 c 128,-1,60
 991.828125 1278 991.828125 1278 984.328125 1274 c 128,-1,61
 976.828125 1270 976.828125 1270 962.828125 1269 c 128,-1,62
 948.828125 1268 948.828125 1268 942.328125 1268 c 128,-1,63
 935.828125 1268 935.828125 1268 918.828125 1270 c 128,-1,64
 901.828125 1272 901.828125 1272 899.828125 1272 c 0,65,66
 870.828125 1272 870.828125 1272 796.828125 1278 c 128,-1,67
 722.828125 1284 722.828125 1284 665.828125 1287 c 128,-1,68
 608.828125 1290 608.828125 1290 506.328125 1290 c 128,-1,69
 403.828125 1290 403.828125 1290 290.828125 1284 c 1,70,71
 290.828125 1264 290.828125 1264 286.828125 1165.5 c 128,-1,72
 282.828125 1067 282.828125 1067 281.828125 1023 c 128,-1,73
 280.828125 979 280.828125 979 282.828125 897 c 1,74,75
 339.828125 960 339.828125 960 438.328125 1001 c 128,-1,76
 536.828125 1042 536.828125 1042 663.828125 1042 c 0,77,78
 753.828125 1042 753.828125 1042 826.828125 1008.5 c 128,-1,79
 899.828125 975 899.828125 975 946.828125 915.5 c 128,-1,80
 993.828125 856 993.828125 856 1019.328125 777 c 128,-1,81
 1044.828125 698 1044.828125 698 1044.828125 606 c 0,0,1
EndSplineSet
Validated: 524321
EndChar

StartChar: six
Encoding: 54 54 22
Width: 1114
GlyphClass: 2
Flags: W
LayerCount: 2
Fore
SplineSet
1048.56542969 504 m 0,0,1
 1048.56542969 389 1048.56542969 389 1010.56542969 287.5 c 128,-1,2
 972.565429688 186 972.565429688 186 907.065429688 113.5 c 128,-1,3
 841.565429688 41 841.565429688 41 750.565429688 -2 c 128,-1,4
 659.565429688 -45 659.565429688 -45 556.565429688 -45 c 0,5,6
 429.565429688 -45 429.565429688 -45 335.565429688 3 c 128,-1,7
 241.565429688 51 241.565429688 51 181.065429688 142 c 128,-1,8
 120.565429688 233 120.565429688 233 92.0654296875 360 c 128,-1,9
 63.5654296875 487 63.5654296875 487 65.5654296875 645 c 0,10,11
 67.5654296875 821 67.5654296875 821 100.065429688 962.5 c 128,-1,12
 132.565429688 1104 132.565429688 1104 191.065429688 1200 c 128,-1,13
 249.565429688 1296 249.565429688 1296 335.565429688 1363 c 128,-1,14
 421.565429688 1430 421.565429688 1430 521.065429688 1464.5 c 128,-1,15
 620.565429688 1499 620.565429688 1499 741.565429688 1509 c 0,16,17
 788.565429688 1513 788.565429688 1513 824.065429688 1496 c 128,-1,18
 859.565429688 1479 859.565429688 1479 864.565429688 1440 c 0,19,20
 866.565429688 1415 866.565429688 1415 839.565429688 1385.5 c 128,-1,21
 812.565429688 1356 812.565429688 1356 780.565429688 1346 c 0,22,23
 757.565429688 1340 757.565429688 1340 711.565429688 1329.5 c 128,-1,24
 665.565429688 1319 665.565429688 1319 632.565429688 1309.5 c 128,-1,25
 599.565429688 1300 599.565429688 1300 554.565429688 1282 c 128,-1,26
 509.565429688 1264 509.565429688 1264 465.565429688 1229 c 128,-1,27
 421.565429688 1194 421.565429688 1194 378.565429688 1145 c 0,28,29
 333.565429688 1092 333.565429688 1092 295.565429688 999.5 c 128,-1,30
 257.565429688 907 257.565429688 907 247.565429688 836 c 1,31,32
 310.565429688 912 310.565429688 912 413.065429688 948.5 c 128,-1,33
 515.565429688 985 515.565429688 985 640.565429688 985 c 0,34,35
 734.565429688 985 734.565429688 985 808.565429688 958.5 c 128,-1,36
 882.565429688 932 882.565429688 932 937.065429688 874.5 c 128,-1,37
 991.565429688 817 991.565429688 817 1020.06542969 724 c 128,-1,38
 1048.56542969 631 1048.56542969 631 1048.56542969 504 c 0,0,1
251.565429688 471 m 0,39,40
 255.565429688 426 255.565429688 426 270.065429688 380 c 128,-1,41
 284.565429688 334 284.565429688 334 310.065429688 287 c 128,-1,42
 335.565429688 240 335.565429688 240 370.565429688 205 c 128,-1,43
 405.565429688 170 405.565429688 170 454.565429688 148.5 c 128,-1,44
 503.565429688 127 503.565429688 127 558.565429688 127 c 0,45,46
 634.565429688 127 634.565429688 127 702.065429688 180 c 128,-1,47
 769.565429688 233 769.565429688 233 808.565429688 314 c 128,-1,48
 847.565429688 395 847.565429688 395 847.565429688 479 c 0,49,50
 847.565429688 575 847.565429688 575 831.065429688 641 c 128,-1,51
 814.565429688 707 814.565429688 707 779.065429688 741.5 c 128,-1,52
 743.565429688 776 743.565429688 776 698.565429688 790.5 c 128,-1,53
 653.565429688 805 653.565429688 805 587.565429688 805 c 0,54,55
 485.565429688 805 485.565429688 805 395.065429688 751.5 c 128,-1,56
 304.565429688 698 304.565429688 698 247.565429688 616 c 1,57,58
 247.565429688 528 247.565429688 528 251.565429688 471 c 0,39,40
EndSplineSet
Validated: 524321
EndChar

StartChar: seven
Encoding: 55 55 23
Width: 1114
GlyphClass: 2
Flags: W
LayerCount: 2
Fore
SplineSet
351.9765625 53 m 0,0,1
 326.9765625 0 326.9765625 0 286.9765625 -26.5 c 128,-1,2
 246.9765625 -53 246.9765625 -53 207.9765625 -45 c 0,3,4
 164.9765625 -35 164.9765625 -35 147.9765625 4 c 128,-1,5
 130.9765625 43 130.9765625 43 150.9765625 90 c 0,6,7
 254.9765625 301 254.9765625 301 374.9765625 510 c 128,-1,8
 494.9765625 719 494.9765625 719 573.9765625 843 c 128,-1,9
 652.9765625 967 652.9765625 967 719.4765625 1083.5 c 128,-1,10
 785.9765625 1200 785.9765625 1200 807.9765625 1274 c 1,11,12
 629.9765625 1280 629.9765625 1280 429.4765625 1275 c 128,-1,13
 228.9765625 1270 228.9765625 1270 166.9765625 1253 c 0,14,15
 141.9765625 1247 141.9765625 1247 122.9765625 1255.5 c 128,-1,16
 103.9765625 1264 103.9765625 1264 91.4765625 1280 c 128,-1,17
 78.9765625 1296 78.9765625 1296 72.9765625 1314.5 c 128,-1,18
 66.9765625 1333 66.9765625 1333 66.9765625 1352 c 0,19,20
 66.9765625 1389 66.9765625 1389 85.4765625 1410.5 c 128,-1,21
 103.9765625 1432 103.9765625 1432 152.9765625 1442 c 0,22,23
 228.9765625 1456 228.9765625 1456 362.9765625 1460 c 128,-1,24
 496.9765625 1464 496.9765625 1464 609.4765625 1460 c 128,-1,25
 721.9765625 1456 721.9765625 1456 830.9765625 1452 c 128,-1,26
 939.9765625 1448 939.9765625 1448 947.9765625 1448 c 0,27,28
 967.9765625 1448 967.9765625 1448 989.4765625 1439 c 128,-1,29
 1010.9765625 1430 1010.9765625 1430 1028.4765625 1409.5 c 128,-1,30
 1045.9765625 1389 1045.9765625 1389 1046.9765625 1356 c 128,-1,31
 1047.9765625 1323 1047.9765625 1323 1027.9765625 1280 c 0,32,33
 998.9765625 1219 998.9765625 1219 923.9765625 1095 c 128,-1,34
 848.9765625 971 848.9765625 971 768.4765625 841 c 128,-1,35
 687.9765625 711 687.9765625 711 571.9765625 494.5 c 128,-1,36
 455.9765625 278 455.9765625 278 351.9765625 53 c 0,0,1
EndSplineSet
Validated: 524321
EndChar

StartChar: eight
Encoding: 56 56 24
Width: 1114
GlyphClass: 2
Flags: W
LayerCount: 2
Fore
SplineSet
1061 418 m 0,0,1
 1061 352 1061 352 1043.5 286.5 c 128,-1,2
 1026 221 1026 221 985 158.5 c 128,-1,3
 944 96 944 96 884.5 49 c 128,-1,4
 825 2 825 2 733 -27.5 c 128,-1,5
 641 -57 641 -57 528 -57 c 0,6,7
 426 -57 426 -57 342 -28.5 c 128,-1,8
 258 0 258 0 206 44 c 128,-1,9
 154 88 154 88 118 149.5 c 128,-1,10
 82 211 82 211 67.5 273.5 c 128,-1,11
 53 336 53 336 53 401 c 0,12,13
 53 471 53 471 88 551 c 128,-1,14
 123 631 123 631 189.5 698.5 c 128,-1,15
 256 766 256 766 338 793 c 1,16,17
 229 844 229 844 169 927 c 128,-1,18
 109 1010 109 1010 109 1096 c 0,19,20
 109 1121 109 1121 113 1148.5 c 128,-1,21
 117 1176 117 1176 128 1213.5 c 128,-1,22
 139 1251 139 1251 158.5 1286 c 128,-1,23
 178 1321 178 1321 212 1355 c 128,-1,24
 246 1389 246 1389 289 1414.5 c 128,-1,25
 332 1440 332 1440 396.5 1455 c 128,-1,26
 461 1470 461 1470 537 1470 c 0,27,28
 617 1470 617 1470 681.5 1455 c 128,-1,29
 746 1440 746 1440 790 1414.5 c 128,-1,30
 834 1389 834 1389 867.5 1355 c 128,-1,31
 901 1321 901 1321 919.5 1286 c 128,-1,32
 938 1251 938 1251 950.5 1212.5 c 128,-1,33
 963 1174 963 1174 967 1144 c 128,-1,34
 971 1114 971 1114 971 1087 c 0,35,36
 971 1062 971 1062 965 1038 c 128,-1,37
 959 1014 959 1014 948.5 995.5 c 128,-1,38
 938 977 938 977 921.5 956.5 c 128,-1,39
 905 936 905 936 891 921.5 c 128,-1,40
 877 907 877 907 854.5 888.5 c 128,-1,41
 832 870 832 870 818.5 861 c 128,-1,42
 805 852 805 852 780.5 835.5 c 128,-1,43
 756 819 756 819 748 813 c 1,44,45
 824 780 824 780 881 739 c 128,-1,46
 938 698 938 698 972 658 c 128,-1,47
 1006 618 1006 618 1026.5 573 c 128,-1,48
 1047 528 1047 528 1054 492.5 c 128,-1,49
 1061 457 1061 457 1061 418 c 0,0,1
301 1102 m 0,50,51
 301 1034 301 1034 363.5 982 c 128,-1,52
 426 930 426 930 569 877 c 1,53,54
 655 912 655 912 721 971 c 128,-1,55
 787 1030 787 1030 787 1081 c 0,56,57
 787 1138 787 1138 754 1193.5 c 128,-1,58
 721 1249 721 1249 662.5 1286 c 128,-1,59
 604 1323 604 1323 537 1323 c 0,60,61
 441 1323 441 1323 371 1254.5 c 128,-1,62
 301 1186 301 1186 301 1102 c 0,50,51
537 119 m 0,63,64
 596 119 596 119 655.5 136.5 c 128,-1,65
 715 154 715 154 763 186.5 c 128,-1,66
 811 219 811 219 840.5 272.5 c 128,-1,67
 870 326 870 326 870 385 c 0,68,69
 870 418 870 418 864 447.5 c 128,-1,70
 858 477 858 477 839.5 516 c 128,-1,71
 821 555 821 555 788.5 588 c 128,-1,72
 756 621 756 621 697.5 656.5 c 128,-1,73
 639 692 639 692 561 721 c 1,74,75
 414 682 414 682 321.5 585.5 c 128,-1,76
 229 489 229 489 229 381 c 0,77,78
 229 305 229 305 275.5 243.5 c 128,-1,79
 322 182 322 182 391.5 150.5 c 128,-1,80
 461 119 461 119 537 119 c 0,63,64
EndSplineSet
Validated: 1
EndChar

StartChar: nine
Encoding: 57 57 25
Width: 1114
GlyphClass: 2
Flags: W
LayerCount: 2
Fore
SplineSet
324.436523438 -45 m 0,0,1
 277.436523438 -49 277.436523438 -49 241.436523438 -31.5 c 128,-1,2
 205.436523438 -14 205.436523438 -14 201.436523438 25 c 0,3,4
 199.436523438 52 199.436523438 52 224.936523438 80.5 c 128,-1,5
 250.436523438 109 250.436523438 109 285.436523438 119 c 0,6,7
 308.436523438 125 308.436523438 125 358.436523438 135 c 128,-1,8
 408.436523438 145 408.436523438 145 448.436523438 156.5 c 128,-1,9
 488.436523438 168 488.436523438 168 538.436523438 186.5 c 128,-1,10
 588.436523438 205 588.436523438 205 635.436523438 237.5 c 128,-1,11
 682.436523438 270 682.436523438 270 721.436523438 315 c 0,12,13
 772.436523438 374 772.436523438 374 812.436523438 453 c 128,-1,14
 852.436523438 532 852.436523438 532 867.436523438 596 c 1,15,16
 810.436523438 530 810.436523438 530 720.936523438 505.5 c 128,-1,17
 631.436523438 481 631.436523438 481 500.436523438 481 c 0,18,19
 410.436523438 481 410.436523438 481 328.436523438 523 c 128,-1,20
 246.436523438 565 246.436523438 565 188.936523438 635 c 128,-1,21
 131.436523438 705 131.436523438 705 97.9365234375 796 c 128,-1,22
 64.4365234375 887 64.4365234375 887 64.4365234375 981 c 0,23,24
 64.4365234375 1096 64.4365234375 1096 102.436523438 1195 c 128,-1,25
 140.436523438 1294 140.436523438 1294 205.936523438 1364 c 128,-1,26
 271.436523438 1434 271.436523438 1434 362.436523438 1473.5 c 128,-1,27
 453.436523438 1513 453.436523438 1513 555.436523438 1513 c 0,28,29
 807.436523438 1513 807.436523438 1513 930.436523438 1323 c 128,-1,30
 1053.43652344 1133 1053.43652344 1133 1049.43652344 776 c 0,31,32
 1047.43652344 612 1047.43652344 612 1008.43652344 480 c 128,-1,33
 969.436523438 348 969.436523438 348 903.936523438 256 c 128,-1,34
 838.436523438 164 838.436523438 164 746.436523438 98.5 c 128,-1,35
 654.436523438 33 654.436523438 33 549.936523438 -1 c 128,-1,36
 445.436523438 -35 445.436523438 -35 324.436523438 -45 c 0,0,1
264.436523438 1006 m 0,37,38
 264.436523438 838 264.436523438 838 337.436523438 751 c 128,-1,39
 410.436523438 664 410.436523438 664 553.436523438 664 c 0,40,41
 643.436523438 664 643.436523438 664 729.436523438 704.5 c 128,-1,42
 815.436523438 745 815.436523438 745 867.436523438 817 c 1,43,44
 869.436523438 876 869.436523438 876 860.436523438 997 c 0,45,46
 856.436523438 1042 856.436523438 1042 842.436523438 1088.5 c 128,-1,47
 828.436523438 1135 828.436523438 1135 802.436523438 1182 c 128,-1,48
 776.436523438 1229 776.436523438 1229 741.936523438 1263.5 c 128,-1,49
 707.436523438 1298 707.436523438 1298 657.936523438 1319.5 c 128,-1,50
 608.436523438 1341 608.436523438 1341 553.436523438 1341 c 0,51,52
 477.436523438 1341 477.436523438 1341 409.936523438 1292 c 128,-1,53
 342.436523438 1243 342.436523438 1243 303.436523438 1166.5 c 128,-1,54
 264.436523438 1090 264.436523438 1090 264.436523438 1006 c 0,37,38
EndSplineSet
Validated: 524321
EndChar

StartChar: colon
Encoding: 58 58 26
Width: 1114
GlyphClass: 2
Flags: W
LayerCount: 2
Fore
SplineSet
684.083007812 854 m 0,0,1
 688.083007812 786 688.083007812 786 670.083007812 711 c 0,2,3
 660.083007812 670 660.083007812 670 625.083007812 648.5 c 128,-1,4
 590.083007812 627 590.083007812 627 557.083007812 629 c 0,5,6
 434.083007812 635 434.083007812 635 426.083007812 723 c 0,7,8
 422.083007812 778 422.083007812 778 424.083007812 864 c 0,9,10
 424.083007812 891 424.083007812 891 439.583007812 908.5 c 128,-1,11
 455.083007812 926 455.083007812 926 477.583007812 934 c 128,-1,12
 500.083007812 942 500.083007812 942 520.583007812 944 c 128,-1,13
 541.083007812 946 541.083007812 946 559.083007812 946 c 0,14,15
 577.083007812 946 577.083007812 946 597.083007812 942 c 128,-1,16
 617.083007812 938 617.083007812 938 636.583007812 929 c 128,-1,17
 656.083007812 920 656.083007812 920 669.083007812 900.5 c 128,-1,18
 682.083007812 881 682.083007812 881 684.083007812 854 c 0,0,1
686.083007812 307 m 0,19,20
 698.083007812 235 698.083007812 235 678.083007812 160 c 0,21,22
 668.083007812 119 668.083007812 119 627.083007812 99.5 c 128,-1,23
 586.083007812 80 586.083007812 80 551.083007812 82 c 0,24,25
 510.083007812 84 510.083007812 84 471.083007812 107.5 c 128,-1,26
 432.083007812 131 432.083007812 131 428.083007812 174 c 0,27,28
 426.083007812 217 426.083007812 217 425.083007812 228.5 c 128,-1,29
 424.083007812 240 424.083007812 240 427.083007812 270.5 c 128,-1,30
 430.083007812 301 430.083007812 301 430.083007812 317 c 0,31,32
 430.083007812 342 430.083007812 342 444.583007812 360.5 c 128,-1,33
 459.083007812 379 459.083007812 379 480.583007812 386 c 128,-1,34
 502.083007812 393 502.083007812 393 522.583007812 396 c 128,-1,35
 543.083007812 399 543.083007812 399 561.083007812 399 c 0,36,37
 586.083007812 399 586.083007812 399 610.583007812 392 c 128,-1,38
 635.083007812 385 635.083007812 385 657.583007812 362.5 c 128,-1,39
 680.083007812 340 680.083007812 340 686.083007812 307 c 0,19,20
EndSplineSet
Validated: 524321
EndChar

StartChar: semicolon
Encoding: 59 59 27
Width: 1114
GlyphClass: 2
Flags: W
LayerCount: 2
Fore
SplineSet
746.391601562 768 m 0,0,1
 750.391601562 700 750.391601562 700 730.391601562 625 c 0,2,3
 720.391601562 584 720.391601562 584 686.391601562 562.5 c 128,-1,4
 652.391601562 541 652.391601562 541 619.391601562 543 c 0,5,6
 592.391601562 545 592.391601562 545 564.891601562 554 c 128,-1,7
 537.391601562 563 537.391601562 563 513.891601562 585.5 c 128,-1,8
 490.391601562 608 490.391601562 608 488.391601562 639 c 0,9,10
 484.391601562 694 484.391601562 694 486.391601562 780 c 0,11,12
 486.391601562 805 486.391601562 805 500.391601562 823.5 c 128,-1,13
 514.391601562 842 514.391601562 842 537.391601562 849 c 128,-1,14
 560.391601562 856 560.391601562 856 581.891601562 859 c 128,-1,15
 603.391601562 862 603.391601562 862 621.391601562 860 c 0,16,17
 639.391601562 860 639.391601562 860 657.891601562 857 c 128,-1,18
 676.391601562 854 676.391601562 854 696.891601562 844 c 128,-1,19
 717.391601562 834 717.391601562 834 730.891601562 814.5 c 128,-1,20
 744.391601562 795 744.391601562 795 746.391601562 768 c 0,0,1
707.391601562 152 m 0,21,22
 703.391601562 86 703.391601562 86 574.391601562 -383 c 0,23,24
 564.391601562 -426 564.391601562 -426 532.391601562 -445.5 c 128,-1,25
 500.391601562 -465 500.391601562 -465 467.391601562 -463 c 0,26,27
 426.391601562 -461 426.391601562 -461 394.891601562 -436.5 c 128,-1,28
 363.391601562 -412 363.391601562 -412 367.391601562 -369 c 0,29,30
 371.391601562 -320 371.391601562 -320 410.391601562 -129.5 c 128,-1,31
 449.391601562 61 449.391601562 61 471.391601562 162 c 0,32,33
 477.391601562 193 477.391601562 193 489.891601562 211 c 128,-1,34
 502.391601562 229 502.391601562 229 517.891601562 235.5 c 128,-1,35
 533.391601562 242 533.391601562 242 549.891601562 244 c 128,-1,36
 566.391601562 246 566.391601562 246 580.391601562 244 c 0,37,38
 598.391601562 244 598.391601562 244 619.891601562 238.5 c 128,-1,39
 641.391601562 233 641.391601562 233 662.891601562 224 c 128,-1,40
 684.391601562 215 684.391601562 215 696.891601562 197 c 128,-1,41
 709.391601562 179 709.391601562 179 707.391601562 152 c 0,21,22
EndSplineSet
Validated: 524321
EndChar

StartChar: less
Encoding: 60 60 28
Width: 1114
GlyphClass: 2
Flags: W
LayerCount: 2
Fore
SplineSet
1059.58203125 29 m 0,0,1
 1049.58203125 9 1049.58203125 9 1029.08203125 -5.5 c 128,-1,2
 1008.58203125 -20 1008.58203125 -20 974.08203125 -24.5 c 128,-1,3
 939.58203125 -29 939.58203125 -29 891.58203125 -12 c 0,4,5
 840.58203125 4 840.58203125 4 765.08203125 59.5 c 128,-1,6
 689.58203125 115 689.58203125 115 602.58203125 191.5 c 128,-1,7
 515.58203125 268 515.58203125 268 429.58203125 348 c 128,-1,8
 343.58203125 428 343.58203125 428 248.08203125 513 c 128,-1,9
 152.58203125 598 152.58203125 598 87.58203125 645 c 0,10,11
 60.58203125 663 60.58203125 663 52.58203125 700 c 128,-1,12
 44.58203125 737 44.58203125 737 53.58203125 771 c 128,-1,13
 62.58203125 805 62.58203125 805 89.58203125 819 c 0,14,15
 206.58203125 905 206.58203125 905 363.08203125 1035 c 128,-1,16
 519.58203125 1165 519.58203125 1165 649.58203125 1270.5 c 128,-1,17
 779.58203125 1376 779.58203125 1376 881.58203125 1438 c 0,18,19
 914.58203125 1458 914.58203125 1458 942.08203125 1459 c 128,-1,20
 969.58203125 1460 969.58203125 1460 990.08203125 1449 c 128,-1,21
 1010.58203125 1438 1010.58203125 1438 1025.08203125 1421.5 c 128,-1,22
 1039.58203125 1405 1039.58203125 1405 1047.58203125 1386 c 0,23,24
 1065.58203125 1351 1065.58203125 1351 1043.08203125 1315.5 c 128,-1,25
 1020.58203125 1280 1020.58203125 1280 951.58203125 1231 c 0,26,27
 836.58203125 1151 836.58203125 1151 603.08203125 968.5 c 128,-1,28
 369.58203125 786 369.58203125 786 306.58203125 737 c 1,29,30
 386.58203125 676 386.58203125 676 483.58203125 589 c 128,-1,31
 580.58203125 502 580.58203125 502 655.58203125 431 c 128,-1,32
 730.58203125 360 730.58203125 360 816.58203125 286.5 c 128,-1,33
 902.58203125 213 902.58203125 213 965.58203125 170 c 0,34,35
 1031.58203125 127 1031.58203125 127 1052.58203125 95.5 c 128,-1,36
 1073.58203125 64 1073.58203125 64 1059.58203125 29 c 0,0,1
EndSplineSet
Validated: 524321
EndChar

StartChar: equal
Encoding: 61 61 29
Width: 1114
GlyphClass: 2
Flags: W
LayerCount: 2
Fore
SplineSet
262.075195312 1081 m 0,0,1
 379.075195312 1077 379.075195312 1077 503.075195312 1077 c 128,-1,2
 627.075195312 1077 627.075195312 1077 734.575195312 1079 c 128,-1,3
 842.075195312 1081 842.075195312 1081 862.075195312 1081 c 0,4,5
 909.075195312 1081 909.075195312 1081 928.575195312 1060.5 c 128,-1,6
 948.075195312 1040 948.075195312 1040 950.075195312 1006 c 0,7,8
 950.075195312 988 950.075195312 988 946.075195312 972 c 128,-1,9
 942.075195312 956 942.075195312 956 934.075195312 942 c 128,-1,10
 926.075195312 928 926.075195312 928 907.575195312 920.5 c 128,-1,11
 889.075195312 913 889.075195312 913 862.075195312 915 c 0,12,13
 788.075195312 917 788.075195312 917 707.575195312 916 c 128,-1,14
 627.075195312 915 627.075195312 915 483.575195312 911 c 128,-1,15
 340.075195312 907 340.075195312 907 272.075195312 907 c 0,16,17
 221.075195312 907 221.075195312 907 192.575195312 931.5 c 128,-1,18
 164.075195312 956 164.075195312 956 164.075195312 991 c 0,19,20
 162.075195312 1030 162.075195312 1030 186.575195312 1056.5 c 128,-1,21
 211.075195312 1083 211.075195312 1083 262.075195312 1081 c 0,0,1
268.075195312 676 m 0,22,23
 430.075195312 674 430.075195312 674 645.075195312 678 c 128,-1,24
 860.075195312 682 860.075195312 682 862.075195312 682 c 0,25,26
 909.075195312 682 909.075195312 682 928.575195312 660.5 c 128,-1,27
 948.075195312 639 948.075195312 639 950.075195312 604 c 0,28,29
 950.075195312 586 950.075195312 586 946.075195312 570.5 c 128,-1,30
 942.075195312 555 942.075195312 555 934.075195312 540.5 c 128,-1,31
 926.075195312 526 926.075195312 526 907.575195312 519 c 128,-1,32
 889.075195312 512 889.075195312 512 862.075195312 514 c 0,33,34
 788.075195312 516 788.075195312 516 705.075195312 515 c 128,-1,35
 622.075195312 514 622.075195312 514 477.075195312 510 c 128,-1,36
 332.075195312 506 332.075195312 506 264.075195312 506 c 0,37,38
 213.075195312 506 213.075195312 506 188.575195312 531.5 c 128,-1,39
 164.075195312 557 164.075195312 557 164.075195312 594 c 0,40,41
 162.075195312 629 162.075195312 629 188.575195312 652.5 c 128,-1,42
 215.075195312 676 215.075195312 676 268.075195312 676 c 0,22,23
EndSplineSet
Validated: 524321
EndChar

StartChar: greater
Encoding: 62 62 30
Width: 1114
GlyphClass: 2
Flags: W
LayerCount: 2
Fore
SplineSet
233.0234375 10 m 0,0,1
 202.0234375 -8 202.0234375 -8 173.5234375 -10 c 128,-1,2
 145.0234375 -12 145.0234375 -12 124.5234375 -1 c 128,-1,3
 104.0234375 10 104.0234375 10 89.5234375 26.5 c 128,-1,4
 75.0234375 43 75.0234375 43 67.0234375 61 c 0,5,6
 49.0234375 96 49.0234375 96 71.5234375 132 c 128,-1,7
 94.0234375 168 94.0234375 168 163.0234375 217 c 0,8,9
 278.0234375 297 278.0234375 297 511.5234375 479.5 c 128,-1,10
 745.0234375 662 745.0234375 662 811.0234375 711 c 1,11,12
 731.0234375 772 731.0234375 772 631.5234375 859 c 128,-1,13
 532.0234375 946 532.0234375 946 458.5234375 1016.5 c 128,-1,14
 385.0234375 1087 385.0234375 1087 299.0234375 1161 c 128,-1,15
 213.0234375 1235 213.0234375 1235 147.0234375 1278 c 0,16,17
 81.0234375 1321 81.0234375 1321 59.5234375 1352.5 c 128,-1,18
 38.0234375 1384 38.0234375 1384 55.0234375 1419 c 0,19,20
 65.0234375 1439 65.0234375 1439 84.5234375 1453.5 c 128,-1,21
 104.0234375 1468 104.0234375 1468 140.0234375 1472.5 c 128,-1,22
 176.0234375 1477 176.0234375 1477 223.0234375 1460 c 0,23,24
 274.0234375 1444 274.0234375 1444 350.0234375 1389.5 c 128,-1,25
 426.0234375 1335 426.0234375 1335 513.0234375 1257.5 c 128,-1,26
 600.0234375 1180 600.0234375 1180 686.0234375 1100 c 128,-1,27
 772.0234375 1020 772.0234375 1020 866.0234375 936 c 128,-1,28
 960.0234375 852 960.0234375 852 1030.0234375 803 c 0,29,30
 1055.0234375 785 1055.0234375 785 1063.0234375 748 c 128,-1,31
 1071.0234375 711 1071.0234375 711 1060.5234375 677 c 128,-1,32
 1050.0234375 643 1050.0234375 643 1026.0234375 629 c 0,33,34
 909.0234375 543 909.0234375 543 752.0234375 413 c 128,-1,35
 595.0234375 283 595.0234375 283 465.0234375 177 c 128,-1,36
 335.0234375 71 335.0234375 71 233.0234375 10 c 0,0,1
EndSplineSet
Validated: 524321
EndChar

StartChar: question
Encoding: 63 63 31
Width: 1114
GlyphClass: 2
Flags: W
LayerCount: 2
Fore
SplineSet
620.657226562 537 m 0,0,1
 612.657226562 484 612.657226562 484 583.157226562 455 c 128,-1,2
 553.657226562 426 553.657226562 426 497.657226562 440 c 0,3,4
 440.657226562 454 440.657226562 454 422.157226562 493 c 128,-1,5
 403.657226562 532 403.657226562 532 420.657226562 598 c 0,6,7
 434.657226562 653 434.657226562 653 462.157226562 702.5 c 128,-1,8
 489.657226562 752 489.657226562 752 522.657226562 786.5 c 128,-1,9
 555.657226562 821 555.657226562 821 591.157226562 853 c 128,-1,10
 626.657226562 885 626.657226562 885 659.657226562 912.5 c 128,-1,11
 692.657226562 940 692.657226562 940 719.157226562 968.5 c 128,-1,12
 745.657226562 997 745.657226562 997 762.157226562 1031 c 128,-1,13
 778.657226562 1065 778.657226562 1065 778.657226562 1104 c 0,14,15
 778.657226562 1210 778.657226562 1210 716.157226562 1258.5 c 128,-1,16
 653.657226562 1307 653.657226562 1307 538.657226562 1307 c 0,17,18
 509.657226562 1307 509.657226562 1307 481.157226562 1293.5 c 128,-1,19
 452.657226562 1280 452.657226562 1280 431.157226562 1263.5 c 128,-1,20
 409.657226562 1247 409.657226562 1247 386.157226562 1219.5 c 128,-1,21
 362.657226562 1192 362.657226562 1192 349.657226562 1172.5 c 128,-1,22
 336.657226562 1153 336.657226562 1153 317.657226562 1126 c 0,23,24
 299.657226562 1099 299.657226562 1099 283.157226562 1084 c 128,-1,25
 266.657226562 1069 266.657226562 1069 248.157226562 1068 c 128,-1,26
 229.657226562 1067 229.657226562 1067 215.157226562 1070 c 128,-1,27
 200.657226562 1073 200.657226562 1073 178.657226562 1083 c 0,28,29
 143.657226562 1101 143.657226562 1101 134.657226562 1136 c 128,-1,30
 125.657226562 1171 125.657226562 1171 151.657226562 1227 c 0,31,32
 174.657226562 1270 174.657226562 1270 206.157226562 1310 c 128,-1,33
 237.657226562 1350 237.657226562 1350 284.657226562 1390 c 128,-1,34
 331.657226562 1430 331.657226562 1430 396.657226562 1454.5 c 128,-1,35
 461.657226562 1479 461.657226562 1479 530.657226562 1479 c 0,36,37
 751.657226562 1479 751.657226562 1479 866.657226562 1376.5 c 128,-1,38
 981.657226562 1274 981.657226562 1274 981.657226562 1069 c 0,39,40
 981.657226562 1014 981.657226562 1014 964.157226562 969 c 128,-1,41
 946.657226562 924 946.657226562 924 918.157226562 891 c 128,-1,42
 889.657226562 858 889.657226562 858 853.657226562 829.5 c 128,-1,43
 817.657226562 801 817.657226562 801 779.657226562 772 c 128,-1,44
 741.657226562 743 741.657226562 743 710.157226562 712.5 c 128,-1,45
 678.657226562 682 678.657226562 682 653.657226562 636 c 128,-1,46
 628.657226562 590 628.657226562 590 620.657226562 537 c 0,0,1
516.657226562 -29 m 0,47,48
 440.657226562 -37 440.657226562 -37 392.657226562 13 c 128,-1,49
 344.657226562 63 344.657226562 63 344.657226562 131 c 0,50,51
 344.657226562 194 344.657226562 194 396.657226562 239.5 c 128,-1,52
 448.657226562 285 448.657226562 285 516.657226562 287 c 0,53,54
 588.657226562 289 588.657226562 289 633.657226562 245 c 128,-1,55
 678.657226562 201 678.657226562 201 678.657226562 133 c 0,56,57
 678.657226562 67 678.657226562 67 634.657226562 23 c 128,-1,58
 590.657226562 -21 590.657226562 -21 516.657226562 -29 c 0,47,48
EndSplineSet
Validated: 524321
EndChar

StartChar: at
Encoding: 64 64 32
Width: 1114
GlyphClass: 2
Flags: W
LayerCount: 2
Fore
SplineSet
980.5 10 m 0,0,1
 970.5 -19 970.5 -19 959 -40 c 128,-1,2
 947.5 -61 947.5 -61 928 -93 c 128,-1,3
 908.5 -125 908.5 -125 887 -147.5 c 128,-1,4
 865.5 -170 865.5 -170 831 -193.5 c 128,-1,5
 796.5 -217 796.5 -217 756.5 -232.5 c 128,-1,6
 716.5 -248 716.5 -248 661 -257 c 128,-1,7
 605.5 -266 605.5 -266 542.5 -264 c 0,8,9
 433.5 -264 433.5 -264 339.5 -211 c 128,-1,10
 245.5 -158 245.5 -158 177 -62.5 c 128,-1,11
 108.5 33 108.5 33 68.5 169 c 128,-1,12
 28.5 305 28.5 305 28.5 467 c 0,13,14
 28.5 647 28.5 647 56 802.5 c 128,-1,15
 83.5 958 83.5 958 134.5 1074 c 128,-1,16
 185.5 1190 185.5 1190 255.5 1273 c 128,-1,17
 325.5 1356 325.5 1356 409.5 1398 c 128,-1,18
 493.5 1440 493.5 1440 585.5 1440 c 0,19,20
 655.5 1440 655.5 1440 710.5 1428.5 c 128,-1,21
 765.5 1417 765.5 1417 817.5 1391.5 c 128,-1,22
 869.5 1366 869.5 1366 909.5 1323 c 128,-1,23
 949.5 1280 949.5 1280 983.5 1215.5 c 128,-1,24
 1017.5 1151 1017.5 1151 1039 1065 c 128,-1,25
 1060.5 979 1060.5 979 1073 862 c 128,-1,26
 1085.5 745 1085.5 745 1085.5 600 c 0,27,28
 1085.5 526 1085.5 526 1074 459.5 c 128,-1,29
 1062.5 393 1062.5 393 1041 334.5 c 128,-1,30
 1019.5 276 1019.5 276 977.5 242.5 c 128,-1,31
 935.5 209 935.5 209 880.5 209 c 0,32,33
 733.5 209 733.5 209 714.5 381 c 1,34,35
 667.5 242 667.5 242 536.5 242 c 0,36,37
 415.5 242 415.5 242 348 317.5 c 128,-1,38
 280.5 393 280.5 393 280.5 549 c 0,39,40
 280.5 627 280.5 627 297.5 692.5 c 128,-1,41
 314.5 758 314.5 758 344.5 804 c 128,-1,42
 374.5 850 374.5 850 414.5 881.5 c 128,-1,43
 454.5 913 454.5 913 501.5 926.5 c 128,-1,44
 548.5 940 548.5 940 597.5 938 c 128,-1,45
 646.5 936 646.5 936 695.5 915 c 0,46,47
 742.5 897 742.5 897 771.5 866.5 c 128,-1,48
 800.5 836 800.5 836 786.5 811 c 0,49,50
 778.5 795 778.5 795 768 784.5 c 128,-1,51
 757.5 774 757.5 774 743 770 c 128,-1,52
 728.5 766 728.5 766 716.5 764 c 128,-1,53
 704.5 762 704.5 762 686 765 c 128,-1,54
 667.5 768 667.5 768 657 770 c 128,-1,55
 646.5 772 646.5 772 626.5 778 c 0,56,57
 599.5 782 599.5 782 574 780 c 128,-1,58
 548.5 778 548.5 778 524 763 c 128,-1,59
 499.5 748 499.5 748 481 724 c 128,-1,60
 462.5 700 462.5 700 450 661.5 c 128,-1,61
 437.5 623 437.5 623 437.5 573 c 0,62,63
 437.5 546 437.5 546 441 523 c 128,-1,64
 444.5 500 444.5 500 453.5 470 c 128,-1,65
 462.5 440 462.5 440 482 423 c 128,-1,66
 501.5 406 501.5 406 530.5 406 c 0,67,68
 596.5 406 596.5 406 622.5 456 c 128,-1,69
 648.5 506 648.5 506 652.5 623 c 0,70,71
 652.5 656 652.5 656 706.5 676 c 0,72,73
 763.5 699 763.5 699 802.5 682 c 0,74,75
 829.5 672 829.5 672 824.5 641 c 0,76,77
 812.5 532 812.5 532 818.5 472 c 128,-1,78
 824.5 412 824.5 412 839 390.5 c 128,-1,79
 853.5 369 853.5 369 880.5 369 c 0,80,81
 896.5 369 896.5 369 909 395.5 c 128,-1,82
 921.5 422 921.5 422 926.5 465 c 128,-1,83
 931.5 508 931.5 508 933.5 540.5 c 128,-1,84
 935.5 573 935.5 573 935.5 604 c 0,85,86
 935.5 708 935.5 708 926.5 796.5 c 128,-1,87
 917.5 885 917.5 885 904 947.5 c 128,-1,88
 890.5 1010 890.5 1010 868 1060 c 128,-1,89
 845.5 1110 845.5 1110 825 1142 c 128,-1,90
 804.5 1174 804.5 1174 776 1196.5 c 128,-1,91
 747.5 1219 747.5 1219 726 1230 c 128,-1,92
 704.5 1241 704.5 1241 676.5 1247 c 128,-1,93
 648.5 1253 648.5 1253 634.5 1254 c 128,-1,94
 620.5 1255 620.5 1255 599.5 1255 c 0,95,96
 517.5 1255 517.5 1255 447 1204 c 128,-1,97
 376.5 1153 376.5 1153 322 1062 c 128,-1,98
 267.5 971 267.5 971 237 835.5 c 128,-1,99
 206.5 700 206.5 700 206.5 541 c 0,100,101
 206.5 402 206.5 402 227 290 c 128,-1,102
 247.5 178 247.5 178 282.5 109.5 c 128,-1,103
 317.5 41 317.5 41 363.5 -6 c 128,-1,104
 409.5 -53 409.5 -53 455.5 -71.5 c 128,-1,105
 501.5 -90 501.5 -90 550.5 -90 c 0,106,107
 603.5 -90 603.5 -90 648.5 -80 c 128,-1,108
 693.5 -70 693.5 -70 723.5 -55.5 c 128,-1,109
 753.5 -41 753.5 -41 780 -16.5 c 128,-1,110
 806.5 8 806.5 8 821 28.5 c 128,-1,111
 835.5 49 835.5 49 853.5 82 c 0,112,113
 861.5 96 861.5 96 868 104.5 c 128,-1,114
 874.5 113 874.5 113 882.5 124 c 128,-1,115
 890.5 135 890.5 135 896.5 140 c 128,-1,116
 902.5 145 902.5 145 912 149.5 c 128,-1,117
 921.5 154 921.5 154 930.5 154 c 128,-1,118
 939.5 154 939.5 154 949.5 150 c 0,119,120
 965.5 144 965.5 144 977 134.5 c 128,-1,121
 988.5 125 988.5 125 995 109.5 c 128,-1,122
 1001.5 94 1001.5 94 997 68.5 c 128,-1,123
 992.5 43 992.5 43 980.5 10 c 0,0,1
EndSplineSet
Validated: 524321
EndChar

StartChar: A
Encoding: 65 65 33
Width: 1114
GlyphClass: 2
Flags: W
LayerCount: 2
Fore
SplineSet
196.848632812 84 m 2,0,1
 176.848632812 21 176.848632812 21 139.848632812 0.5 c 128,-1,2
 102.848632812 -20 102.848632812 -20 63.8486328125 -4 c 0,3,4
 -8.1513671875 29 -8.1513671875 29 18.8486328125 152 c 0,5,6
 30.8486328125 218 30.8486328125 218 137.848632812 471 c 1,7,8
 100.848632812 496 100.848632812 496 100.848632812 530 c 0,9,10
 98.8486328125 559 98.8486328125 559 126.348632812 584.5 c 128,-1,11
 153.848632812 610 153.848632812 610 198.848632812 625 c 1,12,13
 450.848632812 1211 450.848632812 1211 585.848632812 1407 c 0,14,15
 616.848632812 1448 616.848632812 1448 640.348632812 1466.5 c 128,-1,16
 663.848632812 1485 663.848632812 1485 692.848632812 1485 c 0,17,18
 731.848632812 1489 731.848632812 1489 763.348632812 1470.5 c 128,-1,19
 794.848632812 1452 794.848632812 1452 800.848632812 1407 c 0,20,21
 843.848632812 1153 843.848632812 1153 945.348632812 687 c 128,-1,22
 1046.84863281 221 1046.84863281 221 1085.84863281 152 c 0,23,24
 1105.84863281 113 1105.84863281 113 1101.84863281 81 c 128,-1,25
 1097.84863281 49 1097.84863281 49 1081.34863281 27.5 c 128,-1,26
 1064.84863281 6 1064.84863281 6 1042.84863281 -4 c 0,27,28
 1003.84863281 -20 1003.84863281 -20 964.848632812 -1 c 128,-1,29
 925.848632812 18 925.848632812 18 901.848632812 84 c 0,30,31
 874.848632812 147 874.848632812 147 798.848632812 514 c 1,32,33
 536.848632812 504 536.848632812 504 329.848632812 471 c 1,34,-1
 196.848632812 84 l 2,0,1
651.848632812 1233 m 1,35,36
 561.848632812 1096 561.848632812 1096 395.848632812 651 c 1,37,38
 604.848632812 676 604.848632812 676 765.848632812 680 c 1,39,-1
 651.848632812 1233 l 1,35,36
EndSplineSet
Validated: 524321
EndChar

StartChar: B
Encoding: 66 66 34
Width: 1114
GlyphClass: 2
Flags: W
LayerCount: 2
Fore
SplineSet
453.5 -29 m 0,0,1
 418.5 -31 418.5 -31 375.5 -35 c 128,-1,2
 332.5 -39 332.5 -39 306 -41 c 128,-1,3
 279.5 -43 279.5 -43 252 -45 c 128,-1,4
 224.5 -47 224.5 -47 203 -47 c 128,-1,5
 181.5 -47 181.5 -47 164.5 -43 c 2,6,-1
 156.5 -43 l 2,7,8
 115.5 -43 115.5 -43 89 -15.5 c 128,-1,9
 62.5 12 62.5 12 66.5 61 c 0,10,11
 72.5 147 72.5 147 70.5 389 c 128,-1,12
 68.5 631 68.5 631 60.5 887 c 0,13,14
 56.5 1024 56.5 1024 56.5 1071 c 128,-1,15
 56.5 1118 56.5 1118 59.5 1198 c 128,-1,16
 62.5 1278 62.5 1278 62.5 1309 c 0,17,18
 64.5 1364 64.5 1364 93 1391.5 c 128,-1,19
 121.5 1419 121.5 1419 164.5 1419 c 2,20,-1
 173.5 1419 l 1,21,22
 206.5 1429 206.5 1429 242 1436.5 c 128,-1,23
 277.5 1444 277.5 1444 307 1447 c 128,-1,24
 336.5 1450 336.5 1450 370.5 1451 c 128,-1,25
 404.5 1452 404.5 1452 424 1452 c 128,-1,26
 443.5 1452 443.5 1452 466 1452 c 128,-1,27
 488.5 1452 488.5 1452 488.5 1452 c 2,28,29
 627.5 1452 627.5 1452 736 1401 c 128,-1,30
 844.5 1350 844.5 1350 907 1252.5 c 128,-1,31
 969.5 1155 969.5 1155 971.5 1026 c 0,32,33
 973.5 907 973.5 907 918.5 822 c 128,-1,34
 863.5 737 863.5 737 767.5 698 c 1,35,36
 837.5 675 837.5 675 902.5 631.5 c 128,-1,37
 967.5 588 967.5 588 1012.5 533.5 c 128,-1,38
 1057.5 479 1057.5 479 1057.5 432 c 0,39,40
 1057.5 354 1057.5 354 1018 277.5 c 128,-1,41
 978.5 201 978.5 201 903.5 137.5 c 128,-1,42
 828.5 74 828.5 74 711.5 28.5 c 128,-1,43
 594.5 -17 594.5 -17 453.5 -29 c 0,0,1
484.5 1290 m 0,44,45
 373.5 1290 373.5 1290 269.5 1264 c 1,46,47
 269.5 1225 269.5 1225 265.5 1139 c 128,-1,48
 261.5 1053 261.5 1053 259.5 956.5 c 128,-1,49
 257.5 860 257.5 860 259.5 760 c 1,50,51
 355.5 756 355.5 756 441.5 756 c 0,52,53
 502.5 756 502.5 756 554 766 c 128,-1,54
 605.5 776 605.5 776 640 792.5 c 128,-1,55
 674.5 809 674.5 809 701.5 832.5 c 128,-1,56
 728.5 856 728.5 856 743.5 880.5 c 128,-1,57
 758.5 905 758.5 905 768 935 c 128,-1,58
 777.5 965 777.5 965 781.5 988.5 c 128,-1,59
 785.5 1012 785.5 1012 785.5 1038 c 0,60,61
 785.5 1091 785.5 1091 764 1136.5 c 128,-1,62
 742.5 1182 742.5 1182 711 1209.5 c 128,-1,63
 679.5 1237 679.5 1237 638.5 1256.5 c 128,-1,64
 597.5 1276 597.5 1276 558.5 1283 c 128,-1,65
 519.5 1290 519.5 1290 484.5 1290 c 0,44,45
457.5 608 m 1,66,67
 307.5 608 307.5 608 263.5 606 c 1,68,69
 271.5 276 271.5 276 275.5 137 c 1,70,71
 298.5 137 298.5 137 350.5 139 c 128,-1,72
 402.5 141 402.5 141 429.5 141 c 0,73,74
 523.5 145 523.5 145 606.5 174 c 128,-1,75
 689.5 203 689.5 203 741.5 243 c 128,-1,76
 793.5 283 793.5 283 824.5 327 c 128,-1,77
 855.5 371 855.5 371 855.5 408 c 0,78,79
 855.5 435 855.5 435 833 461 c 128,-1,80
 810.5 487 810.5 487 765 516 c 128,-1,81
 719.5 545 719.5 545 639.5 569.5 c 128,-1,82
 559.5 594 559.5 594 457.5 608 c 1,66,67
EndSplineSet
Validated: 524321
EndChar

StartChar: C
Encoding: 67 67 35
Width: 1114
GlyphClass: 2
Flags: W
LayerCount: 2
Fore
SplineSet
1028.5 131 m 0,0,1
 854.5 -70 854.5 -70 488.5 -63 c 0,2,3
 404.5 -63 404.5 -63 329.5 -34.5 c 128,-1,4
 254.5 -6 254.5 -6 201.5 41 c 128,-1,5
 148.5 88 148.5 88 108.5 150.5 c 128,-1,6
 68.5 213 68.5 213 49 283.5 c 128,-1,7
 29.5 354 29.5 354 29.5 426 c 0,8,9
 29.5 576 29.5 576 60 715 c 128,-1,10
 90.5 854 90.5 854 143 966.5 c 128,-1,11
 195.5 1079 195.5 1079 265 1173.5 c 128,-1,12
 334.5 1268 334.5 1268 413.5 1330.5 c 128,-1,13
 492.5 1393 492.5 1393 574.5 1426.5 c 128,-1,14
 656.5 1460 656.5 1460 733.5 1460 c 0,15,16
 809.5 1460 809.5 1460 871.5 1444 c 1,17,18
 879.5 1475 879.5 1475 903 1494 c 128,-1,19
 926.5 1513 926.5 1513 955.5 1516 c 0,20,21
 988.5 1522 988.5 1522 1023 1500.5 c 128,-1,22
 1057.5 1479 1057.5 1479 1065.5 1438 c 0,23,24
 1071.5 1407 1071.5 1407 1077 1377.5 c 128,-1,25
 1082.5 1348 1082.5 1348 1083.5 1319 c 128,-1,26
 1084.5 1290 1084.5 1290 1084.5 1271.5 c 128,-1,27
 1084.5 1253 1084.5 1253 1084.5 1228.5 c 128,-1,28
 1084.5 1204 1084.5 1204 1084.5 1198 c 0,29,30
 1084.5 1155 1084.5 1155 1052.5 1111 c 128,-1,31
 1020.5 1067 1020.5 1067 987.5 1063 c 0,32,33
 950.5 1057 950.5 1057 912 1082.5 c 128,-1,34
 873.5 1108 873.5 1108 873.5 1151 c 0,35,36
 873.5 1167 873.5 1167 877.5 1237 c 0,37,38
 875.5 1239 875.5 1239 858 1250.5 c 128,-1,39
 840.5 1262 840.5 1262 832.5 1267 c 128,-1,40
 824.5 1272 824.5 1272 809 1280 c 128,-1,41
 793.5 1288 793.5 1288 778 1291 c 128,-1,42
 762.5 1294 762.5 1294 748.5 1294 c 0,43,44
 685.5 1294 685.5 1294 612.5 1253 c 128,-1,45
 539.5 1212 539.5 1212 473 1136.5 c 128,-1,46
 406.5 1061 406.5 1061 352 962.5 c 128,-1,47
 297.5 864 297.5 864 266 740 c 128,-1,48
 234.5 616 234.5 616 234.5 492 c 0,49,50
 234.5 402 234.5 402 270 315.5 c 128,-1,51
 305.5 229 305.5 229 370 175 c 128,-1,52
 434.5 121 434.5 121 510.5 121 c 0,53,54
 576.5 121 576.5 121 640 134 c 128,-1,55
 703.5 147 703.5 147 753.5 168.5 c 128,-1,56
 803.5 190 803.5 190 839.5 211.5 c 128,-1,57
 875.5 233 875.5 233 905.5 258 c 0,58,59
 932.5 276 932.5 276 952 286.5 c 128,-1,60
 971.5 297 971.5 297 994 297 c 128,-1,61
 1016.5 297 1016.5 297 1037.5 283 c 0,62,63
 1112.5 225 1112.5 225 1028.5 131 c 0,0,1
EndSplineSet
Validated: 524321
EndChar

StartChar: D
Encoding: 68 68 36
Width: 1114
GlyphClass: 2
Flags: W
LayerCount: 2
Fore
SplineSet
630.125 -63 m 0,0,1
 528.125 -63 528.125 -63 430.625 -54 c 128,-1,2
 333.125 -45 333.125 -45 275.625 -32.5 c 128,-1,3
 218.125 -20 218.125 -20 175.125 -10 c 128,-1,4
 132.125 0 132.125 0 124.125 0 c 0,5,6
 83.125 0 83.125 0 56.625 27.5 c 128,-1,7
 30.125 55 30.125 55 34.125 104 c 0,8,9
 40.125 202 40.125 202 38.125 453.5 c 128,-1,10
 36.125 705 36.125 705 28.125 997 c 0,11,12
 26.125 1112 26.125 1112 25.125 1148 c 128,-1,13
 24.125 1184 24.125 1184 27.125 1259.5 c 128,-1,14
 30.125 1335 30.125 1335 30.125 1352 c 0,15,16
 32.125 1407 32.125 1407 60.625 1434.5 c 128,-1,17
 89.125 1462 89.125 1462 132.125 1462 c 0,18,19
 159.125 1462 159.125 1462 200.125 1458 c 128,-1,20
 241.125 1454 241.125 1454 305.625 1442 c 128,-1,21
 370.125 1430 370.125 1430 437.625 1408 c 128,-1,22
 505.125 1386 505.125 1386 584.125 1347.5 c 128,-1,23
 663.125 1309 663.125 1309 733.625 1257.5 c 128,-1,24
 804.125 1206 804.125 1206 869.625 1129.5 c 128,-1,25
 935.125 1053 935.125 1053 983.625 961.5 c 128,-1,26
 1032.125 870 1032.125 870 1060.625 744 c 128,-1,27
 1089.125 618 1089.125 618 1089.125 473 c 0,28,29
 1089.125 401 1089.125 401 1069.625 327.5 c 128,-1,30
 1050.125 254 1050.125 254 1010.125 183.5 c 128,-1,31
 970.125 113 970.125 113 917.125 57.5 c 128,-1,32
 864.125 2 864.125 2 789.125 -30.5 c 128,-1,33
 714.125 -63 714.125 -63 630.125 -63 c 0,0,1
229.125 713 m 0,34,35
 231.125 625 231.125 625 236.125 447.5 c 128,-1,36
 241.125 270 241.125 270 243.125 180 c 1,37,38
 327.125 143 327.125 143 419.125 128 c 128,-1,39
 511.125 113 511.125 113 628.125 113 c 0,40,41
 685.125 113 685.125 113 736.625 150.5 c 128,-1,42
 788.125 188 788.125 188 820.625 248.5 c 128,-1,43
 853.125 309 853.125 309 872.625 382 c 128,-1,44
 892.125 455 892.125 455 892.125 524 c 0,45,46
 892.125 909 892.125 909 577.125 1112 c 0,47,48
 464.125 1184 464.125 1184 255.125 1260 c 1,49,-1
 253.125 1262 l 1,50,-1
 253.125 1262 l 1,51,-1
 251.125 1262 l 1,52,-1
 251.125 1262 l 1,53,-1
 249.125 1262 l 1,54,-1
 249.125 1262 l 1,55,-1
 247.125 1264 l 1,56,-1
 247.125 1264 l 1,57,-1
 245.125 1264 l 1,58,-1
 245.125 1264 l 1,59,-1
 243.125 1264 l 1,60,-1
 243.125 1266 l 1,61,-1
 241.125 1266 l 1,62,-1
 241.125 1266 l 1,63,-1
 241.125 1266 l 1,64,-1
 239.125 1266 l 1,65,-1
 237.125 1268 l 1,66,-1
 237.125 1268 l 1,67,-1
 235.125 1268 l 1,68,-1
 235.125 1268 l 1,69,-1
 233.125 1268 l 1,70,-1
 233.125 1268 l 1,71,-1
 231.125 1270 l 1,72,-1
 231.125 1270 l 1,73,-1
 229.125 1270 l 1,74,-1
 229.125 1270 l 1,75,-1
 227.125 1270 l 1,76,-1
 227.125 1272 l 1,77,78
 221.125 1006 221.125 1006 229.125 713 c 0,34,35
EndSplineSet
Validated: 524325
EndChar

StartChar: E
Encoding: 69 69 37
Width: 1114
GlyphClass: 2
Flags: W
LayerCount: 2
Fore
SplineSet
958.625 -12 m 0,0,1
 921.625 -10 921.625 -10 780.625 -19.5 c 128,-1,2
 639.625 -29 639.625 -29 470.625 -36 c 128,-1,3
 301.625 -43 301.625 -43 205.625 -37 c 0,4,5
 158.625 -35 158.625 -35 111.125 9 c 128,-1,6
 63.625 53 63.625 53 55.625 117 c 0,7,8
 49.625 170 49.625 170 49.625 308 c 128,-1,9
 49.625 446 49.625 446 51.625 602 c 128,-1,10
 53.625 758 53.625 758 49.625 952 c 0,11,12
 47.625 1075 47.625 1075 46.625 1115 c 128,-1,13
 45.625 1155 45.625 1155 48.625 1233 c 128,-1,14
 51.625 1311 51.625 1311 51.625 1329 c 0,15,16
 53.625 1384 53.625 1384 82.125 1413 c 128,-1,17
 110.625 1442 110.625 1442 153.625 1442 c 0,18,19
 206.625 1444 206.625 1444 235.625 1407 c 1,20,21
 352.625 1423 352.625 1423 509.125 1427.5 c 128,-1,22
 665.625 1432 665.625 1432 786.625 1427.5 c 128,-1,23
 907.625 1423 907.625 1423 979.625 1415 c 0,24,25
 1028.625 1409 1028.625 1409 1047.125 1390.5 c 128,-1,26
 1065.625 1372 1065.625 1372 1067.625 1339 c 0,27,28
 1067.625 1321 1067.625 1321 1063.625 1304.5 c 128,-1,29
 1059.625 1288 1059.625 1288 1050.125 1275 c 128,-1,30
 1040.625 1262 1040.625 1262 1022.125 1253.5 c 128,-1,31
 1003.625 1245 1003.625 1245 979.625 1249 c 0,32,33
 786.625 1263 786.625 1263 591.125 1258 c 128,-1,34
 395.625 1253 395.625 1253 256.625 1233 c 1,35,36
 248.625 1020 248.625 1020 248.625 815 c 1,37,38
 398.625 815 398.625 815 656.125 830.5 c 128,-1,39
 913.625 846 913.625 846 946.625 846 c 0,40,41
 993.625 846 993.625 846 1013.125 825.5 c 128,-1,42
 1032.625 805 1032.625 805 1032.625 768 c 0,43,44
 1032.625 678 1032.625 678 946.625 680 c 0,45,46
 909.625 680 909.625 680 630.125 659.5 c 128,-1,47
 350.625 639 350.625 639 250.625 639 c 1,48,49
 250.625 594 250.625 594 251.625 521.5 c 128,-1,50
 252.625 449 252.625 449 253.625 396.5 c 128,-1,51
 254.625 344 254.625 344 255.625 288.5 c 128,-1,52
 256.625 233 256.625 233 259.625 197.5 c 128,-1,53
 262.625 162 262.625 162 268.625 147 c 1,54,55
 321.625 133 321.625 133 589.125 143.5 c 128,-1,56
 856.625 154 856.625 154 932.625 170 c 0,57,58
 961.625 174 961.625 174 981.625 173 c 128,-1,59
 1001.625 172 1001.625 172 1017.125 165 c 128,-1,60
 1032.625 158 1032.625 158 1041.625 149.5 c 128,-1,61
 1050.625 141 1050.625 141 1056.125 128 c 128,-1,62
 1061.625 115 1061.625 115 1064.625 104.5 c 128,-1,63
 1067.625 94 1067.625 94 1067.625 84 c 0,64,65
 1067.625 45 1067.625 45 1039.625 14.5 c 128,-1,66
 1011.625 -16 1011.625 -16 958.625 -12 c 0,0,1
EndSplineSet
Validated: 524321
EndChar

StartChar: F
Encoding: 70 70 38
Width: 1114
GlyphClass: 2
Flags: W
LayerCount: 2
Fore
SplineSet
267 49 m 1,0,1
 263 6 263 6 227 -19.5 c 128,-1,2
 191 -45 191 -45 146 -43 c 0,3,4
 105 -43 105 -43 78.5 -15.5 c 128,-1,5
 52 12 52 12 56 61 c 0,6,7
 62 151 62 151 60 406.5 c 128,-1,8
 58 662 58 662 50 932 c 0,9,10
 46 1069 46 1069 46 1116 c 128,-1,11
 46 1163 46 1163 49 1243 c 128,-1,12
 52 1323 52 1323 52 1352 c 0,13,14
 54 1407 54 1407 82.5 1434.5 c 128,-1,15
 111 1462 111 1462 154 1462 c 0,16,17
 209 1466 209 1466 238 1427 c 1,18,19
 439 1441 439 1441 644 1445.5 c 128,-1,20
 849 1450 849 1450 980 1438 c 0,21,22
 1027 1434 1027 1434 1046.5 1414.5 c 128,-1,23
 1066 1395 1066 1395 1068 1360 c 0,24,25
 1068 1321 1068 1321 1044.5 1294.5 c 128,-1,26
 1021 1268 1021 1268 972 1268 c 0,27,28
 642 1284 642 1284 257 1253 c 1,29,30
 257 1218 257 1218 254 1141.5 c 128,-1,31
 251 1065 251 1065 249 985 c 128,-1,32
 247 905 247 905 249 823 c 1,33,34
 358 835 358 835 491.5 833 c 128,-1,35
 625 831 625 831 733 822 c 128,-1,36
 841 813 841 813 904 803 c 0,37,38
 953 795 953 795 971.5 776.5 c 128,-1,39
 990 758 990 758 992 725 c 0,40,41
 992 707 992 707 989 691.5 c 128,-1,42
 986 676 986 676 977 661.5 c 128,-1,43
 968 647 968 647 949.5 640 c 128,-1,44
 931 633 931 633 904 635 c 0,45,46
 841 645 841 645 730 652 c 128,-1,47
 619 659 619 659 480 660.5 c 128,-1,48
 341 662 341 662 251 647 c 1,49,50
 265 104 265 104 267 49 c 1,0,1
EndSplineSet
Validated: 33
EndChar

StartChar: G
Encoding: 71 71 39
Width: 1114
GlyphClass: 2
Flags: W
LayerCount: 2
Fore
SplineSet
1026.88769531 500 m 0,0,1
 1022.88769531 457 1022.88769531 457 1001.38769531 399.5 c 128,-1,2
 979.887695312 342 979.887695312 342 947.387695312 277.5 c 128,-1,3
 914.887695312 213 914.887695312 213 865.387695312 152.5 c 128,-1,4
 815.887695312 92 815.887695312 92 759.887695312 43 c 128,-1,5
 703.887695312 -6 703.887695312 -6 630.887695312 -36 c 128,-1,6
 557.887695312 -66 557.887695312 -66 484.887695312 -63 c 0,7,8
 400.887695312 -63 400.887695312 -63 325.887695312 -34.5 c 128,-1,9
 250.887695312 -6 250.887695312 -6 197.887695312 41 c 128,-1,10
 144.887695312 88 144.887695312 88 104.887695312 150.5 c 128,-1,11
 64.8876953125 213 64.8876953125 213 45.3876953125 283.5 c 128,-1,12
 25.8876953125 354 25.8876953125 354 25.8876953125 426 c 0,13,14
 25.8876953125 578 25.8876953125 578 56.3876953125 721 c 128,-1,15
 86.8876953125 864 86.8876953125 864 139.387695312 979 c 128,-1,16
 191.887695312 1094 191.887695312 1094 261.387695312 1189 c 128,-1,17
 330.887695312 1284 330.887695312 1284 409.887695312 1348.5 c 128,-1,18
 488.887695312 1413 488.887695312 1413 570.887695312 1448 c 128,-1,19
 652.887695312 1483 652.887695312 1483 729.887695312 1483 c 0,20,21
 815.887695312 1483 815.887695312 1483 921.387695312 1443 c 128,-1,22
 1026.88769531 1403 1026.88769531 1403 1057.88769531 1374 c 0,23,24
 1102.88769531 1329 1102.88769531 1329 1080.88769531 1257 c 0,25,26
 1072.88769531 1230 1072.88769531 1230 1041.88769531 1218 c 128,-1,27
 1010.88769531 1206 1010.88769531 1206 977.887695312 1219 c 0,28,29
 965.887695312 1223 965.887695312 1223 920.887695312 1249.5 c 128,-1,30
 875.887695312 1276 875.887695312 1276 829.887695312 1296.5 c 128,-1,31
 783.887695312 1317 783.887695312 1317 744.887695312 1317 c 0,32,33
 681.887695312 1317 681.887695312 1317 608.887695312 1275 c 128,-1,34
 535.887695312 1233 535.887695312 1233 469.387695312 1154 c 128,-1,35
 402.887695312 1075 402.887695312 1075 348.387695312 974.5 c 128,-1,36
 293.887695312 874 293.887695312 874 262.387695312 747.5 c 128,-1,37
 230.887695312 621 230.887695312 621 230.887695312 492 c 0,38,39
 230.887695312 402 230.887695312 402 266.387695312 315.5 c 128,-1,40
 301.887695312 229 301.887695312 229 366.387695312 175 c 128,-1,41
 430.887695312 121 430.887695312 121 506.887695312 121 c 0,42,43
 555.887695312 121 555.887695312 121 608.387695312 152.5 c 128,-1,44
 660.887695312 184 660.887695312 184 701.887695312 233.5 c 128,-1,45
 742.887695312 283 742.887695312 283 779.387695312 344.5 c 128,-1,46
 815.887695312 406 815.887695312 406 840.887695312 463 c 128,-1,47
 865.887695312 520 865.887695312 520 879.887695312 569 c 1,48,49
 750.887695312 563 750.887695312 563 626.887695312 546.5 c 128,-1,50
 502.887695312 530 502.887695312 530 455.887695312 504 c 0,51,52
 420.887695312 486 420.887695312 486 389.387695312 506 c 128,-1,53
 357.887695312 526 357.887695312 526 353.887695312 561 c 0,54,55
 341.887695312 639 341.887695312 639 430.887695312 682 c 0,56,57
 487.887695312 711 487.887695312 711 680.887695312 726 c 128,-1,58
 873.887695312 741 873.887695312 741 983.887695312 735 c 0,59,60
 1034.88769531 733 1034.88769531 733 1054.38769531 717.5 c 128,-1,61
 1073.88769531 702 1073.88769531 702 1080.88769531 670 c 0,62,63
 1088.88769531 594 1088.88769531 594 1035.88769531 575 c 1,64,65
 1035.88769531 569 1035.88769531 569 1031.38769531 542.5 c 128,-1,66
 1026.88769531 516 1026.88769531 516 1026.88769531 500 c 0,0,1
EndSplineSet
Validated: 524321
EndChar

StartChar: H
Encoding: 72 72 40
Width: 1114
GlyphClass: 2
Flags: W
LayerCount: 2
Fore
SplineSet
1031.7578125 49 m 1,0,1
 1027.7578125 6 1027.7578125 6 991.7578125 -19.5 c 128,-1,2
 955.7578125 -45 955.7578125 -45 912.7578125 -43 c 0,3,4
 871.7578125 -43 871.7578125 -43 845.2578125 -15.5 c 128,-1,5
 818.7578125 12 818.7578125 12 822.7578125 61 c 0,6,7
 842.7578125 346 842.7578125 346 841.7578125 700 c 1,8,9
 806.7578125 698 806.7578125 698 590.7578125 668.5 c 128,-1,10
 374.7578125 639 374.7578125 639 281.7578125 639 c 1,11,12
 281.7578125 633 281.7578125 633 280.7578125 617.5 c 128,-1,13
 279.7578125 602 279.7578125 602 279.7578125 596 c 0,14,15
 267.7578125 393 267.7578125 393 279.7578125 49 c 1,16,17
 275.7578125 6 275.7578125 6 239.2578125 -19.5 c 128,-1,18
 202.7578125 -45 202.7578125 -45 159.7578125 -43 c 0,19,20
 118.7578125 -43 118.7578125 -43 91.7578125 -15.5 c 128,-1,21
 64.7578125 12 64.7578125 12 68.7578125 61 c 0,22,23
 70.7578125 90 70.7578125 90 72.2578125 153.5 c 128,-1,24
 73.7578125 217 73.7578125 217 73.7578125 323.5 c 128,-1,25
 73.7578125 430 73.7578125 430 75.7578125 516 c 0,26,27
 75.7578125 586 75.7578125 586 79.7578125 716 c 128,-1,28
 83.7578125 846 83.7578125 846 84.7578125 908.5 c 128,-1,29
 85.7578125 971 85.7578125 971 83.7578125 1096 c 0,30,31
 81.7578125 1188 81.7578125 1188 81.7578125 1213.5 c 128,-1,32
 81.7578125 1239 81.7578125 1239 83.7578125 1284 c 128,-1,33
 85.7578125 1329 85.7578125 1329 87.7578125 1352 c 0,34,35
 89.7578125 1407 89.7578125 1407 117.2578125 1434.5 c 128,-1,36
 144.7578125 1462 144.7578125 1462 187.7578125 1462 c 0,37,38
 232.7578125 1464 232.7578125 1464 262.7578125 1438.5 c 128,-1,39
 292.7578125 1413 292.7578125 1413 292.7578125 1358 c 0,40,41
 292.7578125 1338 292.7578125 1338 287.2578125 1270 c 128,-1,42
 281.7578125 1202 281.7578125 1202 281.7578125 1145 c 0,43,44
 281.7578125 1092 281.7578125 1092 284.2578125 982 c 128,-1,45
 286.7578125 872 286.7578125 872 286.7578125 815 c 1,46,47
 392.7578125 815 392.7578125 815 505.2578125 827.5 c 128,-1,48
 617.7578125 840 617.7578125 840 710.2578125 852 c 128,-1,49
 802.7578125 864 802.7578125 864 839.7578125 868 c 1,50,51
 839.7578125 882 839.7578125 882 837.2578125 910 c 128,-1,52
 834.7578125 938 834.7578125 938 834.7578125 952 c 0,53,54
 832.7578125 1079 832.7578125 1079 832.7578125 1120 c 128,-1,55
 832.7578125 1161 832.7578125 1161 836.2578125 1247 c 128,-1,56
 839.7578125 1333 839.7578125 1333 841.7578125 1352 c 0,57,58
 841.7578125 1407 841.7578125 1407 871.2578125 1434.5 c 128,-1,59
 900.7578125 1462 900.7578125 1462 941.7578125 1462 c 0,60,61
 986.7578125 1464 986.7578125 1464 1016.2578125 1438.5 c 128,-1,62
 1045.7578125 1413 1045.7578125 1413 1045.7578125 1358 c 0,63,64
 1045.7578125 1319 1045.7578125 1319 1043.7578125 1198 c 128,-1,65
 1041.7578125 1077 1041.7578125 1077 1040.7578125 986 c 128,-1,66
 1039.7578125 895 1039.7578125 895 1043.7578125 723 c 0,67,68
 1047.7578125 580 1047.7578125 580 1039.7578125 346 c 128,-1,69
 1031.7578125 112 1031.7578125 112 1031.7578125 49 c 1,0,1
EndSplineSet
Validated: 524321
EndChar

StartChar: I
Encoding: 73 73 41
Width: 1114
GlyphClass: 2
Flags: W
LayerCount: 2
Fore
SplineSet
982.078125 -23 m 0,0,1
 929.078125 -15 929.078125 -15 808.078125 -13.5 c 128,-1,2
 687.078125 -12 687.078125 -12 572.578125 -16 c 128,-1,3
 458.078125 -20 458.078125 -20 328.078125 -24.5 c 128,-1,4
 198.078125 -29 198.078125 -29 148.078125 -29 c 0,5,6
 95.078125 -29 95.078125 -29 69.578125 -8.5 c 128,-1,7
 44.078125 12 44.078125 12 44.078125 45 c 0,8,9
 42.078125 82 42.078125 82 65.578125 107.5 c 128,-1,10
 89.078125 133 89.078125 133 142.078125 135 c 0,11,12
 228.078125 139 228.078125 139 445.078125 145 c 1,13,14
 468.078125 495 468.078125 495 458.078125 887 c 0,15,16
 456.078125 961 456.078125 961 455.078125 1026.5 c 128,-1,17
 454.078125 1092 454.078125 1092 454.078125 1120.5 c 128,-1,18
 454.078125 1149 454.078125 1149 458.078125 1209.5 c 128,-1,19
 462.078125 1270 462.078125 1270 462.078125 1280 c 1,20,21
 276.078125 1284 276.078125 1284 163.078125 1280 c 0,22,23
 112.078125 1280 112.078125 1280 85.078125 1302.5 c 128,-1,24
 58.078125 1325 58.078125 1325 58.078125 1360 c 0,25,26
 56.078125 1397 56.078125 1397 81.578125 1423.5 c 128,-1,27
 107.078125 1450 107.078125 1450 161.078125 1450 c 0,28,29
 673.078125 1464 673.078125 1464 972.078125 1436 c 0,30,31
 1062.078125 1428 1062.078125 1428 1066.078125 1352 c 0,32,33
 1066.078125 1334 1066.078125 1334 1061.078125 1316 c 128,-1,34
 1056.078125 1298 1056.078125 1298 1044.578125 1282 c 128,-1,35
 1033.078125 1266 1033.078125 1266 1012.578125 1256.5 c 128,-1,36
 992.078125 1247 992.078125 1247 968.078125 1253 c 0,37,38
 907.078125 1263 907.078125 1263 667.078125 1276 c 1,39,40
 667.078125 1260 667.078125 1260 665.078125 1184 c 128,-1,41
 663.078125 1108 663.078125 1108 663.078125 1063 c 128,-1,42
 663.078125 1018 663.078125 1018 663.078125 934 c 128,-1,43
 663.078125 850 663.078125 850 665.078125 768 c 0,44,45
 669.078125 623 669.078125 623 661.578125 405.5 c 128,-1,46
 654.078125 188 654.078125 188 654.078125 147 c 1,47,48
 742.078125 147 742.078125 147 858.078125 146 c 128,-1,49
 974.078125 145 974.078125 145 982.078125 145 c 0,50,51
 1029.078125 145 1029.078125 145 1048.578125 123.5 c 128,-1,52
 1068.078125 102 1068.078125 102 1070.078125 68 c 0,53,54
 1070.078125 50 1070.078125 50 1067.078125 34 c 128,-1,55
 1064.078125 18 1064.078125 18 1054.578125 3 c 128,-1,56
 1045.078125 -12 1045.078125 -12 1027.078125 -19.5 c 128,-1,57
 1009.078125 -27 1009.078125 -27 982.078125 -23 c 0,0,1
EndSplineSet
Validated: 524321
EndChar

StartChar: J
Encoding: 74 74 42
Width: 1114
GlyphClass: 2
Flags: W
LayerCount: 2
Fore
SplineSet
764.333007812 440 m 0,0,1
 748.333007812 256 748.333007812 256 715.333007812 141.5 c 128,-1,2
 682.333007812 27 682.333007812 27 635.333007812 -22.5 c 128,-1,3
 588.333007812 -72 588.333007812 -72 523.333007812 -72 c 0,4,5
 453.333007812 -72 453.333007812 -72 386.833007812 -47.5 c 128,-1,6
 320.333007812 -23 320.333007812 -23 269.833007812 18 c 128,-1,7
 219.333007812 59 219.333007812 59 176.333007812 107.5 c 128,-1,8
 133.333007812 156 133.333007812 156 104.833007812 204 c 128,-1,9
 76.3330078125 252 76.3330078125 252 59.8330078125 290 c 128,-1,10
 43.3330078125 328 43.3330078125 328 41.3330078125 350 c 0,11,12
 37.3330078125 368 37.3330078125 368 39.3330078125 394 c 128,-1,13
 41.3330078125 420 41.3330078125 420 47.8330078125 442.5 c 128,-1,14
 54.3330078125 465 54.3330078125 465 72.3330078125 482.5 c 128,-1,15
 90.3330078125 500 90.3330078125 500 121.333007812 504 c 0,16,17
 166.333007812 512 166.333007812 512 193.833007812 486.5 c 128,-1,18
 221.333007812 461 221.333007812 461 221.333007812 422 c 0,19,20
 221.333007812 399 221.333007812 399 229.833007812 367.5 c 128,-1,21
 238.333007812 336 238.333007812 336 257.833007812 294 c 128,-1,22
 277.333007812 252 277.333007812 252 305.833007812 217 c 128,-1,23
 334.333007812 182 334.333007812 182 385.833007812 158.5 c 128,-1,24
 437.333007812 135 437.333007812 135 498.333007812 135 c 0,25,26
 572.333007812 135 572.333007812 135 582.333007812 492 c 0,27,28
 582.333007812 537 582.333007812 537 578.333007812 780.5 c 128,-1,29
 574.333007812 1024 574.333007812 1024 578.333007812 1278 c 1,30,31
 349.333007812 1284 349.333007812 1284 172.333007812 1280 c 0,32,33
 121.333007812 1280 121.333007812 1280 94.8330078125 1302.5 c 128,-1,34
 68.3330078125 1325 68.3330078125 1325 68.3330078125 1360 c 0,35,36
 66.3330078125 1397 66.3330078125 1397 91.8330078125 1423.5 c 128,-1,37
 117.333007812 1450 117.333007812 1450 170.333007812 1450 c 0,38,39
 682.333007812 1464 682.333007812 1464 979.333007812 1436 c 0,40,41
 1069.33300781 1428 1069.33300781 1428 1075.33300781 1352 c 0,42,43
 1075.33300781 1334 1075.33300781 1334 1069.33300781 1316 c 128,-1,44
 1063.33300781 1298 1063.33300781 1298 1053.33300781 1282 c 128,-1,45
 1043.33300781 1266 1043.33300781 1266 1022.83300781 1256.5 c 128,-1,46
 1002.33300781 1247 1002.33300781 1247 975.333007812 1253 c 0,47,48
 903.333007812 1263 903.333007812 1263 756.333007812 1272 c 1,49,50
 756.333007812 1213 756.333007812 1213 760.333007812 1092 c 128,-1,51
 764.333007812 971 764.333007812 971 767.333007812 871.5 c 128,-1,52
 770.333007812 772 770.333007812 772 770.333007812 650 c 128,-1,53
 770.333007812 528 770.333007812 528 764.333007812 440 c 0,0,1
EndSplineSet
Validated: 524321
EndChar

StartChar: K
Encoding: 75 75 43
Width: 1114
GlyphClass: 2
Flags: W
LayerCount: 2
Fore
SplineSet
270.936523438 49 m 1,0,1
 266.936523438 6 266.936523438 6 230.936523438 -19.5 c 128,-1,2
 194.936523438 -45 194.936523438 -45 149.936523438 -43 c 0,3,4
 108.936523438 -43 108.936523438 -43 82.4365234375 -15.5 c 128,-1,5
 55.9365234375 12 55.9365234375 12 59.9365234375 61 c 0,6,7
 65.9365234375 151 65.9365234375 151 63.9365234375 406.5 c 128,-1,8
 61.9365234375 662 61.9365234375 662 53.9365234375 932 c 0,9,10
 49.9365234375 1063 49.9365234375 1063 49.9365234375 1109 c 128,-1,11
 49.9365234375 1155 49.9365234375 1155 52.9365234375 1242 c 128,-1,12
 55.9365234375 1329 55.9365234375 1329 55.9365234375 1352 c 0,13,14
 57.9365234375 1407 57.9365234375 1407 86.4365234375 1434.5 c 128,-1,15
 114.936523438 1462 114.936523438 1462 157.936523438 1462 c 0,16,17
 202.936523438 1464 202.936523438 1464 232.936523438 1438.5 c 128,-1,18
 262.936523438 1413 262.936523438 1413 262.936523438 1358 c 0,19,20
 262.936523438 1309 262.936523438 1309 257.936523438 1143 c 128,-1,21
 252.936523438 977 252.936523438 977 252.936523438 868 c 1,22,23
 326.936523438 940 326.936523438 940 474.936523438 1085.5 c 128,-1,24
 622.936523438 1231 622.936523438 1231 710.936523438 1316 c 128,-1,25
 798.936523438 1401 798.936523438 1401 823.936523438 1421 c 0,26,27
 852.936523438 1448 852.936523438 1448 879.436523438 1457 c 128,-1,28
 905.936523438 1466 905.936523438 1466 925.436523438 1461 c 128,-1,29
 944.936523438 1456 944.936523438 1456 960.936523438 1440 c 0,30,31
 1013.93652344 1383 1013.93652344 1383 944.936523438 1296 c 0,32,33
 913.936523438 1259 913.936523438 1259 727.436523438 1072 c 128,-1,34
 540.936523438 885 540.936523438 885 395.936523438 745 c 1,35,36
 465.936523438 671 465.936523438 671 632.436523438 514.5 c 128,-1,37
 798.936523438 358 798.936523438 358 921.936523438 239.5 c 128,-1,38
 1044.93652344 121 1044.93652344 121 1057.93652344 90 c 0,39,40
 1069.93652344 51 1069.93652344 51 1058.43652344 20.5 c 128,-1,41
 1046.93652344 -10 1046.93652344 -10 1020.93652344 -27 c 0,42,43
 950.936523438 -74 950.936523438 -74 884.936523438 8 c 0,44,45
 864.936523438 35 864.936523438 35 738.936523438 149.5 c 128,-1,46
 612.936523438 264 612.936523438 264 467.436523438 402.5 c 128,-1,47
 321.936523438 541 321.936523438 541 254.936523438 623 c 1,48,-1
 254.936523438 582 l 2,49,50
 254.936523438 547 254.936523438 547 270.936523438 49 c 1,0,1
EndSplineSet
Validated: 524321
EndChar

StartChar: L
Encoding: 76 76 44
Width: 1114
GlyphClass: 2
Flags: W
LayerCount: 2
Fore
SplineSet
977.262695312 20 m 0,0,1
 838.262695312 -7 838.262695312 -7 555.262695312 -19 c 128,-1,2
 272.262695312 -31 272.262695312 -31 139.262695312 -31 c 0,3,4
 98.2626953125 -31 98.2626953125 -31 71.7626953125 -3 c 128,-1,5
 45.2626953125 25 45.2626953125 25 49.2626953125 74 c 0,6,7
 49.2626953125 90 49.2626953125 90 72.7626953125 308 c 128,-1,8
 96.2626953125 526 96.2626953125 526 106.262695312 729 c 0,9,10
 112.262695312 821 112.262695312 821 108.262695312 1067 c 128,-1,11
 104.262695312 1313 104.262695312 1313 104.262695312 1333 c 0,12,13
 106.262695312 1388 106.262695312 1388 136.262695312 1417 c 128,-1,14
 166.262695312 1446 166.262695312 1446 207.262695312 1446 c 0,15,16
 252.262695312 1448 252.262695312 1448 281.762695312 1422.5 c 128,-1,17
 311.262695312 1397 311.262695312 1397 311.262695312 1341 c 0,18,19
 311.262695312 1282 311.262695312 1282 307.262695312 1179.5 c 128,-1,20
 303.262695312 1077 303.262695312 1077 298.262695312 921.5 c 128,-1,21
 293.262695312 766 293.262695312 766 289.262695312 651 c 0,22,23
 287.262695312 565 287.262695312 565 273.762695312 401.5 c 128,-1,24
 260.262695312 238 260.262695312 238 260.262695312 147 c 1,25,26
 432.262695312 145 432.262695312 145 660.762695312 166.5 c 128,-1,27
 889.262695312 188 889.262695312 188 965.262695312 209 c 0,28,29
 990.262695312 215 990.262695312 215 1009.26269531 207 c 128,-1,30
 1028.26269531 199 1028.26269531 199 1039.76269531 182.5 c 128,-1,31
 1051.26269531 166 1051.26269531 166 1058.26269531 146.5 c 128,-1,32
 1065.26269531 127 1065.26269531 127 1065.26269531 111 c 0,33,34
 1065.26269531 74 1065.26269531 74 1046.76269531 51 c 128,-1,35
 1028.26269531 28 1028.26269531 28 977.262695312 20 c 0,0,1
EndSplineSet
Validated: 524321
EndChar

StartChar: M
Encoding: 77 77 45
Width: 1114
GlyphClass: 2
Flags: W
LayerCount: 2
Fore
SplineSet
182.836914062 121 m 0,0,1
 184.836914062 55 184.836914062 55 156.336914062 17.5 c 128,-1,2
 127.836914062 -20 127.836914062 -20 86.8369140625 -20 c 0,3,4
 12.8369140625 -18 12.8369140625 -18 12.8369140625 131 c 0,5,6
 12.8369140625 156 12.8369140625 156 18.3369140625 215 c 128,-1,7
 23.8369140625 274 23.8369140625 274 33.8369140625 370.5 c 128,-1,8
 43.8369140625 467 43.8369140625 467 49.8369140625 539 c 0,9,10
 51.8369140625 564 51.8369140625 564 55.8369140625 614 c 0,11,12
 67.8369140625 766 67.8369140625 766 75.3369140625 851 c 128,-1,13
 82.8369140625 936 82.8369140625 936 96.3369140625 1063 c 128,-1,14
 109.836914062 1190 109.836914062 1190 121.836914062 1262.5 c 128,-1,15
 133.836914062 1335 133.836914062 1335 148.836914062 1364 c 0,16,17
 168.836914062 1407 168.836914062 1407 211.836914062 1426.5 c 128,-1,18
 254.836914062 1446 254.836914062 1446 293.836914062 1442 c 0,19,20
 385.836914062 1442 385.836914062 1442 406.836914062 1366 c 0,21,22
 431.836914062 1276 431.836914062 1276 460.336914062 1068 c 128,-1,23
 488.836914062 860 488.836914062 860 519.336914062 594 c 128,-1,24
 549.836914062 328 549.836914062 328 561.836914062 242 c 1,25,26
 581.836914062 531 581.836914062 531 608.836914062 762 c 0,27,28
 626.836914062 932 626.836914062 932 658.836914062 1104 c 128,-1,29
 690.836914062 1276 690.836914062 1276 713.836914062 1366 c 0,30,31
 721.836914062 1397 721.836914062 1397 748.336914062 1416.5 c 128,-1,32
 774.836914062 1436 774.836914062 1436 802.836914062 1440 c 128,-1,33
 830.836914062 1444 830.836914062 1444 854.836914062 1442 c 0,34,35
 856.836914062 1442 856.836914062 1442 862.836914062 1442 c 0,36,37
 878.836914062 1442 878.836914062 1442 890.336914062 1442 c 128,-1,38
 901.836914062 1442 901.836914062 1442 921.336914062 1437 c 128,-1,39
 940.836914062 1432 940.836914062 1432 952.336914062 1423.5 c 128,-1,40
 963.836914062 1415 963.836914062 1415 974.836914062 1397.5 c 128,-1,41
 985.836914062 1380 985.836914062 1380 989.836914062 1356 c 0,42,43
 997.836914062 1295 997.836914062 1295 1036.83691406 756 c 128,-1,44
 1075.83691406 217 1075.83691406 217 1092.83691406 147 c 0,45,46
 1121.83691406 24 1121.83691406 24 1049.83691406 -8 c 0,47,48
 1010.83691406 -24 1010.83691406 -24 972.836914062 -5 c 128,-1,49
 934.836914062 14 934.836914062 14 914.836914062 80 c 0,50,51
 871.836914062 217 871.836914062 217 838.836914062 1276 c 1,52,53
 779.836914062 979 779.836914062 979 760.836914062 735 c 0,54,55
 742.836914062 502 742.836914062 502 711.836914062 292 c 128,-1,56
 680.836914062 82 680.836914062 82 660.836914062 35 c 0,57,58
 637.836914062 -14 637.836914062 -14 547.836914062 -14 c 0,59,60
 506.836914062 -16 506.836914062 -16 480.336914062 -2 c 128,-1,61
 453.836914062 12 453.836914062 12 445.836914062 39 c 0,62,63
 420.836914062 137 420.836914062 137 364.336914062 490.5 c 128,-1,64
 307.836914062 844 307.836914062 844 260.836914062 1167 c 1,65,66
 254.836914062 1101 254.836914062 1101 248.836914062 1019.5 c 128,-1,67
 242.836914062 938 242.836914062 938 238.836914062 877.5 c 128,-1,68
 234.836914062 817 234.836914062 817 226.336914062 698.5 c 128,-1,69
 217.836914062 580 217.836914062 580 213.836914062 518 c 0,70,71
 209.836914062 432 209.836914062 432 200.836914062 341 c 128,-1,72
 191.836914062 250 191.836914062 250 187.336914062 198 c 128,-1,73
 182.836914062 146 182.836914062 146 182.836914062 121 c 0,0,1
EndSplineSet
Validated: 524321
EndChar

StartChar: N
Encoding: 78 78 46
Width: 1114
GlyphClass: 2
Flags: W
LayerCount: 2
Fore
SplineSet
908.818359375 -29 m 0,0,1
 869.818359375 -31 869.818359375 -31 844.318359375 -15.5 c 128,-1,2
 818.818359375 0 818.818359375 0 808.818359375 27 c 0,3,4
 790.818359375 68 790.818359375 68 710.818359375 207 c 128,-1,5
 630.818359375 346 630.818359375 346 545.818359375 496.5 c 128,-1,6
 460.818359375 647 460.818359375 647 367.318359375 833.5 c 128,-1,7
 273.818359375 1020 273.818359375 1020 226.818359375 1151 c 1,8,9
 238.818359375 928 238.818359375 928 236.318359375 735.5 c 128,-1,10
 233.818359375 543 233.818359375 543 227.318359375 343 c 128,-1,11
 220.818359375 143 220.818359375 143 222.818359375 100 c 0,12,13
 224.818359375 34 224.818359375 34 196.318359375 3.5 c 128,-1,14
 167.818359375 -27 167.818359375 -27 126.818359375 -25 c 0,15,16
 83.818359375 -25 83.818359375 -25 68.318359375 10 c 128,-1,17
 52.818359375 45 52.818359375 45 52.818359375 113 c 0,18,19
 52.818359375 154 52.818359375 154 59.318359375 430.5 c 128,-1,20
 65.818359375 707 65.818359375 707 67.818359375 913.5 c 128,-1,21
 69.818359375 1120 69.818359375 1120 63.818359375 1311 c 0,22,23
 61.818359375 1352 61.818359375 1352 73.818359375 1380.5 c 128,-1,24
 85.818359375 1409 85.818359375 1409 108.318359375 1422.5 c 128,-1,25
 130.818359375 1436 130.818359375 1436 155.318359375 1441 c 128,-1,26
 179.818359375 1446 179.818359375 1446 208.818359375 1442 c 0,27,28
 296.818359375 1442 296.818359375 1442 319.818359375 1366 c 0,29,30
 362.818359375 1231 362.818359375 1231 557.318359375 868.5 c 128,-1,31
 751.818359375 506 751.818359375 506 886.818359375 283 c 1,32,33
 894.818359375 476 894.818359375 476 890.818359375 843 c 128,-1,34
 886.818359375 1210 886.818359375 1210 871.818359375 1327 c 0,35,36
 865.818359375 1376 865.818359375 1376 891.818359375 1410 c 128,-1,37
 917.818359375 1444 917.818359375 1444 958.818359375 1444 c 0,38,39
 981.818359375 1444 981.818359375 1444 997.818359375 1439 c 128,-1,40
 1013.81835938 1434 1013.81835938 1434 1022.81835938 1426.5 c 128,-1,41
 1031.81835938 1419 1031.81835938 1419 1038.31835938 1402.5 c 128,-1,42
 1044.81835938 1386 1044.81835938 1386 1047.81835938 1373 c 128,-1,43
 1050.81835938 1360 1050.81835938 1360 1054.81835938 1331 c 0,44,45
 1058.81835938 1298 1058.81835938 1298 1060.81835938 1002.5 c 128,-1,46
 1062.81835938 707 1062.81835938 707 1053.81835938 389.5 c 128,-1,47
 1044.81835938 72 1044.81835938 72 1021.81835938 23 c 0,48,49
 1000.81835938 -29 1000.81835938 -29 908.818359375 -29 c 0,0,1
EndSplineSet
Validated: 524321
EndChar

StartChar: O
Encoding: 79 79 47
Width: 1114
GlyphClass: 2
Flags: W
LayerCount: 2
Fore
SplineSet
488.479492188 -49 m 0,0,1
 361.479492188 -47 361.479492188 -47 261.979492188 27.5 c 128,-1,2
 162.479492188 102 162.479492188 102 107.979492188 228 c 128,-1,3
 53.4794921875 354 53.4794921875 354 55.4794921875 504 c 0,4,5
 55.4794921875 514 55.4794921875 514 55.4794921875 539 c 0,6,7
 55.4794921875 631 55.4794921875 631 56.4794921875 686 c 128,-1,8
 57.4794921875 741 57.4794921875 741 64.9794921875 833.5 c 128,-1,9
 72.4794921875 926 72.4794921875 926 89.9794921875 1009 c 128,-1,10
 107.479492188 1092 107.479492188 1092 133.479492188 1165 c 0,11,12
 184.479492188 1298 184.479492188 1298 314.979492188 1384 c 128,-1,13
 445.479492188 1470 445.479492188 1470 606.479492188 1470 c 0,14,15
 688.479492188 1470 688.479492188 1470 764.479492188 1438.5 c 128,-1,16
 840.479492188 1407 840.479492188 1407 899.979492188 1347.5 c 128,-1,17
 959.479492188 1288 959.479492188 1288 998.979492188 1196 c 128,-1,18
 1038.47949219 1104 1038.47949219 1104 1049.47949219 989 c 0,19,20
 1057.47949219 887 1057.47949219 887 1058.47949219 770 c 128,-1,21
 1059.47949219 653 1059.47949219 653 1051.47949219 533.5 c 128,-1,22
 1043.47949219 414 1043.47949219 414 1024.47949219 344 c 0,23,24
 997.479492188 248 997.479492188 248 958.979492188 178.5 c 128,-1,25
 920.479492188 109 920.479492188 109 872.979492188 64.5 c 128,-1,26
 825.479492188 20 825.479492188 20 763.479492188 -5.5 c 128,-1,27
 701.479492188 -31 701.479492188 -31 636.979492188 -40 c 128,-1,28
 572.479492188 -49 572.479492188 -49 488.479492188 -49 c 0,0,1
488.479492188 123 m 0,29,30
 543.479492188 123 543.479492188 123 593.479492188 136.5 c 128,-1,31
 643.479492188 150 643.479492188 150 690.479492188 179.5 c 128,-1,32
 737.479492188 209 737.479492188 209 774.479492188 258 c 128,-1,33
 811.479492188 307 811.479492188 307 832.479492188 373 c 0,34,35
 840.479492188 400 840.479492188 400 848.479492188 496 c 128,-1,36
 856.479492188 592 856.479492188 592 861.479492188 725 c 128,-1,37
 866.479492188 858 866.479492188 858 854.479492188 987 c 0,38,39
 842.479492188 1122 842.479492188 1122 767.479492188 1213.5 c 128,-1,40
 692.479492188 1305 692.479492188 1305 584.479492188 1305 c 0,41,42
 473.479492188 1305 473.479492188 1305 398.979492188 1224 c 128,-1,43
 324.479492188 1143 324.479492188 1143 291.479492188 997 c 0,44,45
 246.479492188 802 246.479492188 802 254.479492188 537 c 0,46,47
 256.479492188 471 256.479492188 471 264.979492188 415.5 c 128,-1,48
 273.479492188 360 273.479492188 360 290.479492188 305 c 128,-1,49
 307.479492188 250 307.479492188 250 333.479492188 210 c 128,-1,50
 359.479492188 170 359.479492188 170 399.479492188 146.5 c 128,-1,51
 439.479492188 123 439.479492188 123 488.479492188 123 c 0,29,30
EndSplineSet
Validated: 524321
EndChar

StartChar: P
Encoding: 80 80 48
Width: 1114
GlyphClass: 2
Flags: W
LayerCount: 2
Fore
SplineSet
315.244140625 49 m 0,0,1
 317.244140625 6 317.244140625 6 281.244140625 -17.5 c 128,-1,2
 245.244140625 -41 245.244140625 -41 200.244140625 -39 c 0,3,4
 157.244140625 -39 157.244140625 -39 129.744140625 -13.5 c 128,-1,5
 102.244140625 12 102.244140625 12 106.244140625 61 c 0,6,7
 108.244140625 94 108.244140625 94 108.244140625 158.5 c 128,-1,8
 108.244140625 223 108.244140625 223 107.244140625 318.5 c 128,-1,9
 106.244140625 414 106.244140625 414 104.244140625 503 c 128,-1,10
 102.244140625 592 102.244140625 592 99.244140625 721 c 128,-1,11
 96.244140625 850 96.244140625 850 96.244140625 936 c 0,12,13
 94.244140625 1069 94.244140625 1069 98.244140625 1288 c 1,14,15
 88.244140625 1298 88.244140625 1298 86.244140625 1298 c 1,16,17
 70.244140625 1323 70.244140625 1323 74.744140625 1348.5 c 128,-1,18
 79.244140625 1374 79.244140625 1374 96.744140625 1394.5 c 128,-1,19
 114.244140625 1415 114.244140625 1415 135.244140625 1419 c 0,20,21
 209.244140625 1435 209.244140625 1435 351.244140625 1445.5 c 128,-1,22
 493.244140625 1456 493.244140625 1456 551.244140625 1456 c 0,23,24
 690.244140625 1456 690.244140625 1456 799.744140625 1407 c 128,-1,25
 909.244140625 1358 909.244140625 1358 973.744140625 1258.5 c 128,-1,26
 1038.24414062 1159 1038.24414062 1159 1040.24414062 1022 c 0,27,28
 1040.24414062 907 1040.24414062 907 1002.24414062 806 c 128,-1,29
 964.244140625 705 964.244140625 705 899.744140625 631 c 128,-1,30
 835.244140625 557 835.244140625 557 741.244140625 514 c 128,-1,31
 647.244140625 471 647.244140625 471 536.244140625 471 c 0,32,33
 376.244140625 471 376.244140625 471 284.244140625 494 c 1,34,35
 288.244140625 408 288.244140625 408 294.744140625 329 c 128,-1,36
 301.244140625 250 301.244140625 250 307.244140625 165 c 128,-1,37
 313.244140625 80 313.244140625 80 315.244140625 49 c 0,0,1
551.244140625 1290 m 0,38,39
 479.244140625 1290 479.244140625 1290 292.244140625 1274 c 1,40,41
 292.244140625 1233 292.244140625 1233 288.244140625 1122.5 c 128,-1,42
 284.244140625 1012 284.244140625 1012 282.244140625 895 c 128,-1,43
 280.244140625 778 280.244140625 778 280.244140625 668 c 1,44,45
 364.244140625 637 364.244140625 637 477.244140625 639 c 0,46,47
 536.244140625 639 536.244140625 639 584.244140625 647 c 128,-1,48
 632.244140625 655 632.244140625 655 668.244140625 669.5 c 128,-1,49
 704.244140625 684 704.244140625 684 732.744140625 707.5 c 128,-1,50
 761.244140625 731 761.244140625 731 780.744140625 754.5 c 128,-1,51
 800.244140625 778 800.244140625 778 813.744140625 810 c 128,-1,52
 827.244140625 842 827.244140625 842 834.244140625 867.5 c 128,-1,53
 841.244140625 893 841.244140625 893 845.744140625 927 c 128,-1,54
 850.244140625 961 850.244140625 961 851.244140625 982.5 c 128,-1,55
 852.244140625 1004 852.244140625 1004 852.244140625 1034 c 0,56,57
 852.244140625 1091 852.244140625 1091 830.744140625 1137.5 c 128,-1,58
 809.244140625 1184 809.244140625 1184 777.244140625 1211.5 c 128,-1,59
 745.244140625 1239 745.244140625 1239 704.244140625 1257.5 c 128,-1,60
 663.244140625 1276 663.244140625 1276 625.744140625 1283 c 128,-1,61
 588.244140625 1290 588.244140625 1290 551.244140625 1290 c 0,38,39
EndSplineSet
Validated: 524321
EndChar

StartChar: Q
Encoding: 81 81 49
Width: 1114
GlyphClass: 2
Flags: W
LayerCount: 2
Fore
SplineSet
1019.46289062 -422 m 0,0,1
 986.462890625 -442 986.462890625 -442 949.462890625 -432 c 0,2,3
 913.462890625 -422 913.462890625 -422 884.462890625 -385 c 128,-1,4
 855.462890625 -348 855.462890625 -348 785.962890625 -247.5 c 128,-1,5
 716.462890625 -147 716.462890625 -147 651.462890625 -43 c 1,6,7
 598.462890625 -51 598.462890625 -51 534.462890625 -49 c 0,8,9
 444.462890625 -49 444.462890625 -49 366.462890625 -20.5 c 128,-1,10
 288.462890625 8 288.462890625 8 231.962890625 59.5 c 128,-1,11
 175.462890625 111 175.462890625 111 134.462890625 181.5 c 128,-1,12
 93.462890625 252 93.462890625 252 73.462890625 333 c 128,-1,13
 53.462890625 414 53.462890625 414 48.462890625 504 c 0,14,15
 34.462890625 901 34.462890625 901 128.462890625 1157 c 0,16,17
 181.462890625 1292 181.462890625 1292 310.962890625 1381 c 128,-1,18
 440.462890625 1470 440.462890625 1470 599.462890625 1470 c 0,19,20
 683.462890625 1470 683.462890625 1470 756.462890625 1441.5 c 128,-1,21
 829.462890625 1413 829.462890625 1413 888.962890625 1358 c 128,-1,22
 948.462890625 1303 948.462890625 1303 987.962890625 1208.5 c 128,-1,23
 1027.46289062 1114 1027.46289062 1114 1042.46289062 989 c 0,24,25
 1056.46289062 848 1056.46289062 848 1052.46289062 644 c 128,-1,26
 1048.46289062 440 1048.46289062 440 1025.46289062 334 c 0,27,28
 982.462890625 113 982.462890625 113 825.462890625 18 c 1,29,30
 866.462890625 -41 866.462890625 -41 912.462890625 -102.5 c 128,-1,31
 958.462890625 -164 958.462890625 -164 1000.46289062 -217 c 128,-1,32
 1042.46289062 -270 1042.46289062 -270 1056.46289062 -289 c 0,33,34
 1070.46289062 -312 1070.46289062 -312 1066.46289062 -338.5 c 128,-1,35
 1062.46289062 -365 1062.46289062 -365 1048.96289062 -388.5 c 128,-1,36
 1035.46289062 -412 1035.46289062 -412 1019.46289062 -422 c 0,0,1
247.462890625 537 m 0,37,38
 253.462890625 420 253.462890625 420 291.462890625 326.5 c 128,-1,39
 329.462890625 233 329.462890625 233 392.962890625 178 c 128,-1,40
 456.462890625 123 456.462890625 123 534.462890625 123 c 2,41,-1
 554.462890625 123 l 1,42,43
 505.462890625 215 505.462890625 215 485.462890625 266 c 0,44,45
 440.462890625 387 440.462890625 387 503.462890625 438 c 0,46,47
 521.462890625 452 521.462890625 452 543.462890625 455.5 c 128,-1,48
 565.462890625 459 565.462890625 459 584.462890625 443.5 c 128,-1,49
 603.462890625 428 603.462890625 428 616.462890625 397 c 0,50,51
 653.462890625 295 653.462890625 295 722.462890625 174 c 1,52,53
 810.462890625 233 810.462890625 233 839.462890625 365 c 0,54,55
 845.462890625 396 845.462890625 396 852.462890625 489 c 128,-1,56
 859.462890625 582 859.462890625 582 861.962890625 721 c 128,-1,57
 864.462890625 860 864.462890625 860 847.462890625 987 c 0,58,59
 831.462890625 1132 831.462890625 1132 758.462890625 1218.5 c 128,-1,60
 685.462890625 1305 685.462890625 1305 577.462890625 1305 c 0,61,62
 464.462890625 1305 464.462890625 1305 389.962890625 1225 c 128,-1,63
 315.462890625 1145 315.462890625 1145 282.462890625 1001 c 0,64,65
 229.462890625 789 229.462890625 789 247.462890625 537 c 0,37,38
EndSplineSet
Validated: 524321
EndChar

StartChar: R
Encoding: 82 82 50
Width: 1114
GlyphClass: 2
Flags: W
LayerCount: 2
Fore
SplineSet
276.56640625 49 m 0,0,1
 278.56640625 6 278.56640625 6 242.56640625 -17.5 c 128,-1,2
 206.56640625 -41 206.56640625 -41 159.56640625 -39 c 0,3,4
 116.56640625 -39 116.56640625 -39 89.06640625 -13.5 c 128,-1,5
 61.56640625 12 61.56640625 12 67.56640625 61 c 0,6,7
 75.56640625 167 75.56640625 167 75.56640625 242 c 128,-1,8
 75.56640625 317 75.56640625 317 73.56640625 610 c 0,9,10
 73.56640625 649 73.56640625 649 77.56640625 777 c 128,-1,11
 81.56640625 905 81.56640625 905 77.56640625 1020 c 0,12,13
 75.56640625 1090 75.56640625 1090 66.56640625 1208.5 c 128,-1,14
 57.56640625 1327 57.56640625 1327 57.56640625 1352 c 2,15,-1
 57.56640625 1364 l 2,16,17
 55.56640625 1403 55.56640625 1403 83.56640625 1432 c 1,18,19
 110.56640625 1465 110.56640625 1465 157.56640625 1462 c 0,20,21
 198.56640625 1462 198.56640625 1462 223.56640625 1446 c 1,22,23
 393.56640625 1438 393.56640625 1438 531.56640625 1402 c 128,-1,24
 669.56640625 1366 669.56640625 1366 761.56640625 1313 c 128,-1,25
 853.56640625 1260 853.56640625 1260 917.06640625 1192 c 128,-1,26
 980.56640625 1124 980.56640625 1124 1007.56640625 1056.5 c 128,-1,27
 1034.56640625 989 1034.56640625 989 1034.56640625 920 c 0,28,29
 1034.56640625 869 1034.56640625 869 1021.06640625 825.5 c 128,-1,30
 1007.56640625 782 1007.56640625 782 983.06640625 750.5 c 128,-1,31
 958.56640625 719 958.56640625 719 919.56640625 694.5 c 128,-1,32
 880.56640625 670 880.56640625 670 836.56640625 652.5 c 128,-1,33
 792.56640625 635 792.56640625 635 732.06640625 621.5 c 128,-1,34
 671.56640625 608 671.56640625 608 612.06640625 601 c 128,-1,35
 552.56640625 594 552.56640625 594 479.56640625 588 c 1,36,37
 686.56640625 482 686.56640625 482 844.06640625 339.5 c 128,-1,38
 1001.56640625 197 1001.56640625 197 1050.56640625 96 c 1,39,40
 1062.56640625 59 1062.56640625 59 1050.56640625 28.5 c 128,-1,41
 1038.56640625 -2 1038.56640625 -2 1011.56640625 -20 c 0,42,43
 980.56640625 -43 980.56640625 -43 945.06640625 -35 c 128,-1,44
 909.56640625 -27 909.56640625 -27 878.56640625 14 c 0,45,46
 845.56640625 57 845.56640625 57 785.06640625 119.5 c 128,-1,47
 724.56640625 182 724.56640625 182 639.56640625 259 c 128,-1,48
 554.56640625 336 554.56640625 336 446.06640625 410.5 c 128,-1,49
 337.56640625 485 337.56640625 485 235.56640625 530 c 1,50,51
 241.56640625 411 241.56640625 411 258.06640625 249.5 c 128,-1,52
 274.56640625 88 274.56640625 88 276.56640625 49 c 0,0,1
261.56640625 1020 m 0,53,54
 261.56640625 997 261.56640625 997 258.56640625 959.5 c 128,-1,55
 255.56640625 922 255.56640625 922 253.56640625 892 c 128,-1,56
 251.56640625 862 251.56640625 862 246.56640625 810 c 128,-1,57
 241.56640625 758 241.56640625 758 239.56640625 735 c 1,58,59
 282.56640625 727 282.56640625 727 368.56640625 733 c 0,60,61
 452.56640625 737 452.56640625 737 510.06640625 742.5 c 128,-1,62
 567.56640625 748 567.56640625 748 625.56640625 757 c 128,-1,63
 683.56640625 766 683.56640625 766 720.56640625 778.5 c 128,-1,64
 757.56640625 791 757.56640625 791 788.56640625 809 c 128,-1,65
 819.56640625 827 819.56640625 827 832.56640625 853 c 128,-1,66
 845.56640625 879 845.56640625 879 845.56640625 911 c 0,67,68
 845.56640625 968 845.56640625 968 803.56640625 1021.5 c 128,-1,69
 761.56640625 1075 761.56640625 1075 697.06640625 1116 c 128,-1,70
 632.56640625 1157 632.56640625 1157 550.56640625 1191 c 128,-1,71
 468.56640625 1225 468.56640625 1225 394.06640625 1245.5 c 128,-1,72
 319.56640625 1266 319.56640625 1266 251.56640625 1278 c 1,73,74
 257.56640625 1129 257.56640625 1129 261.56640625 1020 c 0,53,54
EndSplineSet
Validated: 524321
EndChar

StartChar: S
Encoding: 83 83 51
Width: 1114
GlyphClass: 2
Flags: W
LayerCount: 2
Fore
SplineSet
63.625 135 m 0,0,1
 36.625 190 36.625 190 45.625 225 c 128,-1,2
 54.625 260 54.625 260 89.625 279 c 0,3,4
 114.625 289 114.625 289 129.125 293 c 128,-1,5
 143.625 297 143.625 297 160.625 295 c 128,-1,6
 177.625 293 177.625 293 194.125 278.5 c 128,-1,7
 210.625 264 210.625 264 231.625 238 c 0,8,9
 268.625 183 268.625 183 332.625 149 c 128,-1,10
 396.625 115 396.625 115 478.625 115 c 0,11,12
 527.625 115 527.625 115 581.125 128 c 128,-1,13
 634.625 141 634.625 141 685.625 169 c 128,-1,14
 736.625 197 736.625 197 777.625 233.5 c 128,-1,15
 818.625 270 818.625 270 843.125 320.5 c 128,-1,16
 867.625 371 867.625 371 867.625 426 c 0,17,18
 867.625 457 867.625 457 863.625 481.5 c 128,-1,19
 859.625 506 859.625 506 848.625 534.5 c 128,-1,20
 837.625 563 837.625 563 818.125 586.5 c 128,-1,21
 798.625 610 798.625 610 763.625 633.5 c 128,-1,22
 728.625 657 728.625 657 681.625 675.5 c 128,-1,23
 634.625 694 634.625 694 567.125 709.5 c 128,-1,24
 499.625 725 499.625 725 415.625 733 c 0,25,26
 341.625 741 341.625 741 281.125 772 c 128,-1,27
 220.625 803 220.625 803 184.125 847 c 128,-1,28
 147.625 891 147.625 891 127.125 939 c 128,-1,29
 106.625 987 106.625 987 106.625 1036 c 0,30,31
 106.625 1106 106.625 1106 130.125 1170.5 c 128,-1,32
 153.625 1235 153.625 1235 202.625 1292.5 c 128,-1,33
 251.625 1350 251.625 1350 321.125 1392 c 128,-1,34
 390.625 1434 390.625 1434 488.125 1458.5 c 128,-1,35
 585.625 1483 585.625 1483 695.625 1483 c 0,36,37
 750.625 1483 750.625 1483 847.125 1473.5 c 128,-1,38
 943.625 1464 943.625 1464 978.625 1450 c 0,39,40
 1017.625 1436 1017.625 1436 1035.125 1405 c 128,-1,41
 1052.625 1374 1052.625 1374 1048.625 1339 c 0,42,43
 1046.625 1314 1046.625 1314 1032.125 1300 c 128,-1,44
 1017.625 1286 1017.625 1286 997.125 1284 c 128,-1,45
 976.625 1282 976.625 1282 960.125 1283 c 128,-1,46
 943.625 1284 943.625 1284 925.625 1290 c 0,47,48
 921.625 1290 921.625 1290 913.625 1294 c 0,49,50
 876.625 1302 876.625 1302 855.125 1307.5 c 128,-1,51
 833.625 1313 833.625 1313 786.125 1317 c 128,-1,52
 738.625 1321 738.625 1321 679.625 1321 c 0,53,54
 585.625 1321 585.625 1321 502.625 1293.5 c 128,-1,55
 419.625 1266 419.625 1266 365.125 1210.5 c 128,-1,56
 310.625 1155 310.625 1155 310.625 1087 c 0,57,58
 310.625 1007 310.625 1007 380.625 952 c 128,-1,59
 450.625 897 450.625 897 577.625 893 c 0,60,61
 692.625 887 692.625 887 780.125 857 c 128,-1,62
 867.625 827 867.625 827 921.125 785 c 128,-1,63
 974.625 743 974.625 743 1010.625 687 c 128,-1,64
 1046.625 631 1046.625 631 1058.625 575.5 c 128,-1,65
 1070.625 520 1070.625 520 1070.625 461 c 0,66,67
 1070.625 367 1070.625 367 1039.125 284 c 128,-1,68
 1007.625 201 1007.625 201 951.125 138.5 c 128,-1,69
 894.625 76 894.625 76 819.125 31 c 128,-1,70
 743.625 -14 743.625 -14 654.125 -36.5 c 128,-1,71
 564.625 -59 564.625 -59 470.625 -59 c 0,72,73
 327.625 -59 327.625 -59 217.125 -3 c 128,-1,74
 106.625 53 106.625 53 63.625 135 c 0,0,1
EndSplineSet
Validated: 524321
EndChar

StartChar: T
Encoding: 84 84 52
Width: 1114
GlyphClass: 2
Flags: W
LayerCount: 2
Fore
SplineSet
689.067382812 68 m 1,0,1
 685.067382812 25 685.067382812 25 648.067382812 -2 c 128,-1,2
 611.067382812 -29 611.067382812 -29 568.067382812 -27 c 0,3,4
 527.067382812 -27 527.067382812 -27 500.567382812 1 c 128,-1,5
 474.067382812 29 474.067382812 29 478.067382812 80 c 0,6,7
 484.067382812 172 484.067382812 172 470.067382812 650 c 128,-1,8
 456.067382812 1128 456.067382812 1128 458.067382812 1272 c 1,9,10
 190.067382812 1284 190.067382812 1284 149.067382812 1290 c 0,11,12
 45.0673828125 1306 45.0673828125 1306 42.0673828125 1370 c 0,13,14
 40.0673828125 1409 40.0673828125 1409 67.5673828125 1439.5 c 128,-1,15
 95.0673828125 1470 95.0673828125 1470 147.067382812 1460 c 0,16,17
 260.067382812 1442 260.067382812 1442 978.067382812 1436 c 0,18,19
 1027.06738281 1436 1027.06738281 1436 1048.56738281 1411 c 128,-1,20
 1070.06738281 1386 1070.06738281 1386 1072.06738281 1352 c 0,21,22
 1072.06738281 1311 1072.06738281 1311 1047.56738281 1280 c 128,-1,23
 1023.06738281 1249 1023.06738281 1249 974.067382812 1253 c 0,24,25
 958.067382812 1253 958.067382812 1253 663.067382812 1264 c 1,26,27
 666.067382812 846 666.067382812 846 689.067382812 68 c 1,0,1
EndSplineSet
Validated: 524321
EndChar

StartChar: U
Encoding: 85 85 53
Width: 1114
GlyphClass: 2
Flags: W
LayerCount: 2
Fore
SplineSet
1073.42285156 532 m 0,0,1
 1071.42285156 440 1071.42285156 440 1049.42285156 359.5 c 128,-1,2
 1027.42285156 279 1027.42285156 279 994.922851562 219.5 c 128,-1,3
 962.422851562 160 962.422851562 160 918.422851562 111.5 c 128,-1,4
 874.422851562 63 874.422851562 63 826.422851562 31.5 c 128,-1,5
 778.422851562 0 778.422851562 0 724.922851562 -20.5 c 128,-1,6
 671.422851562 -41 671.422851562 -41 621.422851562 -50 c 128,-1,7
 571.422851562 -59 571.422851562 -59 522.422851562 -59 c 0,8,9
 463.422851562 -59 463.422851562 -59 401.422851562 -43 c 128,-1,10
 339.422851562 -27 339.422851562 -27 275.922851562 13 c 128,-1,11
 212.422851562 53 212.422851562 53 162.422851562 113.5 c 128,-1,12
 112.422851562 174 112.422851562 174 79.4228515625 271.5 c 128,-1,13
 46.4228515625 369 46.4228515625 369 42.4228515625 489 c 0,14,15
 26.4228515625 1112 26.4228515625 1112 36.4228515625 1335 c 0,16,17
 36.4228515625 1390 36.4228515625 1390 67.4228515625 1421 c 128,-1,18
 98.4228515625 1452 98.4228515625 1452 139.422851562 1452 c 0,19,20
 225.422851562 1452 225.422851562 1452 225.422851562 1348 c 0,21,22
 225.422851562 654 225.422851562 654 235.422851562 508 c 0,23,24
 237.422851562 451 237.422851562 451 248.422851562 399.5 c 128,-1,25
 259.422851562 348 259.422851562 348 282.422851562 298 c 128,-1,26
 305.422851562 248 305.422851562 248 337.922851562 210 c 128,-1,27
 370.422851562 172 370.422851562 172 421.422851562 149.5 c 128,-1,28
 472.422851562 127 472.422851562 127 538.422851562 127 c 0,29,30
 685.422851562 127 685.422851562 127 776.422851562 224 c 0,31,32
 868.422851562 321 868.422851562 321 880.422851562 520 c 0,33,34
 886.422851562 606 886.422851562 606 888.422851562 737 c 128,-1,35
 890.422851562 868 890.422851562 868 889.422851562 969.5 c 128,-1,36
 888.422851562 1071 888.422851562 1071 887.422851562 1184.5 c 128,-1,37
 886.422851562 1298 886.422851562 1298 886.422851562 1319 c 0,38,39
 886.422851562 1364 886.422851562 1364 893.922851562 1393.5 c 128,-1,40
 901.422851562 1423 901.422851562 1423 916.422851562 1435.5 c 128,-1,41
 931.422851562 1448 931.422851562 1448 944.922851562 1451 c 128,-1,42
 958.422851562 1454 958.422851562 1454 980.422851562 1454 c 0,43,44
 1019.42285156 1454 1019.42285156 1454 1044.92285156 1424.5 c 128,-1,45
 1070.42285156 1395 1070.42285156 1395 1073.42285156 1341 c 0,46,47
 1089.42285156 1021 1089.42285156 1021 1073.42285156 532 c 0,0,1
EndSplineSet
Validated: 524321
EndChar

StartChar: V
Encoding: 86 86 54
Width: 1114
GlyphClass: 2
Flags: W
LayerCount: 2
Fore
SplineSet
665.21875 55 m 0,0,1
 642.21875 -31 642.21875 -31 554.21875 -25 c 1,2,3
 466.21875 -25 466.21875 -25 436.21875 49 c 0,4,5
 350.21875 268 350.21875 268 196.21875 731 c 128,-1,6
 42.21875 1194 42.21875 1194 20.21875 1292 c 0,7,8
 -8.78125 1415 -8.78125 1415 65.21875 1448 c 0,9,10
 104.21875 1464 104.21875 1464 141.21875 1444.5 c 128,-1,11
 178.21875 1425 178.21875 1425 198.21875 1360 c 0,12,13
 200.21875 1348 200.21875 1348 238.21875 1229 c 128,-1,14
 276.21875 1110 276.21875 1110 310.71875 995.5 c 128,-1,15
 345.21875 881 345.21875 881 390.71875 737.5 c 128,-1,16
 436.21875 594 436.21875 594 476.71875 468 c 128,-1,17
 517.21875 342 517.21875 342 544.21875 262 c 1,18,19
 622.21875 489 622.21875 489 762.71875 923.5 c 128,-1,20
 903.21875 1358 903.21875 1358 903.21875 1360 c 0,21,22
 923.21875 1423 923.21875 1423 964.21875 1443.5 c 128,-1,23
 1005.21875 1464 1005.21875 1464 1044.21875 1448 c 0,24,25
 1067.21875 1438 1067.21875 1438 1082.21875 1416.5 c 128,-1,26
 1097.21875 1395 1097.21875 1395 1101.21875 1363 c 128,-1,27
 1105.21875 1331 1105.21875 1331 1087.21875 1292 c 0,28,29
 1042.21875 1186 1042.21875 1186 876.21875 707.5 c 128,-1,30
 710.21875 229 710.21875 229 665.21875 55 c 0,0,1
EndSplineSet
Validated: 524321
EndChar

StartChar: W
Encoding: 87 87 55
Width: 1114
GlyphClass: 2
Flags: W
LayerCount: 2
Fore
SplineSet
427.599609375 53 m 0,0,1
 419.599609375 22 419.599609375 22 393.099609375 4 c 128,-1,2
 366.599609375 -14 366.599609375 -14 338.599609375 -19.5 c 128,-1,3
 310.599609375 -25 310.599609375 -25 284.599609375 -23 c 0,4,5
 282.599609375 -23 282.599609375 -23 275.599609375 -23 c 0,6,7
 259.599609375 -23 259.599609375 -23 248.599609375 -21.5 c 128,-1,8
 237.599609375 -20 237.599609375 -20 219.099609375 -16 c 128,-1,9
 200.599609375 -12 200.599609375 -12 188.099609375 -4 c 128,-1,10
 175.599609375 4 175.599609375 4 165.599609375 21.5 c 128,-1,11
 155.599609375 39 155.599609375 39 151.599609375 63 c 0,12,13
 151.599609375 65 151.599609375 65 130.099609375 190 c 128,-1,14
 108.599609375 315 108.599609375 315 97.599609375 414 c 0,15,16
 72.599609375 650 72.599609375 650 17.599609375 1294 c 0,17,18
 7.599609375 1423 7.599609375 1423 77.599609375 1454 c 0,19,20
 93.599609375 1462 93.599609375 1462 114.099609375 1460 c 128,-1,21
 134.599609375 1458 134.599609375 1458 153.099609375 1450 c 128,-1,22
 171.599609375 1442 171.599609375 1442 184.099609375 1418.5 c 128,-1,23
 196.599609375 1395 196.599609375 1395 194.599609375 1364 c 0,24,25
 192.599609375 1247 192.599609375 1247 259.599609375 492 c 0,26,27
 265.599609375 422 265.599609375 422 280.099609375 301 c 128,-1,28
 294.599609375 180 294.599609375 180 298.599609375 154 c 1,29,30
 306.599609375 215 306.599609375 215 327.099609375 391 c 128,-1,31
 347.599609375 567 347.599609375 567 365.099609375 708.5 c 128,-1,32
 382.599609375 850 382.599609375 850 404.099609375 1010.5 c 128,-1,33
 425.599609375 1171 425.599609375 1171 443.099609375 1275.5 c 128,-1,34
 460.599609375 1380 460.599609375 1380 470.599609375 1407 c 0,35,36
 493.599609375 1456 493.599609375 1456 585.599609375 1456 c 0,37,38
 626.599609375 1458 626.599609375 1458 653.099609375 1444 c 128,-1,39
 679.599609375 1430 679.599609375 1430 685.599609375 1403 c 0,40,41
 693.599609375 1368 693.599609375 1368 707.099609375 1280 c 128,-1,42
 720.599609375 1192 720.599609375 1192 730.599609375 1109 c 128,-1,43
 740.599609375 1026 740.599609375 1026 758.099609375 873.5 c 128,-1,44
 775.599609375 721 775.599609375 721 785.599609375 639 c 0,45,46
 799.599609375 518 799.599609375 518 847.599609375 238 c 1,47,48
 882.599609375 527 882.599609375 527 912.599609375 1010 c 0,49,50
 928.599609375 1254 928.599609375 1254 927.599609375 1321 c 0,51,52
 925.599609375 1387 925.599609375 1387 954.099609375 1424.5 c 128,-1,53
 982.599609375 1462 982.599609375 1462 1023.59960938 1460 c 0,54,55
 1099.59960938 1458 1099.59960938 1458 1097.59960938 1311 c 0,56,57
 1097.59960938 1205 1097.59960938 1205 1076.59960938 989 c 0,58,59
 1060.59960938 790 1060.59960938 790 1052.09960938 702 c 128,-1,60
 1043.59960938 614 1043.59960938 614 1026.59960938 443 c 128,-1,61
 1009.59960938 272 1009.59960938 272 994.099609375 180 c 128,-1,62
 978.599609375 88 978.599609375 88 962.599609375 57 c 0,63,64
 942.599609375 14 942.599609375 14 898.099609375 -6.5 c 128,-1,65
 853.599609375 -27 853.599609375 -27 814.599609375 -23 c 1,66,67
 724.599609375 -23 724.599609375 -23 701.599609375 53 c 0,68,69
 652.599609375 248 652.599609375 248 624.599609375 575 c 0,70,71
 616.599609375 663 616.599609375 663 597.099609375 888.5 c 128,-1,72
 577.599609375 1114 577.599609375 1114 566.599609375 1198 c 1,73,74
 535.599609375 868 535.599609375 868 496.099609375 512.5 c 128,-1,75
 456.599609375 157 456.599609375 157 427.599609375 53 c 0,0,1
EndSplineSet
Validated: 524321
EndChar

StartChar: X
Encoding: 88 88 56
Width: 1114
GlyphClass: 2
Flags: W
LayerCount: 2
Fore
SplineSet
207.02734375 0 m 0,0,1
 182.02734375 -33 182.02734375 -33 154.52734375 -43 c 128,-1,2
 127.02734375 -53 127.02734375 -53 105.52734375 -46 c 128,-1,3
 84.02734375 -39 84.02734375 -39 64.02734375 -20 c 0,4,5
 5.02734375 35 5.02734375 35 59.02734375 129 c 0,6,7
 75.02734375 156 75.02734375 156 229.02734375 391.5 c 128,-1,8
 383.02734375 627 383.02734375 627 447.02734375 735 c 1,9,-1
 94.02734375 1266 l 2,10,11
 28.02734375 1366 28.02734375 1366 92.02734375 1419 c 0,12,13
 112.02734375 1435 112.02734375 1435 138.02734375 1442.5 c 128,-1,14
 164.02734375 1450 164.02734375 1450 196.52734375 1437.5 c 128,-1,15
 229.02734375 1425 229.02734375 1425 256.02734375 1391 c 0,16,17
 322.02734375 1305 322.02734375 1305 580.02734375 883 c 1,18,19
 818.02734375 1309 818.02734375 1309 881.02734375 1399 c 0,20,21
 904.02734375 1432 904.02734375 1432 931.52734375 1444 c 128,-1,22
 959.02734375 1456 959.02734375 1456 982.52734375 1452 c 128,-1,23
 1006.02734375 1448 1006.02734375 1448 1024.02734375 1433.5 c 128,-1,24
 1042.02734375 1419 1042.02734375 1419 1051.52734375 1399.5 c 128,-1,25
 1061.02734375 1380 1061.02734375 1380 1059.02734375 1351.5 c 128,-1,26
 1057.02734375 1323 1057.02734375 1323 1038.02734375 1294 c 0,27,28
 1024.02734375 1269 1024.02734375 1269 882.52734375 1042 c 128,-1,29
 741.02734375 815 741.02734375 815 690.02734375 727 c 0,30,31
 690.02734375 727 690.02734375 727 687.02734375 723 c 128,-1,32
 684.02734375 719 684.02734375 719 682.02734375 717 c 0,33,34
 731.02734375 637 731.02734375 637 863.02734375 415 c 128,-1,35
 995.02734375 193 995.02734375 193 1038.02734375 133 c 0,36,37
 1065.02734375 96 1065.02734375 96 1074.02734375 69.5 c 128,-1,38
 1083.02734375 43 1083.02734375 43 1080.02734375 24.5 c 128,-1,39
 1077.02734375 6 1077.02734375 6 1063.02734375 -10 c 0,40,41
 1045.02734375 -30 1045.02734375 -30 1021.02734375 -39.5 c 128,-1,42
 997.02734375 -49 997.02734375 -49 964.02734375 -38 c 0,43,44
 932.02734375 -27 932.02734375 -27 895.02734375 10 c 0,45,46
 856.02734375 53 856.02734375 53 799.52734375 143 c 128,-1,47
 743.02734375 233 743.02734375 233 665.52734375 374.5 c 128,-1,48
 588.02734375 516 588.02734375 516 553.02734375 573 c 1,49,50
 487.02734375 479 487.02734375 479 356.02734375 251 c 128,-1,51
 225.02734375 23 225.02734375 23 207.02734375 0 c 0,0,1
EndSplineSet
Validated: 524321
EndChar

StartChar: Y
Encoding: 89 89 57
Width: 1114
GlyphClass: 2
Flags: W
LayerCount: 2
Fore
SplineSet
420.99609375 -25 m 0,0,1
 402.99609375 -64 402.99609375 -64 362.99609375 -77 c 128,-1,2
 322.99609375 -90 322.99609375 -90 281.99609375 -61 c 0,3,4
 261.99609375 -47 261.99609375 -47 250.49609375 -26.5 c 128,-1,5
 238.99609375 -6 238.99609375 -6 236.99609375 20.5 c 128,-1,6
 234.99609375 47 234.99609375 47 250.99609375 78 c 2,7,-1
 465.99609375 502 l 1,8,9
 426.99609375 576 426.99609375 576 359.49609375 692.5 c 128,-1,10
 291.99609375 809 291.99609375 809 268.99609375 852 c 0,11,12
 241.99609375 901 241.99609375 901 187.99609375 991 c 128,-1,13
 133.99609375 1081 133.99609375 1081 99.49609375 1146.5 c 128,-1,14
 64.99609375 1212 64.99609375 1212 39.99609375 1278 c 0,15,16
 21.99609375 1325 21.99609375 1325 26.99609375 1359 c 128,-1,17
 31.99609375 1393 31.99609375 1393 46.49609375 1413.5 c 128,-1,18
 60.99609375 1434 60.99609375 1434 84.99609375 1444 c 0,19,20
 102.99609375 1452 102.99609375 1452 123.99609375 1454 c 128,-1,21
 144.99609375 1456 144.99609375 1456 167.49609375 1449 c 128,-1,22
 189.99609375 1442 189.99609375 1442 209.49609375 1417.5 c 128,-1,23
 228.99609375 1393 228.99609375 1393 240.99609375 1354 c 0,24,25
 252.99609375 1313 252.99609375 1313 269.49609375 1272 c 128,-1,26
 285.99609375 1231 285.99609375 1231 296.99609375 1204.5 c 128,-1,27
 307.99609375 1178 307.99609375 1178 334.99609375 1128.5 c 128,-1,28
 361.99609375 1079 361.99609375 1079 367.99609375 1068 c 128,-1,29
 373.99609375 1057 373.99609375 1057 407.99609375 999.5 c 128,-1,30
 441.99609375 942 441.99609375 942 441.99609375 940 c 0,31,32
 511.99609375 819 511.99609375 819 561.99609375 700 c 1,33,34
 567.99609375 712 567.99609375 712 600.99609375 784 c 0,35,36
 629.99609375 847 629.99609375 847 701.49609375 991 c 128,-1,37
 772.99609375 1135 772.99609375 1135 805.99609375 1214 c 0,38,39
 815.99609375 1239 815.99609375 1239 841.49609375 1289 c 128,-1,40
 866.99609375 1339 866.99609375 1339 877.99609375 1366 c 0,41,42
 889.99609375 1401 889.99609375 1401 909.49609375 1424.5 c 128,-1,43
 928.99609375 1448 928.99609375 1448 949.49609375 1456 c 128,-1,44
 969.99609375 1464 969.99609375 1464 989.49609375 1464 c 128,-1,45
 1008.99609375 1464 1008.99609375 1464 1026.99609375 1456 c 0,46,47
 1042.99609375 1448 1042.99609375 1448 1056.49609375 1434.5 c 128,-1,48
 1069.99609375 1421 1069.99609375 1421 1079.49609375 1400.5 c 128,-1,49
 1088.99609375 1380 1088.99609375 1380 1087.99609375 1351.5 c 128,-1,50
 1086.99609375 1323 1086.99609375 1323 1071.99609375 1288 c 0,51,52
 1061.99609375 1263 1061.99609375 1263 1031.49609375 1205 c 128,-1,53
 1000.99609375 1147 1000.99609375 1147 983.99609375 1110 c 0,54,55
 965.99609375 1067 965.99609375 1067 908.49609375 958.5 c 128,-1,56
 850.99609375 850 850.99609375 850 817.99609375 780 c 0,57,58
 782.99609375 704 782.99609375 704 733.99609375 602 c 128,-1,59
 684.99609375 500 684.99609375 500 655.49609375 438.5 c 128,-1,60
 625.99609375 377 625.99609375 377 537.99609375 203.5 c 128,-1,61
 449.99609375 30 449.99609375 30 420.99609375 -25 c 0,0,1
EndSplineSet
Validated: 524321
EndChar

StartChar: Z
Encoding: 90 90 58
Width: 1114
GlyphClass: 2
Flags: W
LayerCount: 2
Fore
SplineSet
1069.921875 78 m 0,0,1
 1071.921875 37 1071.921875 37 1048.421875 9.5 c 128,-1,2
 1024.921875 -18 1024.921875 -18 963.921875 -18 c 0,3,4
 949.921875 -18 949.921875 -18 771.421875 -13 c 128,-1,5
 592.921875 -8 592.921875 -8 445.421875 -7 c 128,-1,6
 297.921875 -6 297.921875 -6 131.921875 -10 c 0,7,8
 94.921875 -10 94.921875 -10 69.421875 30 c 128,-1,9
 43.921875 70 43.921875 70 43.921875 106 c 0,10,11
 43.921875 155 43.921875 155 127.921875 309 c 0,12,13
 193.921875 426 193.921875 426 426.421875 770 c 128,-1,14
 658.921875 1114 658.921875 1114 776.921875 1272 c 1,15,16
 672.921875 1270 672.921875 1270 452.921875 1267 c 128,-1,17
 232.921875 1264 232.921875 1264 160.921875 1260 c 0,18,19
 115.921875 1258 115.921875 1258 94.421875 1284.5 c 128,-1,20
 72.921875 1311 72.921875 1311 72.921875 1348 c 0,21,22
 70.921875 1387 70.921875 1387 107.921875 1418.5 c 128,-1,23
 144.921875 1450 144.921875 1450 195.921875 1450 c 0,24,25
 240.921875 1450 240.921875 1450 320.921875 1437.5 c 128,-1,26
 400.921875 1425 400.921875 1425 451.921875 1425 c 0,27,28
 541.921875 1425 541.921875 1425 631.921875 1428.5 c 128,-1,29
 721.921875 1432 721.921875 1432 837.921875 1440 c 128,-1,30
 953.921875 1448 953.921875 1448 967.921875 1448 c 0,31,32
 1002.921875 1450 1002.921875 1450 1028.421875 1418 c 128,-1,33
 1053.921875 1386 1053.921875 1386 1055.921875 1343 c 0,34,35
 1055.921875 1327 1055.921875 1327 1030.421875 1294.5 c 128,-1,36
 1004.921875 1262 1004.921875 1262 966.921875 1222 c 128,-1,37
 928.921875 1182 928.921875 1182 916.921875 1157 c 0,38,39
 853.921875 1055 853.921875 1055 721.421875 865.5 c 128,-1,40
 588.921875 676 588.921875 676 464.921875 489.5 c 128,-1,41
 340.921875 303 340.921875 303 264.921875 158 c 1,42,43
 493.921875 172 493.921875 172 685.921875 172 c 128,-1,44
 877.921875 172 877.921875 172 967.921875 160 c 0,45,46
 1024.921875 150 1024.921875 150 1046.421875 130.5 c 128,-1,47
 1067.921875 111 1067.921875 111 1069.921875 78 c 0,0,1
EndSplineSet
Validated: 524321
EndChar

StartChar: bracketleft
Encoding: 91 91 59
Width: 1114
GlyphClass: 2
Flags: W
LayerCount: 2
Fore
SplineSet
840 -174 m 0,0,1
 787 -168 787 -168 711.5 -168 c 128,-1,2
 636 -168 636 -168 572.5 -171 c 128,-1,3
 509 -174 509 -174 426 -178 c 128,-1,4
 343 -182 343 -182 290 -182 c 0,5,6
 239 -182 239 -182 212 -161.5 c 128,-1,7
 185 -141 185 -141 185 -106 c 0,8,9
 185 -88 185 -88 191 -68 c 1,10,-1
 191 -47 l 1,11,12
 199 57 199 57 205.5 333.5 c 128,-1,13
 212 610 212 610 206 887 c 0,14,15
 204 953 204 953 202.5 1034.5 c 128,-1,16
 201 1116 201 1116 202.5 1204 c 128,-1,17
 204 1292 204 1292 205 1356.5 c 128,-1,18
 206 1421 206 1421 208 1500 c 128,-1,19
 210 1579 210 1579 210 1593 c 2,20,-1
 210 1606 l 1,21,22
 202 1622 202 1622 199 1645 c 0,23,24
 197 1682 197 1682 224 1708.5 c 128,-1,25
 251 1735 251 1735 304 1735 c 0,26,27
 464 1739 464 1739 593 1739 c 128,-1,28
 722 1739 722 1739 828 1743 c 0,29,30
 875 1743 875 1743 897.5 1718.5 c 128,-1,31
 920 1694 920 1694 922 1659 c 0,32,33
 922 1643 922 1643 917 1624.5 c 128,-1,34
 912 1606 912 1606 901 1589.5 c 128,-1,35
 890 1573 890 1573 870.5 1564.5 c 128,-1,36
 851 1556 851 1556 824 1561 c 0,37,38
 703 1577 703 1577 406 1569 c 1,39,40
 406 1526 406 1526 400 1347.5 c 128,-1,41
 394 1169 394 1169 393 1050.5 c 128,-1,42
 392 932 392 932 394 768 c 0,43,44
 398 645 398 645 394 343 c 128,-1,45
 390 41 390 41 392 -20 c 1,46,47
 515 -22 515 -22 669.5 -15 c 128,-1,48
 824 -8 824 -8 840 -8 c 0,49,50
 887 -8 887 -8 906.5 -28.5 c 128,-1,51
 926 -49 926 -49 929 -86 c 0,52,53
 929 -104 929 -104 924.5 -119.5 c 128,-1,54
 920 -135 920 -135 911 -150.5 c 128,-1,55
 902 -166 902 -166 884.5 -172 c 128,-1,56
 867 -178 867 -178 840 -174 c 0,0,1
EndSplineSet
Validated: 33
EndChar

StartChar: backslash
Encoding: 92 92 60
Width: 1114
GlyphClass: 2
Flags: W
LayerCount: 2
Fore
SplineSet
660.935546875 365 m 0,0,1
 609.935546875 463 609.935546875 463 363.435546875 871.5 c 128,-1,2
 116.935546875 1280 116.935546875 1280 62.935546875 1384 c 0,3,4
 37.935546875 1435 37.935546875 1435 48.435546875 1473 c 128,-1,5
 58.935546875 1511 58.935546875 1511 95.935546875 1532 c 0,6,7
 122.935546875 1542 122.935546875 1542 149.435546875 1543 c 128,-1,8
 175.935546875 1544 175.935546875 1544 204.435546875 1526.5 c 128,-1,9
 232.935546875 1509 232.935546875 1509 249.935546875 1477 c 0,10,11
 399.935546875 1178 399.935546875 1178 531.935546875 944 c 0,12,13
 744.935546875 561 744.935546875 561 1043.93554688 70 c 0,14,15
 1072.93554688 21 1072.93554688 21 1067.93554688 -37.5 c 128,-1,16
 1062.93554688 -96 1062.93554688 -96 1029.93554688 -115 c 0,17,18
 992.935546875 -140 992.935546875 -140 942.935546875 -116 c 128,-1,19
 892.935546875 -92 892.935546875 -92 859.935546875 -35 c 0,20,21
 841.935546875 -2 841.935546875 -2 768.935546875 150 c 128,-1,22
 695.935546875 302 695.935546875 302 660.935546875 365 c 0,0,1
EndSplineSet
Validated: 524321
EndChar

StartChar: bracketright
Encoding: 93 93 61
Width: 1114
GlyphClass: 2
Flags: W
LayerCount: 2
Fore
SplineSet
927.5 -106 m 0,0,1
 927.5 -141 927.5 -141 902 -161.5 c 128,-1,2
 876.5 -182 876.5 -182 823.5 -182 c 256,3,4
 770.5 -182 770.5 -182 688.5 -178 c 128,-1,5
 606.5 -174 606.5 -174 543 -171 c 128,-1,6
 479.5 -168 479.5 -168 403.5 -168 c 128,-1,7
 327.5 -168 327.5 -168 272.5 -174 c 0,8,9
 247.5 -178 247.5 -178 229.5 -172 c 128,-1,10
 211.5 -166 211.5 -166 202 -150.5 c 128,-1,11
 192.5 -135 192.5 -135 189.5 -119.5 c 128,-1,12
 186.5 -104 186.5 -104 186.5 -86 c 0,13,14
 188.5 -51 188.5 -51 207 -29.5 c 128,-1,15
 225.5 -8 225.5 -8 272.5 -8 c 0,16,17
 286.5 -8 286.5 -8 443.5 -15.5 c 128,-1,18
 600.5 -23 600.5 -23 723.5 -20 c 1,19,20
 723.5 41 723.5 41 720 343 c 128,-1,21
 716.5 645 716.5 645 721.5 768 c 0,22,23
 723.5 934 723.5 934 721.5 1051.5 c 128,-1,24
 719.5 1169 719.5 1169 714 1347.5 c 128,-1,25
 708.5 1526 708.5 1526 706.5 1569 c 1,26,27
 407.5 1577 407.5 1577 288.5 1561 c 0,28,29
 261.5 1557 261.5 1557 242.5 1565 c 128,-1,30
 223.5 1573 223.5 1573 212 1589.5 c 128,-1,31
 200.5 1606 200.5 1606 195.5 1623 c 128,-1,32
 190.5 1640 190.5 1640 190.5 1659 c 0,33,34
 192.5 1696 192.5 1696 214 1719.5 c 128,-1,35
 235.5 1743 235.5 1743 284.5 1743 c 0,36,37
 390.5 1741 390.5 1741 522 1741 c 128,-1,38
 653.5 1741 653.5 1741 811.5 1735 c 0,39,40
 864.5 1735 864.5 1735 890 1708 c 128,-1,41
 915.5 1681 915.5 1681 913.5 1645 c 0,42,43
 913.5 1622 913.5 1622 905.5 1606 c 1,44,-1
 905.5 1593 l 2,45,46
 905.5 1581 905.5 1581 907.5 1501 c 128,-1,47
 909.5 1421 909.5 1421 909.5 1356.5 c 128,-1,48
 909.5 1292 909.5 1292 911.5 1204 c 128,-1,49
 913.5 1116 913.5 1116 912.5 1034 c 128,-1,50
 911.5 952 911.5 952 909.5 887 c 0,51,52
 903.5 611 903.5 611 908.5 334 c 128,-1,53
 913.5 57 913.5 57 921.5 -47 c 1,54,-1
 921.5 -68 l 1,55,56
 927.5 -88 927.5 -88 927.5 -106 c 0,0,1
EndSplineSet
Validated: 524321
EndChar

StartChar: asciicircum
Encoding: 94 94 62
Width: 1114
GlyphClass: 2
Flags: W
LayerCount: 2
Fore
SplineSet
235.243164062 1319 m 0,0,1
 227.243164062 1311 227.243164062 1311 212.243164062 1296 c 0,2,3
 165.243164062 1243 165.243164062 1243 142.743164062 1227.5 c 128,-1,4
 120.243164062 1212 120.243164062 1212 91.2431640625 1225 c 0,5,6
 75.2431640625 1233 75.2431640625 1233 59.7431640625 1248.5 c 128,-1,7
 44.2431640625 1264 44.2431640625 1264 32.2431640625 1285.5 c 128,-1,8
 20.2431640625 1307 20.2431640625 1307 24.2431640625 1335.5 c 128,-1,9
 28.2431640625 1364 28.2431640625 1364 50.2431640625 1393 c 0,10,11
 91.2431640625 1446 91.2431640625 1446 157.743164062 1521.5 c 128,-1,12
 224.243164062 1597 224.243164062 1597 305.243164062 1692.5 c 128,-1,13
 386.243164062 1788 386.243164062 1788 468.243164062 1896 c 0,14,15
 486.243164062 1923 486.243164062 1923 522.243164062 1931 c 128,-1,16
 558.243164062 1939 558.243164062 1939 592.243164062 1930 c 128,-1,17
 626.243164062 1921 626.243164062 1921 640.243164062 1894 c 0,18,19
 718.243164062 1790 718.243164062 1790 775.743164062 1719.5 c 128,-1,20
 833.243164062 1649 833.243164062 1649 863.743164062 1615 c 128,-1,21
 894.243164062 1581 894.243164062 1581 953.743164062 1519.5 c 128,-1,22
 1013.24316406 1458 1013.24316406 1458 1062.24316406 1405 c 0,23,24
 1087.24316406 1378 1087.24316406 1378 1090.24316406 1349.5 c 128,-1,25
 1093.24316406 1321 1093.24316406 1321 1078.74316406 1299.5 c 128,-1,26
 1064.24316406 1278 1064.24316406 1278 1046.74316406 1261.5 c 128,-1,27
 1029.24316406 1245 1029.24316406 1245 1011.24316406 1237 c 0,28,29
 982.243164062 1223 982.243164062 1223 957.743164062 1239 c 128,-1,30
 933.243164062 1255 933.243164062 1255 878.243164062 1313 c 0,31,32
 864.243164062 1327 864.243164062 1327 855.243164062 1333 c 0,33,34
 734.243164062 1456 734.243164062 1456 688.243164062 1509.5 c 128,-1,35
 642.243164062 1563 642.243164062 1563 560.243164062 1677 c 1,36,37
 505.243164062 1601 505.243164062 1601 462.243164062 1551 c 128,-1,38
 419.243164062 1501 419.243164062 1501 392.743164062 1477.5 c 128,-1,39
 366.243164062 1454 366.243164062 1454 322.243164062 1411 c 128,-1,40
 278.243164062 1368 278.243164062 1368 235.243164062 1319 c 0,0,1
EndSplineSet
Validated: 524321
EndChar

StartChar: underscore
Encoding: 95 95 63
Width: 1114
GlyphClass: 2
Flags: W
LayerCount: 2
Fore
SplineSet
133.084960938 -31 m 0,0,1
 354.084960938 -33 354.084960938 -33 486.584960938 -33 c 128,-1,2
 619.084960938 -33 619.084960938 -33 780.584960938 -31 c 128,-1,3
 942.084960938 -29 942.084960938 -29 979.084960938 -29 c 0,4,5
 1026.08496094 -29 1026.08496094 -29 1045.58496094 -51.5 c 128,-1,6
 1065.08496094 -74 1065.08496094 -74 1067.08496094 -111 c 0,7,8
 1067.08496094 -199 1067.08496094 -199 979.084960938 -199 c 0,9,10
 932.084960938 -199 932.084960938 -199 601.084960938 -202 c 128,-1,11
 270.084960938 -205 270.084960938 -205 135.084960938 -205 c 0,12,13
 47.0849609375 -205 47.0849609375 -205 47.0849609375 -117 c 0,14,15
 43.0849609375 -29 43.0849609375 -29 133.084960938 -31 c 0,0,1
EndSplineSet
Validated: 524321
EndChar

StartChar: grave
Encoding: 96 96 64
Width: 1114
GlyphClass: 2
Flags: W
LayerCount: 2
Fore
SplineSet
643.823242188 1298 m 0,0,1
 637.823242188 1302 637.823242188 1302 583.823242188 1332 c 128,-1,2
 529.823242188 1362 529.823242188 1362 501.823242188 1378.5 c 128,-1,3
 473.823242188 1395 473.823242188 1395 429.823242188 1422.5 c 128,-1,4
 385.823242188 1450 385.823242188 1450 355.823242188 1475 c 0,5,6
 332.823242188 1493 332.823242188 1493 320.323242188 1520.5 c 128,-1,7
 307.823242188 1548 307.823242188 1548 309.323242188 1571.5 c 128,-1,8
 310.823242188 1595 310.823242188 1595 318.823242188 1616 c 0,9,10
 338.823242188 1647 338.823242188 1647 384.823242188 1656 c 128,-1,11
 430.823242188 1665 430.823242188 1665 469.823242188 1638 c 0,12,13
 475.823242188 1632 475.823242188 1632 526.323242188 1592 c 128,-1,14
 576.823242188 1552 576.823242188 1552 598.323242188 1536 c 128,-1,15
 619.823242188 1520 619.823242188 1520 659.823242188 1493 c 128,-1,16
 699.823242188 1466 699.823242188 1466 727.823242188 1450 c 0,17,18
 772.823242188 1425 772.823242188 1425 793.323242188 1383 c 128,-1,19
 813.823242188 1341 813.823242188 1341 797.823242188 1315 c 0,20,21
 779.823242188 1286 779.823242188 1286 737.323242188 1278.5 c 128,-1,22
 694.823242188 1271 694.823242188 1271 643.823242188 1298 c 0,0,1
EndSplineSet
Validated: 524321
EndChar

StartChar: a
Encoding: 97 97 65
Width: 1114
GlyphClass: 2
Flags: W
LayerCount: 2
Fore
SplineSet
999.388671875 -29 m 1024,0,1
161.388671875 848 m 0,2,3
 188.388671875 887 188.388671875 887 229.388671875 922 c 0,4,5
 264.388671875 953 264.388671875 953 317.388671875 978.5 c 128,-1,6
 370.388671875 1004 370.388671875 1004 450.388671875 1024 c 0,7,8
 530.388671875 1044 530.388671875 1044 632.388671875 1044 c 0,9,10
 825.388671875 1040 825.388671875 1040 886.388671875 948 c 0,11,12
 976.388671875 809 976.388671875 809 980.388671875 551 c 0,13,14
 980.388671875 490 980.388671875 490 976.388671875 291 c 0,15,16
 976.388671875 246 976.388671875 246 995.388671875 92 c 0,17,18
 1018.38867188 -78 1018.38867188 -78 956.388671875 -78 c 0,19,20
 872.388671875 -78 872.388671875 -78 862.388671875 -37 c 0,21,22
 817.388671875 141 817.388671875 141 815.388671875 141 c 0,23,24
 747.388671875 28 747.388671875 28 669.388671875 -18 c 0,25,26
 606.388671875 -57 606.388671875 -57 464.388671875 -57 c 0,27,28
 401.388671875 -57 401.388671875 -57 325.388671875 -22.5 c 128,-1,29
 249.388671875 12 249.388671875 12 194.388671875 85 c 128,-1,30
 139.388671875 158 139.388671875 158 112.388671875 233 c 1,31,32
 112.388671875 286 112.388671875 286 124.388671875 348 c 0,33,34
 138.388671875 414 138.388671875 414 186.388671875 461 c 0,35,36
 249.388671875 527 249.388671875 527 276.388671875 539 c 0,37,38
 380.388671875 594 380.388671875 594 399.388671875 600 c 0,39,40
 555.388671875 643 555.388671875 643 561.388671875 643 c 0,41,42
 665.388671875 655 665.388671875 655 692.388671875 662 c 0,43,44
 702.388671875 664 702.388671875 664 790.388671875 696 c 1,45,46
 798.388671875 723 798.388671875 723 792.388671875 756 c 0,47,48
 790.388671875 770 790.388671875 770 774.388671875 793 c 4,49,50
 749.388671875 824 749.388671875 824 718.388671875 840 c 0,51,52
 689.388671875 856 689.388671875 856 620.388671875 860 c 0,53,54
 565.388671875 864 565.388671875 864 509.888671875 847.5 c 128,-1,55
 454.388671875 831 454.388671875 831 418.388671875 808.5 c 128,-1,56
 382.388671875 786 382.388671875 786 360.388671875 768 c 0,57,58
 340.388671875 750 340.388671875 750 331.388671875 741 c 0,59,60
 251.388671875 635 251.388671875 635 174.388671875 688 c 0,61,62
 89.388671875 746 89.388671875 746 161.388671875 848 c 0,2,3
507.388671875 102 m 0,63,64
 542.388671875 102 542.388671875 102 578.388671875 114.5 c 128,-1,65
 614.388671875 127 614.388671875 127 651.388671875 155.5 c 128,-1,66
 688.388671875 184 688.388671875 184 716.888671875 224 c 128,-1,67
 745.388671875 264 745.388671875 264 765.888671875 326.5 c 128,-1,68
 786.388671875 389 786.388671875 389 790.388671875 465 c 1,69,70
 389.388671875 430 389.388671875 430 292.388671875 270 c 1,71,72
 339.388671875 178 339.388671875 178 391.888671875 140 c 128,-1,73
 444.388671875 102 444.388671875 102 507.388671875 102 c 0,63,64
EndSplineSet
Validated: 524321
EndChar

StartChar: b
Encoding: 98 98 66
Width: 1114
GlyphClass: 2
Flags: W
LayerCount: 2
Fore
SplineSet
1030.58789062 565 m 0,0,1
 1032.58789062 452 1032.58789062 452 1009.08789062 355 c 128,-1,2
 985.587890625 258 985.587890625 258 942.587890625 188.5 c 128,-1,3
 899.587890625 119 899.587890625 119 841.087890625 69.5 c 128,-1,4
 782.587890625 20 782.587890625 20 718.087890625 -4.5 c 128,-1,5
 653.587890625 -29 653.587890625 -29 585.587890625 -29 c 0,6,7
 401.587890625 -29 401.587890625 -29 274.587890625 68 c 1,8,9
 270.587890625 19 270.587890625 19 246.087890625 -0.5 c 128,-1,10
 221.587890625 -20 221.587890625 -20 184.587890625 -23 c 0,11,12
 84.587890625 -27 84.587890625 -27 84.587890625 90 c 0,13,14
 82.587890625 342 82.587890625 342 83.587890625 813 c 128,-1,15
 84.587890625 1284 84.587890625 1284 90.587890625 1458 c 0,16,17
 90.587890625 1521 90.587890625 1521 114.087890625 1546 c 128,-1,18
 137.587890625 1571 137.587890625 1571 178.587890625 1573 c 0,19,20
 225.587890625 1577 225.587890625 1577 256.087890625 1551.5 c 128,-1,21
 286.587890625 1526 286.587890625 1526 284.587890625 1458 c 0,22,23
 284.587890625 1442 284.587890625 1442 283.587890625 1273 c 128,-1,24
 282.587890625 1104 282.587890625 1104 282.587890625 975 c 1,25,26
 417.587890625 1067 417.587890625 1067 600.587890625 1067 c 0,27,28
 733.587890625 1065 733.587890625 1065 833.087890625 1000.5 c 128,-1,29
 932.587890625 936 932.587890625 936 982.587890625 823 c 128,-1,30
 1032.58789062 710 1032.58789062 710 1030.58789062 565 c 0,0,1
555.587890625 897 m 0,31,32
 412.587890625 903 412.587890625 903 280.587890625 791 c 1,33,34
 280.587890625 529 280.587890625 529 276.587890625 233 c 1,35,36
 321.587890625 186 321.587890625 186 383.087890625 166.5 c 128,-1,37
 444.587890625 147 444.587890625 147 528.587890625 147 c 0,38,39
 675.587890625 147 675.587890625 147 754.587890625 256 c 128,-1,40
 833.587890625 365 833.587890625 365 831.587890625 549 c 0,41,42
 829.587890625 641 829.587890625 641 799.087890625 718 c 128,-1,43
 768.587890625 795 768.587890625 795 705.087890625 845 c 128,-1,44
 641.587890625 895 641.587890625 895 555.587890625 897 c 0,31,32
EndSplineSet
Validated: 524321
EndChar

StartChar: c
Encoding: 99 99 67
Width: 1114
GlyphClass: 2
Flags: W
LayerCount: 2
Fore
SplineSet
982.44140625 815 m 0,0,1
 1015.44140625 698 1015.44140625 698 921.44140625 659 c 0,2,3
 898.44140625 651 898.44140625 651 878.94140625 650 c 128,-1,4
 859.44140625 649 859.44140625 649 839.94140625 655.5 c 128,-1,5
 820.44140625 662 820.44140625 662 804.44140625 681 c 128,-1,6
 788.44140625 700 788.44140625 700 777.44140625 731 c 0,7,8
 775.44140625 741 775.44140625 741 768.44140625 764.5 c 128,-1,9
 761.44140625 788 761.44140625 788 757.44140625 799.5 c 128,-1,10
 753.44140625 811 753.44140625 811 744.94140625 828.5 c 128,-1,11
 736.44140625 846 736.44140625 846 727.44140625 855 c 128,-1,12
 718.44140625 864 718.44140625 864 703.94140625 874.5 c 128,-1,13
 689.44140625 885 689.44140625 885 670.94140625 890 c 128,-1,14
 652.44140625 895 652.44140625 895 628.44140625 895 c 0,15,16
 591.44140625 895 591.44140625 895 553.44140625 881.5 c 128,-1,17
 515.44140625 868 515.44140625 868 473.44140625 836.5 c 128,-1,18
 431.44140625 805 431.44140625 805 397.94140625 756 c 128,-1,19
 364.44140625 707 364.44140625 707 339.44140625 628 c 128,-1,20
 314.44140625 549 314.44140625 549 308.44140625 449 c 0,21,22
 292.44140625 134 292.44140625 134 544.44140625 121 c 0,23,24
 653.44140625 117 653.44140625 117 723.94140625 147.5 c 128,-1,25
 794.44140625 178 794.44140625 178 810.44140625 217 c 0,26,27
 824.44140625 252 824.44140625 252 842.94140625 272.5 c 128,-1,28
 861.44140625 293 861.44140625 293 880.94140625 299 c 128,-1,29
 900.44140625 305 900.44140625 305 918.94140625 303 c 128,-1,30
 937.44140625 301 937.44140625 301 958.44140625 295 c 0,31,32
 1048.44140625 256 1048.44140625 256 994.44140625 145 c 0,33,34
 976.44140625 108 976.44140625 108 940.44140625 73.5 c 128,-1,35
 904.44140625 39 904.44140625 39 848.44140625 6 c 128,-1,36
 792.44140625 -27 792.44140625 -27 706.44140625 -46.5 c 128,-1,37
 620.44140625 -66 620.44140625 -66 519.44140625 -63 c 0,38,39
 419.44140625 -61 419.44140625 -61 337.44140625 -23.5 c 128,-1,40
 255.44140625 14 255.44140625 14 204.44140625 76.5 c 128,-1,41
 153.44140625 139 153.44140625 139 125.44140625 218 c 128,-1,42
 97.44140625 297 97.44140625 297 99.44140625 381 c 0,43,44
 101.44140625 520 101.44140625 520 133.44140625 637 c 128,-1,45
 165.44140625 754 165.44140625 754 219.94140625 834.5 c 128,-1,46
 274.44140625 915 274.44140625 915 346.94140625 970.5 c 128,-1,47
 419.44140625 1026 419.44140625 1026 502.44140625 1052.5 c 128,-1,48
 585.44140625 1079 585.44140625 1079 675.44140625 1079 c 0,49,50
 784.44140625 1079 784.44140625 1079 868.94140625 1000 c 128,-1,51
 953.44140625 921 953.44140625 921 982.44140625 815 c 0,0,1
EndSplineSet
Validated: 524321
EndChar

StartChar: d
Encoding: 100 100 68
Width: 1114
GlyphClass: 2
Flags: W
LayerCount: 2
Fore
SplineSet
958.290039062 -18 m 0,0,1
 897.290039062 -30 897.290039062 -30 865.290039062 11.5 c 128,-1,2
 833.290039062 53 833.290039062 53 827.290039062 131 c 1,3,4
 804.290039062 98 804.290039062 98 778.790039062 71.5 c 128,-1,5
 753.290039062 45 753.290039062 45 717.790039062 21.5 c 128,-1,6
 682.290039062 -2 682.290039062 -2 631.790039062 -15.5 c 128,-1,7
 581.290039062 -29 581.290039062 -29 524.290039062 -29 c 0,8,9
 454.290039062 -29 454.290039062 -29 387.790039062 -5.5 c 128,-1,10
 321.290039062 18 321.290039062 18 260.790039062 66.5 c 128,-1,11
 200.290039062 115 200.290039062 115 155.290039062 183.5 c 128,-1,12
 110.290039062 252 110.290039062 252 85.7900390625 349 c 128,-1,13
 61.2900390625 446 61.2900390625 446 63.2900390625 559 c 0,14,15
 61.2900390625 696 61.2900390625 696 114.290039062 805.5 c 128,-1,16
 167.290039062 915 167.290039062 915 269.790039062 979.5 c 128,-1,17
 372.290039062 1044 372.290039062 1044 507.290039062 1047 c 0,18,19
 693.290039062 1047 693.290039062 1047 823.290039062 961 c 1,20,21
 825.290039062 1340 825.290039062 1340 835.290039062 1448 c 0,22,23
 845.290039062 1575 845.290039062 1575 946.290039062 1575 c 0,24,25
 989.290039062 1573 989.290039062 1573 1012.79003906 1546.5 c 128,-1,26
 1036.29003906 1520 1036.29003906 1520 1032.29003906 1448 c 0,27,28
 1026.29003906 1325 1026.29003906 1325 1014.79003906 996.5 c 128,-1,29
 1003.29003906 668 1003.29003906 668 1003.29003906 498 c 0,30,31
 1005.29003906 383 1005.29003906 383 1014.79003906 297 c 128,-1,32
 1024.29003906 211 1024.29003906 211 1033.29003906 175 c 128,-1,33
 1042.29003906 139 1042.29003906 139 1047.29003906 112.5 c 128,-1,34
 1052.29003906 86 1052.29003906 86 1050.29003906 68 c 0,35,36
 1040.29003906 -2 1040.29003906 -2 958.290039062 -18 c 0,0,1
542.290039062 154 m 0,37,38
 577.290039062 154 577.290039062 154 606.790039062 160 c 128,-1,39
 636.290039062 166 636.290039062 166 657.790039062 174 c 128,-1,40
 679.290039062 182 679.290039062 182 700.790039062 198.5 c 128,-1,41
 722.290039062 215 722.290039062 215 735.790039062 228.5 c 128,-1,42
 749.290039062 242 749.290039062 242 765.790039062 264.5 c 128,-1,43
 782.290039062 287 782.290039062 287 789.290039062 299 c 128,-1,44
 796.290039062 311 796.290039062 311 811.290039062 336 c 0,45,46
 815.290039062 342 815.290039062 342 817.290039062 346 c 0,47,48
 817.290039062 369 817.290039062 369 816.290039062 410 c 128,-1,49
 815.290039062 451 815.290039062 451 815.290039062 486.5 c 128,-1,50
 815.290039062 522 815.290039062 522 817.290039062 555 c 0,51,52
 817.290039062 578 817.290039062 578 818.290039062 624 c 128,-1,53
 819.290039062 670 819.290039062 670 819.290039062 692 c 1,54,55
 772.290039062 770 772.290039062 770 697.290039062 820 c 128,-1,56
 622.290039062 870 622.290039062 870 538.290039062 868 c 0,57,58
 452.290039062 864 452.290039062 864 388.790039062 817 c 128,-1,59
 325.290039062 770 325.290039062 770 293.790039062 698.5 c 128,-1,60
 262.290039062 627 262.290039062 627 260.290039062 541 c 0,61,62
 258.290039062 359 258.290039062 359 332.790039062 256.5 c 128,-1,63
 407.290039062 154 407.290039062 154 542.290039062 154 c 0,37,38
EndSplineSet
Validated: 524321
EndChar

StartChar: e
Encoding: 101 101 69
Width: 1114
GlyphClass: 2
Flags: W
LayerCount: 2
Fore
SplineSet
987.385742188 123 m 0,0,1
 954.385742188 80 954.385742188 80 919.385742188 49 c 128,-1,2
 884.385742188 18 884.385742188 18 831.385742188 -8.5 c 128,-1,3
 778.385742188 -35 778.385742188 -35 699.385742188 -47 c 128,-1,4
 620.385742188 -59 620.385742188 -59 518.385742188 -57 c 0,5,6
 313.385742188 -55 313.385742188 -55 200.385742188 89 c 128,-1,7
 87.3857421875 233 87.3857421875 233 92.3857421875 485 c 0,8,9
 94.3857421875 622 94.3857421875 622 135.385742188 733 c 128,-1,10
 176.385742188 844 176.385742188 844 245.885742188 916.5 c 128,-1,11
 315.385742188 989 315.385742188 989 410.385742188 1028 c 128,-1,12
 505.385742188 1067 505.385742188 1067 616.385742188 1067 c 0,13,14
 679.385742188 1067 679.385742188 1067 755.385742188 1032 c 128,-1,15
 831.385742188 997 831.385742188 997 896.885742188 931.5 c 128,-1,16
 962.385742188 866 962.385742188 866 989.385742188 791 c 1,17,18
 999.385742188 740 999.385742188 740 961.385742188 680.5 c 128,-1,19
 923.385742188 621 923.385742188 621 880.385742188 590 c 0,20,21
 841.385742188 561 841.385742188 561 783.885742188 531.5 c 128,-1,22
 726.385742188 502 726.385742188 502 652.885742188 472 c 128,-1,23
 579.385742188 442 579.385742188 442 527.385742188 422.5 c 128,-1,24
 475.385742188 403 475.385742188 403 396.385742188 375.5 c 128,-1,25
 317.385742188 348 317.385742188 348 296.385742188 342 c 1,26,27
 304.385742188 293 304.385742188 293 319.885742188 253 c 128,-1,28
 335.385742188 213 335.385742188 213 362.385742188 181.5 c 128,-1,29
 389.385742188 150 389.385742188 150 431.385742188 131.5 c 128,-1,30
 473.385742188 113 473.385742188 113 530.385742188 111 c 0,31,32
 585.385742188 109 585.385742188 109 639.885742188 123 c 128,-1,33
 694.385742188 137 694.385742188 137 729.885742188 160.5 c 128,-1,34
 765.385742188 184 765.385742188 184 787.885742188 201.5 c 128,-1,35
 810.385742188 219 810.385742188 219 819.385742188 229 c 0,36,37
 899.385742188 335 899.385742188 335 976.385742188 283 c 0,38,39
 1061.38574219 223 1061.38574219 223 987.385742188 123 c 0,0,1
573.385742188 907 m 0,40,41
 538.385742188 907 538.385742188 907 502.385742188 895 c 128,-1,42
 466.385742188 883 466.385742188 883 429.885742188 854 c 128,-1,43
 393.385742188 825 393.385742188 825 364.385742188 785 c 128,-1,44
 335.385742188 745 335.385742188 745 314.885742188 683 c 128,-1,45
 294.385742188 621 294.385742188 621 290.385742188 547 c 1,46,47
 681.385742188 643 681.385742188 643 788.385742188 739 c 1,48,49
 741.385742188 831 741.385742188 831 688.885742188 869 c 128,-1,50
 636.385742188 907 636.385742188 907 573.385742188 907 c 0,40,41
EndSplineSet
Validated: 524321
EndChar

StartChar: f
Encoding: 102 102 70
Width: 1114
GlyphClass: 2
Flags: W
LayerCount: 2
Fore
SplineSet
809.078125 -33 m 0,0,1
 807.078125 -33 807.078125 -33 671.078125 -35 c 128,-1,2
 535.078125 -37 535.078125 -37 416.078125 -36 c 128,-1,3
 297.078125 -35 297.078125 -35 223.078125 -29 c 0,4,5
 168.078125 -29 168.078125 -29 144.578125 0 c 128,-1,6
 121.078125 29 121.078125 29 123.078125 68 c 0,7,8
 123.078125 107 123.078125 107 146.578125 132.5 c 128,-1,9
 170.078125 158 170.078125 158 225.078125 156 c 0,10,11
 248.078125 154 248.078125 154 293.078125 153 c 128,-1,12
 338.078125 152 338.078125 152 361.078125 152 c 1,13,14
 363.078125 189 363.078125 189 356.578125 222.5 c 128,-1,15
 350.078125 256 350.078125 256 350.078125 301 c 0,16,17
 350.078125 340 350.078125 340 346.078125 418 c 128,-1,18
 342.078125 496 342.078125 496 335.078125 626 c 128,-1,19
 328.078125 756 328.078125 756 326.078125 827 c 1,20,21
 287.078125 825 287.078125 825 223.078125 825 c 0,22,23
 135.078125 825 135.078125 825 135.078125 913 c 0,24,25
 131.078125 1001 131.078125 1001 221.078125 1004 c 2,26,-1
 320.078125 1004 l 1,27,28
 318.078125 1037 318.078125 1037 318.078125 1098 c 0,29,30
 318.078125 1196 318.078125 1196 349.578125 1276 c 128,-1,31
 381.078125 1356 381.078125 1356 433.078125 1409 c 128,-1,32
 485.078125 1462 485.078125 1462 559.078125 1498 c 128,-1,33
 633.078125 1534 633.078125 1534 716.078125 1550.5 c 128,-1,34
 799.078125 1567 799.078125 1567 893.078125 1567 c 0,35,36
 936.078125 1567 936.078125 1567 963.578125 1546.5 c 128,-1,37
 991.078125 1526 991.078125 1526 991.078125 1485 c 0,38,39
 991.078125 1444 991.078125 1444 968.578125 1416.5 c 128,-1,40
 946.078125 1389 946.078125 1389 914.078125 1389 c 0,41,42
 732.078125 1389 732.078125 1389 621.078125 1303 c 128,-1,43
 510.078125 1217 510.078125 1217 510.078125 1077 c 0,44,45
 510.078125 1034 510.078125 1034 512.078125 1006 c 1,46,47
 836.078125 1010 836.078125 1010 879.078125 1010 c 0,48,49
 926.078125 1010 926.078125 1010 945.578125 989.5 c 128,-1,50
 965.078125 969 965.078125 969 967.078125 934 c 0,51,52
 967.078125 844 967.078125 844 879.078125 844 c 0,53,54
 856.078125 844 856.078125 844 802.078125 842 c 128,-1,55
 748.078125 840 748.078125 840 664.078125 837 c 128,-1,56
 580.078125 834 580.078125 834 520.078125 834 c 1,57,58
 522.078125 781 522.078125 781 531.578125 568.5 c 128,-1,59
 541.078125 356 541.078125 356 545.078125 246 c 0,60,61
 547.078125 154 547.078125 154 549.078125 147 c 1,62,63
 727.078125 141 727.078125 141 813.078125 139 c 0,64,65
 864.078125 139 864.078125 139 889.078125 117.5 c 128,-1,66
 914.078125 96 914.078125 96 914.078125 61 c 0,67,68
 914.078125 22 914.078125 22 888.078125 -5.5 c 128,-1,69
 862.078125 -33 862.078125 -33 809.078125 -33 c 0,0,1
EndSplineSet
Validated: 524321
EndChar

StartChar: g
Encoding: 103 103 71
Width: 1114
GlyphClass: 2
Flags: W
LayerCount: 2
Fore
SplineSet
987.400390625 -86 m 0,0,1
 977.400390625 -188 977.400390625 -188 941.400390625 -272 c 128,-1,2
 905.400390625 -356 905.400390625 -356 851.400390625 -415.5 c 128,-1,3
 797.400390625 -475 797.400390625 -475 727.900390625 -517 c 128,-1,4
 658.400390625 -559 658.400390625 -559 581.400390625 -578.5 c 128,-1,5
 504.400390625 -598 504.400390625 -598 420.400390625 -598 c 0,6,7
 357.400390625 -598 357.400390625 -598 293.900390625 -579.5 c 128,-1,8
 230.400390625 -561 230.400390625 -561 189.400390625 -541 c 0,9,10
 187.400390625 -539 187.400390625 -539 174.900390625 -532.5 c 128,-1,11
 162.400390625 -526 162.400390625 -526 160.400390625 -525 c 128,-1,12
 158.400390625 -524 158.400390625 -524 148.900390625 -518 c 128,-1,13
 139.400390625 -512 139.400390625 -512 137.400390625 -510 c 128,-1,14
 135.400390625 -508 135.400390625 -508 129.400390625 -503 c 128,-1,15
 123.400390625 -498 123.400390625 -498 122.400390625 -493.5 c 128,-1,16
 121.400390625 -489 121.400390625 -489 119.400390625 -482 c 128,-1,17
 117.400390625 -475 117.400390625 -475 116.400390625 -468 c 128,-1,18
 115.400390625 -461 115.400390625 -461 115.400390625 -451 c 0,19,20
 115.400390625 -410 115.400390625 -410 141.900390625 -383 c 128,-1,21
 168.400390625 -356 168.400390625 -356 203.400390625 -365 c 0,22,23
 217.400390625 -367 217.400390625 -367 247.400390625 -383 c 128,-1,24
 277.400390625 -399 277.400390625 -399 312.900390625 -412.5 c 128,-1,25
 348.400390625 -426 348.400390625 -426 381.400390625 -426 c 0,26,27
 485.400390625 -426 485.400390625 -426 578.900390625 -383 c 128,-1,28
 672.400390625 -340 672.400390625 -340 733.900390625 -258 c 128,-1,29
 795.400390625 -176 795.400390625 -176 809.400390625 -74 c 0,30,31
 815.400390625 -31 815.400390625 -31 819.400390625 78 c 1,32,33
 717.400390625 -63 717.400390625 -63 492.400390625 -63 c 1,34,35
 291.400390625 -59 291.400390625 -59 200.400390625 72 c 128,-1,36
 109.400390625 203 109.400390625 203 109.400390625 461 c 0,37,38
 111.400390625 584 111.400390625 584 142.900390625 683 c 128,-1,39
 174.400390625 782 174.400390625 782 228.900390625 848.5 c 128,-1,40
 283.400390625 915 283.400390625 915 356.900390625 959.5 c 128,-1,41
 430.400390625 1004 430.400390625 1004 511.400390625 1023 c 128,-1,42
 592.400390625 1042 592.400390625 1042 684.400390625 1042 c 0,43,44
 793.400390625 1042 793.400390625 1042 840.400390625 1033 c 128,-1,45
 887.400390625 1024 887.400390625 1024 934.400390625 999 c 0,46,47
 952.400390625 989 952.400390625 989 960.900390625 968.5 c 128,-1,48
 969.400390625 948 969.400390625 948 968.400390625 927.5 c 128,-1,49
 967.400390625 907 967.400390625 907 959.400390625 895 c 0,50,51
 959.400390625 893 959.400390625 893 954.900390625 888 c 128,-1,52
 950.400390625 883 950.400390625 883 948.400390625 881 c 1,53,54
 999.400390625 869 999.400390625 869 1000.40039062 803 c 0,55,56
 1000.40039062 799 1000.40039062 799 1003.40039062 573.5 c 128,-1,57
 1006.40039062 348 1006.40039062 348 1001.90039062 192.5 c 128,-1,58
 997.400390625 37 997.400390625 37 987.400390625 -86 c 0,0,1
303.400390625 526 m 0,59,60
 301.400390625 460 301.400390625 460 302.400390625 401 c 128,-1,61
 303.400390625 342 303.400390625 342 318.900390625 289 c 128,-1,62
 334.400390625 236 334.400390625 236 356.900390625 197 c 128,-1,63
 379.400390625 158 379.400390625 158 420.400390625 136.5 c 128,-1,64
 461.400390625 115 461.400390625 115 516.400390625 117 c 0,65,66
 575.400390625 119 575.400390625 119 625.900390625 136.5 c 128,-1,67
 676.400390625 154 676.400390625 154 710.400390625 181.5 c 128,-1,68
 744.400390625 209 744.400390625 209 768.900390625 246 c 128,-1,69
 793.400390625 283 793.400390625 283 806.400390625 317.5 c 128,-1,70
 819.400390625 352 819.400390625 352 826.400390625 389 c 1,71,72
 826.400390625 448 826.400390625 448 827.400390625 584.5 c 128,-1,73
 828.400390625 721 828.400390625 721 830.400390625 791 c 0,74,75
 830.400390625 816 830.400390625 816 842.400390625 840 c 1,76,-1
 830.400390625 842 l 1,77,78
 721.400390625 875 721.400390625 875 631.400390625 870 c 0,79,80
 588.400390625 868 588.400390625 868 546.400390625 856 c 128,-1,81
 504.400390625 844 504.400390625 844 461.400390625 816 c 128,-1,82
 418.400390625 788 418.400390625 788 385.400390625 750.5 c 128,-1,83
 352.400390625 713 352.400390625 713 329.900390625 655.5 c 128,-1,84
 307.400390625 598 307.400390625 598 303.400390625 526 c 0,59,60
EndSplineSet
Validated: 524321
EndChar

StartChar: h
Encoding: 104 104 72
Width: 1114
GlyphClass: 2
Flags: W
LayerCount: 2
Fore
SplineSet
1006.76269531 84 m 0,0,1
 1006.76269531 21 1006.76269531 21 973.762695312 -13 c 128,-1,2
 940.762695312 -47 940.762695312 -47 897.762695312 -45 c 0,3,4
 858.762695312 -43 858.762695312 -43 826.262695312 -12.5 c 128,-1,5
 793.762695312 18 793.762695312 18 793.762695312 66 c 0,6,7
 793.762695312 123 793.762695312 123 796.762695312 289 c 128,-1,8
 799.762695312 455 799.762695312 455 799.762695312 559 c 0,9,10
 797.762695312 698 797.762695312 698 765.762695312 773 c 128,-1,11
 733.762695312 848 733.762695312 848 672.762695312 848 c 0,12,13
 611.762695312 848 611.762695312 848 559.262695312 827.5 c 128,-1,14
 506.762695312 807 506.762695312 807 473.262695312 776 c 128,-1,15
 439.762695312 745 439.762695312 745 411.762695312 706.5 c 128,-1,16
 383.762695312 668 383.762695312 668 369.762695312 630 c 128,-1,17
 355.762695312 592 355.762695312 592 346.262695312 555 c 128,-1,18
 336.762695312 518 336.762695312 518 333.762695312 496.5 c 128,-1,19
 330.762695312 475 330.762695312 475 330.762695312 465 c 1,20,-1
 330.762695312 467 l 1,21,22
 330.762695312 455 330.762695312 455 329.762695312 427 c 128,-1,23
 328.762695312 399 328.762695312 399 328.762695312 385 c 0,24,25
 328.762695312 346 328.762695312 346 328.762695312 287.5 c 128,-1,26
 328.762695312 229 328.762695312 229 327.762695312 198.5 c 128,-1,27
 326.762695312 168 326.762695312 168 324.762695312 127 c 128,-1,28
 322.762695312 86 322.762695312 86 318.762695312 49 c 0,29,30
 314.762695312 6 314.762695312 6 277.762695312 -19.5 c 128,-1,31
 240.762695312 -45 240.762695312 -45 197.762695312 -43 c 0,32,33
 156.762695312 -43 156.762695312 -43 130.262695312 -15.5 c 128,-1,34
 103.762695312 12 103.762695312 12 107.762695312 61 c 0,35,36
 113.762695312 145 113.762695312 145 122.762695312 357 c 128,-1,37
 131.762695312 569 131.762695312 569 127.762695312 647 c 0,38,39
 113.762695312 991 113.762695312 991 123.762695312 1460 c 0,40,41
 123.762695312 1515 123.762695312 1515 153.762695312 1544 c 128,-1,42
 183.762695312 1573 183.762695312 1573 226.762695312 1573 c 0,43,44
 271.762695312 1575 271.762695312 1575 301.262695312 1549.5 c 128,-1,45
 330.762695312 1524 330.762695312 1524 330.762695312 1468 c 0,46,47
 330.762695312 1241 330.762695312 1241 334.762695312 834 c 1,48,49
 357.762695312 875 357.762695312 875 390.262695312 908.5 c 128,-1,50
 422.762695312 942 422.762695312 942 470.762695312 974 c 128,-1,51
 518.762695312 1006 518.762695312 1006 588.762695312 1023 c 128,-1,52
 658.762695312 1040 658.762695312 1040 740.762695312 1040 c 0,53,54
 808.762695312 1040 808.762695312 1040 857.762695312 1009.5 c 128,-1,55
 906.762695312 979 906.762695312 979 934.262695312 923.5 c 128,-1,56
 961.762695312 868 961.762695312 868 973.762695312 799.5 c 128,-1,57
 985.762695312 731 985.762695312 731 985.762695312 651 c 0,58,59
 985.762695312 528 985.762695312 528 996.262695312 341 c 128,-1,60
 1006.76269531 154 1006.76269531 154 1006.76269531 84 c 0,0,1
EndSplineSet
Validated: 524321
EndChar

StartChar: i
Encoding: 105 105 73
Width: 1114
GlyphClass: 2
Flags: W
LayerCount: 2
Fore
SplineSet
556.092773438 1141 m 0,0,1
 480.092773438 1135 480.092773438 1135 433.092773438 1184 c 128,-1,2
 386.092773438 1233 386.092773438 1233 386.092773438 1300 c 0,3,4
 386.092773438 1361 386.092773438 1361 438.592773438 1406.5 c 128,-1,5
 491.092773438 1452 491.092773438 1452 556.092773438 1456 c 0,6,7
 628.092773438 1458 628.092773438 1458 673.092773438 1414 c 128,-1,8
 718.092773438 1370 718.092773438 1370 718.092773438 1305 c 0,9,10
 718.092773438 1239 718.092773438 1239 674.092773438 1194 c 128,-1,11
 630.092773438 1149 630.092773438 1149 556.092773438 1141 c 0,0,1
941.092773438 -25 m 0,12,13
 906.092773438 -25 906.092773438 -25 587.092773438 -30 c 128,-1,14
 268.092773438 -35 268.092773438 -35 171.092773438 -35 c 0,15,16
 122.092773438 -35 122.092773438 -35 102.592773438 -8.5 c 128,-1,17
 83.0927734375 18 83.0927734375 18 85.0927734375 57 c 0,18,19
 85.0927734375 96 85.0927734375 96 104.592773438 118.5 c 128,-1,20
 124.092773438 141 124.092773438 141 173.092773438 141 c 2,21,-1
 491.092773438 141 l 1,22,23
 491.092773438 235 491.092773438 235 489.092773438 301 c 0,24,25
 487.092773438 354 487.092773438 354 487.092773438 404.5 c 128,-1,26
 487.092773438 455 487.092773438 455 488.092773438 521.5 c 128,-1,27
 489.092773438 588 489.092773438 588 490.092773438 614.5 c 128,-1,28
 491.092773438 641 491.092773438 641 494.092773438 728 c 128,-1,29
 497.092773438 815 497.092773438 815 497.092773438 827 c 1,30,31
 472.092773438 831 472.092773438 831 380.092773438 828 c 128,-1,32
 288.092773438 825 288.092773438 825 241.092773438 827 c 0,33,34
 202.092773438 827 202.092773438 827 180.592773438 850.5 c 128,-1,35
 159.092773438 874 159.092773438 874 159.092773438 905 c 0,36,37
 157.092773438 942 157.092773438 942 177.592773438 968.5 c 128,-1,38
 198.092773438 995 198.092773438 995 239.092773438 995 c 0,39,40
 432.092773438 1009 432.092773438 1009 585.092773438 1006 c 0,41,42
 618.092773438 1006 618.092773438 1006 640.592773438 992.5 c 128,-1,43
 663.092773438 979 663.092773438 979 672.092773438 956.5 c 128,-1,44
 681.092773438 934 681.092773438 934 685.592773438 916.5 c 128,-1,45
 690.092773438 899 690.092773438 899 690.092773438 887 c 0,46,47
 680.092773438 758 680.092773438 758 677.592773438 626 c 128,-1,48
 675.092773438 494 675.092773438 494 678.092773438 399.5 c 128,-1,49
 681.092773438 305 681.092773438 305 690.092773438 141 c 1,50,-1
 948.092773438 141 l 2,51,52
 995.092773438 141 995.092773438 141 1012.09277344 119.5 c 128,-1,53
 1029.09277344 98 1029.09277344 98 1029.09277344 61 c 0,54,55
 1025.09277344 -25 1025.09277344 -25 941.092773438 -25 c 0,12,13
EndSplineSet
Validated: 524321
EndChar

StartChar: j
Encoding: 106 106 74
Width: 1114
GlyphClass: 2
Flags: W
LayerCount: 2
Fore
SplineSet
799.5 1133 m 0,0,1
 721.5 1133 721.5 1133 678.5 1186 c 128,-1,2
 635.5 1239 635.5 1239 635.5 1311 c 0,3,4
 635.5 1372 635.5 1372 683.5 1409 c 128,-1,5
 731.5 1446 731.5 1446 799.5 1448 c 0,6,7
 871.5 1450 871.5 1450 917.5 1406 c 128,-1,8
 963.5 1362 963.5 1362 963.5 1295.5 c 128,-1,9
 963.5 1229 963.5 1229 917.5 1181 c 128,-1,10
 871.5 1133 871.5 1133 799.5 1133 c 0,0,1
723.5 -29 m 0,11,12
 723.5 -13 723.5 -13 716.5 127.5 c 128,-1,13
 709.5 268 709.5 268 706.5 411.5 c 128,-1,14
 703.5 555 703.5 555 713.5 813 c 1,15,16
 684.5 811 684.5 811 602.5 811 c 128,-1,17
 520.5 811 520.5 811 418.5 812 c 128,-1,18
 316.5 813 316.5 813 291.5 813 c 0,19,20
 244.5 813 244.5 813 216 843.5 c 128,-1,21
 187.5 874 187.5 874 189.5 913 c 0,22,23
 189.5 944 189.5 944 217 966.5 c 128,-1,24
 244.5 989 244.5 989 289.5 989 c 0,25,26
 361.5 993 361.5 993 541.5 998.5 c 128,-1,27
 721.5 1004 721.5 1004 813.5 1001 c 0,28,29
 844.5 1001 844.5 1001 867 987 c 128,-1,30
 889.5 973 889.5 973 899.5 951.5 c 128,-1,31
 909.5 930 909.5 930 914 912.5 c 128,-1,32
 918.5 895 918.5 895 918.5 883 c 0,33,34
 916.5 863 916.5 863 910 828 c 128,-1,35
 903.5 793 903.5 793 901.5 770.5 c 128,-1,36
 899.5 748 899.5 748 899.5 719 c 0,37,38
 899.5 668 899.5 668 907 385 c 128,-1,39
 914.5 102 914.5 102 914.5 -55 c 0,40,41
 914.5 -141 914.5 -141 893 -216 c 128,-1,42
 871.5 -291 871.5 -291 835.5 -344 c 128,-1,43
 799.5 -397 799.5 -397 747 -440 c 128,-1,44
 694.5 -483 694.5 -483 637.5 -510 c 128,-1,45
 580.5 -537 580.5 -537 513 -555 c 128,-1,46
 445.5 -573 445.5 -573 381 -580.5 c 128,-1,47
 316.5 -588 316.5 -588 248.5 -588 c 0,48,49
 205.5 -588 205.5 -588 178 -566.5 c 128,-1,50
 150.5 -545 150.5 -545 150.5 -506 c 0,51,52
 150.5 -465 150.5 -465 177 -434 c 128,-1,53
 203.5 -403 203.5 -403 236.5 -403 c 0,54,55
 312.5 -403 312.5 -403 382 -390 c 128,-1,56
 451.5 -377 451.5 -377 514 -348 c 128,-1,57
 576.5 -319 576.5 -319 622.5 -276 c 128,-1,58
 668.5 -233 668.5 -233 696 -170 c 128,-1,59
 723.5 -107 723.5 -107 723.5 -29 c 0,11,12
EndSplineSet
Validated: 524321
EndChar

StartChar: k
Encoding: 107 107 75
Width: 1114
GlyphClass: 2
Flags: W
LayerCount: 2
Fore
SplineSet
304.93359375 66 m 0,0,1
 302.93359375 3 302.93359375 3 269.93359375 -23 c 128,-1,2
 236.93359375 -49 236.93359375 -49 187.93359375 -45 c 0,3,4
 146.93359375 -43 146.93359375 -43 117.43359375 -17.5 c 128,-1,5
 87.93359375 8 87.93359375 8 91.93359375 61 c 0,6,7
 99.93359375 153 99.93359375 153 102.93359375 359 c 128,-1,8
 105.93359375 565 105.93359375 565 105.93359375 745.5 c 128,-1,9
 105.93359375 926 105.93359375 926 103.93359375 1168.5 c 128,-1,10
 101.93359375 1411 101.93359375 1411 101.93359375 1470 c 0,11,12
 101.93359375 1521 101.93359375 1521 134.93359375 1547 c 128,-1,13
 167.93359375 1573 167.93359375 1573 212.93359375 1573 c 0,14,15
 255.93359375 1573 255.93359375 1573 283.43359375 1548.5 c 128,-1,16
 310.93359375 1524 310.93359375 1524 310.93359375 1473 c 0,17,18
 310.93359375 1209 310.93359375 1209 298.93359375 639 c 1,19,20
 413.93359375 743 413.93359375 743 586.93359375 886.5 c 128,-1,21
 759.93359375 1030 759.93359375 1030 777.93359375 1049 c 0,22,23
 806.93359375 1078 806.93359375 1078 833.43359375 1087 c 128,-1,24
 859.93359375 1096 859.93359375 1096 879.43359375 1089.5 c 128,-1,25
 898.93359375 1083 898.93359375 1083 914.93359375 1067 c 0,26,27
 967.93359375 1010 967.93359375 1010 898.93359375 926 c 0,28,29
 857.93359375 879 857.93359375 879 603.93359375 655 c 1,30,31
 644.93359375 581 644.93359375 581 750.43359375 442 c 128,-1,32
 855.93359375 303 855.93359375 303 937.93359375 197.5 c 128,-1,33
 1019.93359375 92 1019.93359375 92 1021.93359375 78 c 0,34,35
 1027.93359375 8 1027.93359375 8 974.93359375 -27 c 0,36,37
 951.93359375 -41 951.93359375 -41 930.43359375 -44 c 128,-1,38
 908.93359375 -47 908.93359375 -47 884.43359375 -35 c 128,-1,39
 859.93359375 -23 859.93359375 -23 838.93359375 8 c 0,40,41
 828.93359375 24 828.93359375 24 772.93359375 93 c 128,-1,42
 716.93359375 162 716.93359375 162 660.43359375 230.5 c 128,-1,43
 603.93359375 299 603.93359375 299 546.43359375 386 c 128,-1,44
 488.93359375 473 488.93359375 473 464.93359375 532 c 1,45,-1
 298.93359375 385 l 2,46,47
 296.93359375 383 296.93359375 383 294.93359375 383 c 0,48,49
 292.93359375 307 292.93359375 307 299.93359375 204 c 128,-1,50
 306.93359375 101 306.93359375 101 304.93359375 66 c 0,0,1
EndSplineSet
Validated: 524321
EndChar

StartChar: l
Encoding: 108 108 76
Width: 1114
GlyphClass: 2
Flags: W
LayerCount: 2
Fore
SplineSet
1055.50683594 78 m 0,0,1
 1057.50683594 37 1057.50683594 37 1034.00683594 9.5 c 128,-1,2
 1010.50683594 -18 1010.50683594 -18 949.506835938 -18 c 0,3,4
 922.506835938 -18 922.506835938 -18 584.506835938 -14 c 128,-1,5
 246.506835938 -10 246.506835938 -10 146.506835938 -10 c 0,6,7
 101.506835938 -10 101.506835938 -10 80.0068359375 14.5 c 128,-1,8
 58.5068359375 39 58.5068359375 39 58.5068359375 78 c 0,9,10
 56.5068359375 119 56.5068359375 119 78.0068359375 145.5 c 128,-1,11
 99.5068359375 172 99.5068359375 172 148.506835938 172 c 0,12,13
 240.506835938 172 240.506835938 172 463.506835938 170 c 1,14,15
 463.506835938 252 463.506835938 252 461.506835938 301 c 0,16,17
 457.506835938 483 457.506835938 483 461.506835938 800.5 c 128,-1,18
 465.506835938 1118 465.506835938 1118 471.506835938 1374 c 1,19,20
 405.506835938 1370 405.506835938 1370 232.506835938 1368 c 0,21,22
 189.506835938 1368 189.506835938 1368 165.006835938 1397.5 c 128,-1,23
 140.506835938 1427 140.506835938 1427 142.506835938 1466 c 0,24,25
 142.506835938 1501 142.506835938 1501 165.006835938 1523.5 c 128,-1,26
 187.506835938 1546 187.506835938 1546 230.506835938 1546 c 0,27,28
 373.506835938 1546 373.506835938 1546 461.506835938 1550 c 128,-1,29
 549.506835938 1554 549.506835938 1554 615.506835938 1552 c 0,30,31
 642.506835938 1552 642.506835938 1552 652.506835938 1524 c 1,32,33
 679.506835938 1514 679.506835938 1514 678.506835938 1491 c 0,34,35
 668.506835938 1425 668.506835938 1425 661.506835938 1144.5 c 128,-1,36
 654.506835938 864 654.506835938 864 654.506835938 725 c 0,37,38
 654.506835938 520 654.506835938 520 656.506835938 383 c 0,39,40
 656.506835938 307 656.506835938 307 662.506835938 162 c 1,41,42
 721.506835938 162 721.506835938 162 787.006835938 160 c 128,-1,43
 852.506835938 158 852.506835938 158 894.506835938 157 c 128,-1,44
 936.506835938 156 936.506835938 156 953.506835938 156 c 0,45,46
 1010.50683594 156 1010.50683594 156 1032.00683594 134.5 c 128,-1,47
 1053.50683594 113 1053.50683594 113 1055.50683594 78 c 0,0,1
EndSplineSet
Validated: 524321
EndChar

StartChar: m
Encoding: 109 109 77
Width: 1114
GlyphClass: 2
Flags: W
LayerCount: 2
Fore
SplineSet
251.166992188 61 m 0,0,1
 251.166992188 28 251.166992188 28 242.666992188 5 c 128,-1,2
 234.166992188 -18 234.166992188 -18 219.166992188 -29.5 c 128,-1,3
 204.166992188 -41 204.166992188 -41 187.666992188 -44 c 128,-1,4
 171.166992188 -47 171.166992188 -47 153.166992188 -47 c 0,5,6
 112.166992188 -45 112.166992188 -45 88.1669921875 -22.5 c 128,-1,7
 64.1669921875 0 64.1669921875 0 64.1669921875 61 c 0,8,9
 64.1669921875 79 64.1669921875 79 62.1669921875 115.5 c 128,-1,10
 60.1669921875 152 60.1669921875 152 57.1669921875 207 c 128,-1,11
 54.1669921875 262 54.1669921875 262 54.1669921875 301 c 0,12,13
 44.1669921875 557 44.1669921875 557 54.1669921875 942 c 0,14,15
 54.1669921875 1012 54.1669921875 1012 89.1669921875 1044.5 c 128,-1,16
 124.166992188 1077 124.166992188 1077 169.166992188 1075 c 0,17,18
 210.166992188 1075 210.166992188 1075 233.666992188 1044.5 c 128,-1,19
 257.166992188 1014 257.166992188 1014 249.166992188 944 c 0,20,21
 247.166992188 928 247.166992188 928 240.666992188 893 c 128,-1,22
 234.166992188 858 234.166992188 858 232.166992188 842 c 1,23,24
 330.166992188 1047 330.166992188 1047 505.166992188 1044 c 0,25,26
 546.166992188 1044 546.166992188 1044 577.666992188 989 c 128,-1,27
 609.166992188 934 609.166992188 934 630.166992188 840 c 1,28,29
 743.166992188 1047 743.166992188 1047 941.166992188 1044 c 0,30,31
 990.166992188 1044 990.166992188 1044 1017.66699219 985 c 128,-1,32
 1045.16699219 926 1045.16699219 926 1053.66699219 826.5 c 128,-1,33
 1062.16699219 727 1062.16699219 727 1064.16699219 601 c 128,-1,34
 1066.16699219 475 1066.16699219 475 1062.16699219 344 c 128,-1,35
 1058.16699219 213 1058.16699219 213 1064.16699219 86 c 0,36,37
 1064.16699219 45 1064.16699219 45 1059.16699219 17.5 c 128,-1,38
 1054.16699219 -10 1054.16699219 -10 1040.66699219 -23.5 c 128,-1,39
 1027.16699219 -37 1027.16699219 -37 1013.66699219 -41 c 128,-1,40
 1000.16699219 -45 1000.16699219 -45 982.166992188 -45 c 0,41,42
 962.166992188 -45 962.166992188 -45 945.666992188 -42 c 128,-1,43
 929.166992188 -39 929.166992188 -39 911.666992188 -25.5 c 128,-1,44
 894.166992188 -12 894.166992188 -12 883.666992188 15.5 c 128,-1,45
 873.166992188 43 873.166992188 43 871.166992188 86 c 0,46,47
 867.166992188 156 867.166992188 156 868.166992188 250 c 128,-1,48
 869.166992188 344 869.166992188 344 871.166992188 450.5 c 128,-1,49
 873.166992188 557 873.166992188 557 873.166992188 646 c 128,-1,50
 873.166992188 735 873.166992188 735 865.166992188 793.5 c 128,-1,51
 857.166992188 852 857.166992188 852 841.166992188 852 c 0,52,53
 784.166992188 854 784.166992188 854 735.666992188 792.5 c 128,-1,54
 687.166992188 731 687.166992188 731 654.166992188 633 c 1,55,56
 660.166992188 518 660.166992188 518 651.166992188 327.5 c 128,-1,57
 642.166992188 137 642.166992188 137 646.166992188 70 c 0,58,59
 648.166992188 33 648.166992188 33 642.166992188 8.5 c 128,-1,60
 636.166992188 -16 636.166992188 -16 620.666992188 -27.5 c 128,-1,61
 605.166992188 -39 605.166992188 -39 589.666992188 -43 c 128,-1,62
 574.166992188 -47 574.166992188 -47 556.166992188 -45 c 0,63,64
 517.166992188 -45 517.166992188 -45 493.666992188 -22.5 c 128,-1,65
 470.166992188 0 470.166992188 0 464.166992188 70 c 0,66,67
 460.166992188 136 460.166992188 136 470.166992188 299.5 c 128,-1,68
 480.166992188 463 480.166992188 463 480.166992188 555 c 0,69,70
 480.166992188 573 480.166992188 573 480.166992188 602 c 0,71,72
 480.166992188 756 480.166992188 756 474.166992188 804 c 128,-1,73
 468.166992188 852 468.166992188 852 435.166992188 852 c 0,74,75
 386.166992188 852 386.166992188 852 331.666992188 784.5 c 128,-1,76
 277.166992188 717 277.166992188 717 241.166992188 625 c 1,77,78
 239.166992188 559 239.166992188 559 243.166992188 383 c 0,79,80
 243.166992188 311 243.166992188 311 247.166992188 198.5 c 128,-1,81
 251.166992188 86 251.166992188 86 251.166992188 61 c 0,0,1
EndSplineSet
Validated: 524321
EndChar

StartChar: n
Encoding: 110 110 78
Width: 1114
GlyphClass: 2
Flags: W
LayerCount: 2
Fore
SplineSet
315.76171875 61 m 0,0,1
 315.76171875 2 315.76171875 2 282.76171875 -23.5 c 128,-1,2
 249.76171875 -49 249.76171875 -49 202.76171875 -45 c 0,3,4
 165.76171875 -43 165.76171875 -43 141.26171875 -18.5 c 128,-1,5
 116.76171875 6 116.76171875 6 114.76171875 61 c 0,6,7
 114.76171875 77 114.76171875 77 104.26171875 160.5 c 128,-1,8
 93.76171875 244 93.76171875 244 91.76171875 301 c 0,9,10
 85.76171875 434 85.76171875 434 101.26171875 665.5 c 128,-1,11
 116.76171875 897 116.76171875 897 118.76171875 934 c 0,12,13
 118.76171875 997 118.76171875 997 154.76171875 1027 c 128,-1,14
 190.76171875 1057 190.76171875 1057 237.76171875 1055 c 0,15,16
 280.76171875 1055 280.76171875 1055 306.26171875 1027 c 128,-1,17
 331.76171875 999 331.76171875 999 327.76171875 936 c 0,18,19
 323.76171875 893 323.76171875 893 319.76171875 868 c 1,20,21
 368.76171875 944 368.76171875 944 457.76171875 994 c 128,-1,22
 546.76171875 1044 546.76171875 1044 669.76171875 1044 c 0,23,24
 810.76171875 1044 810.76171875 1044 883.76171875 941 c 128,-1,25
 956.76171875 838 956.76171875 838 962.76171875 651 c 0,26,27
 966.76171875 526 966.76171875 526 993.26171875 332.5 c 128,-1,28
 1019.76171875 139 1019.76171875 139 1023.76171875 78 c 0,29,30
 1025.76171875 15 1025.76171875 15 1001.26171875 -15 c 128,-1,31
 976.76171875 -45 976.76171875 -45 935.76171875 -45 c 0,32,33
 890.76171875 -47 890.76171875 -47 857.26171875 -18.5 c 128,-1,34
 823.76171875 10 823.76171875 10 818.76171875 78 c 0,35,36
 816.76171875 96 816.76171875 96 797.76171875 271 c 128,-1,37
 778.76171875 446 778.76171875 446 773.76171875 559 c 0,38,39
 765.76171875 733 765.76171875 733 740.26171875 793.5 c 128,-1,40
 714.76171875 854 714.76171875 854 640.76171875 854 c 0,41,42
 589.76171875 854 589.76171875 854 542.76171875 837.5 c 128,-1,43
 495.76171875 821 495.76171875 821 458.76171875 795.5 c 128,-1,44
 421.76171875 770 421.76171875 770 389.26171875 734 c 128,-1,45
 356.76171875 698 356.76171875 698 336.26171875 666.5 c 128,-1,46
 315.76171875 635 315.76171875 635 294.76171875 600 c 1,47,48
 288.76171875 483 288.76171875 483 290.76171875 383 c 0,49,50
 290.76171875 311 290.76171875 311 303.26171875 201.5 c 128,-1,51
 315.76171875 92 315.76171875 92 315.76171875 61 c 0,0,1
259.76171875 502 m 1,52,-1
 259.76171875 506 l 1,53,-1
 259.76171875 502 l 1,52,-1
EndSplineSet
Validated: 524321
EndChar

